<?xml version="1.0" standalone="no"?>
<!DOCTYPE svg PUBLIC "-//W3C//DTD SVG 20010904//EN"
 "http://www.w3.org/TR/2001/REC-SVG-20010904/DTD/svg10.dtd">
<svg version="1.0" xmlns="http://www.w3.org/2000/svg"
 width="1280.000000pt" height="851.000000pt" viewBox="0 0 1280.000000 851.000000"
 preserveAspectRatio="xMidYMid meet">
<metadata>
Created by potrace 1.15, written by Peter Selinger 2001-2017
</metadata>
<g transform="translate(0.000000,851.000000) scale(0.100000,-0.100000)"
fill="#000000" stroke="none">
<path d="M5760 7640 c-63 -4 -162 -10 -220 -14 -1359 -83 -2707 -412 -3478
-847 -531 -300 -836 -620 -928 -974 -23 -91 -25 -113 -21 -240 4 -116 10 -155
32 -225 71 -223 233 -446 458 -629 l79 -64 25 27 c13 15 23 30 21 35 -2 5 -37
36 -78 69 -201 161 -353 366 -426 577 -26 74 -28 92 -29 230 0 171 14 235 87
380 61 120 120 197 248 326 197 197 401 335 745 504 485 238 1040 416 1720
550 211 42 292 56 510 89 330 51 714 91 1115 118 266 18 1374 18 1645 0 1043
-69 1911 -225 2675 -481 1285 -432 1927 -1066 1729 -1708 -219 -708 -1426
-1316 -3170 -1597 -264 -42 -546 -78 -754 -96 -71 -6 -179 -16 -240 -21 -545
-49 -1569 -49 -2130 1 -305 27 -360 32 -515 51 -363 44 -633 88 -1000 164
-172 36 -484 114 -488 123 -27 77 -99 134 -225 177 -73 26 -86 27 -183 22 -90
-6 -115 -12 -177 -40 -40 -19 -95 -54 -123 -78 -28 -25 -67 -56 -88 -69 -36
-22 -42 -22 -90 -10 -28 7 -89 25 -135 41 -71 24 -100 29 -184 29 -120 0 -163
-16 -227 -86 -38 -42 -90 -133 -90 -161 0 -6 -15 -15 -32 -18 -81 -18 -133
-59 -199 -159 -49 -75 -73 -155 -100 -336 -41 -279 -70 -346 -207 -474 -52
-48 -105 -94 -118 -102 -13 -9 -36 -41 -50 -71 -24 -48 -28 -70 -34 -201 -6
-139 -4 -157 27 -332 19 -102 40 -210 48 -240 8 -30 25 -111 39 -180 33 -162
47 -215 91 -330 71 -187 84 -226 98 -300 9 -41 18 -106 21 -145 5 -59 3 -73
-12 -92 -10 -12 -81 -53 -158 -92 -179 -92 -348 -219 -437 -329 -57 -72 -101
-237 -107 -404 0 -5 580 -8 1289 -8 l1288 0 12 57 c15 78 14 171 -4 240 -8 31
-15 72 -15 91 0 18 -7 47 -16 65 -12 21 -17 61 -19 122 -1 62 -7 100 -18 122
-23 43 -21 77 7 165 33 100 79 193 138 280 162 239 209 318 329 548 73 140
159 300 192 355 33 55 84 145 112 200 l52 100 6 125 c4 69 18 190 32 269 16
91 25 182 25 247 0 56 5 124 11 151 19 84 2 123 -84 187 -40 29 -108 75 -152
100 -118 69 -163 109 -222 195 -70 103 -182 211 -218 211 -30 0 -61 -14 -92
-43 -28 -25 -45 -18 -61 28 -13 34 -12 38 9 61 12 13 28 24 35 24 7 0 105 -22
218 -50 625 -152 1202 -238 2001 -297 345 -25 1394 -25 1740 0 793 58 1389
147 2020 302 951 233 1652 559 2064 959 236 230 349 435 380 694 12 94 2 205
-30 321 -162 600 -1015 1141 -2329 1479 -272 70 -752 168 -970 198 -19 3 -78
11 -130 19 -205 30 -251 35 -425 54 -176 19 -366 35 -535 46 -47 3 -157 10
-245 15 -181 11 -1179 11 -1355 0z"/>
<path d="M3323 6209 c-7 -7 -10 -30 -6 -59 l5 -47 -137 -6 c-76 -4 -257 -7
-402 -7 -279 0 -312 -5 -293 -40 23 -43 65 -53 260 -61 102 -4 274 -4 383 -1
109 4 201 5 203 3 9 -9 3 -310 -7 -396 -6 -49 -12 -186 -13 -302 -1 -203 0
-213 20 -233 l21 -21 57 21 c74 28 83 46 62 127 -19 74 -20 180 -4 540 l12
272 50 5 c28 3 92 8 141 11 50 4 135 13 190 20 55 8 188 26 295 40 107 14 239
35 295 46 55 10 144 22 198 26 62 4 101 11 108 19 34 41 -140 44 -466 9 -356
-39 -518 -53 -671 -61 l-141 -7 -9 44 c-6 31 -16 47 -34 56 -31 16 -102 17
-117 2z"/>
<path d="M10121 6173 c-27 -25 -33 -43 -61 -181 -16 -84 -39 -171 -50 -193
-19 -36 -107 -185 -128 -217 -7 -10 -16 -10 -48 1 -103 37 -283 28 -377 -18
-55 -27 -139 -100 -193 -166 -25 -32 -53 -46 -194 -102 -276 -109 -398 -147
-468 -147 -128 0 -175 50 -141 149 10 28 15 31 55 31 96 0 194 53 255 138 47
66 58 112 35 147 -42 65 -176 86 -265 43 -71 -34 -170 -140 -213 -228 -95
-192 -63 -301 104 -351 147 -45 309 -8 596 137 89 45 162 81 162 79 0 -1 -7
-19 -15 -38 -8 -20 -15 -64 -15 -98 0 -56 3 -64 33 -94 45 -45 105 -61 176
-45 72 16 170 69 251 135 77 63 310 300 310 315 0 5 4 10 9 10 4 0 2 -26 -6
-57 -21 -88 -20 -191 1 -236 28 -58 66 -79 152 -85 124 -8 162 15 64 38 -62
15 -87 44 -95 113 -9 71 8 163 56 315 44 138 139 512 139 546 0 12 -9 36 -20
54 -26 42 -67 44 -109 5z m-1441 -615 c0 -33 -35 -85 -69 -102 -32 -17 -111
-32 -111 -22 0 21 62 94 99 118 55 35 81 36 81 6z m1082 -48 c21 -6 40 -15 43
-19 7 -12 -130 -157 -240 -253 -102 -90 -177 -131 -227 -126 -33 3 -33 3 -36
61 -4 74 26 131 117 223 109 110 221 147 343 114z"/>
<path d="M7530 6065 c-12 -14 -11 -31 3 -118 35 -210 49 -408 30 -414 -5 -2
-61 0 -124 5 -63 5 -124 6 -135 1 -12 -4 -27 -22 -33 -40 -10 -28 -9 -36 7
-51 22 -23 111 -38 220 -38 l82 0 0 -154 c0 -148 1 -156 24 -182 22 -26 25
-27 62 -16 22 6 47 17 57 24 25 19 35 74 26 138 -4 30 -8 87 -8 127 l-1 72 48
6 c93 13 219 37 313 61 158 39 360 116 346 131 -3 2 -63 -5 -134 -16 -140 -22
-346 -46 -490 -56 l-93 -7 -1 153 c-1 85 -4 199 -8 254 -6 95 -7 100 -32 112
-15 7 -53 16 -86 19 -48 5 -61 3 -73 -11z"/>
<path d="M5010 5726 c-133 -47 -264 -129 -413 -257 -38 -33 -72 -57 -77 -54
-5 3 -24 33 -42 67 -38 71 -120 166 -157 179 -33 13 -79 -7 -87 -37 -4 -16 3
-36 24 -66 57 -83 109 -174 121 -211 16 -46 3 -109 -40 -206 -16 -35 -26 -67
-23 -72 14 -23 166 8 201 41 11 9 48 66 83 126 78 133 198 259 307 323 206
121 306 120 373 -3 30 -57 47 -68 52 -34 2 13 18 -33 36 -102 57 -223 79 -283
111 -314 41 -40 103 -46 162 -16 56 29 180 154 246 248 l50 72 8 -112 c8 -128
19 -163 64 -201 67 -56 147 -53 209 9 19 19 32 37 29 40 -3 4 -27 -2 -52 -12
l-46 -17 -26 26 c-24 24 -27 36 -35 149 -5 68 -7 155 -3 194 12 147 -12 188
-106 187 -64 -1 -79 -14 -79 -70 0 -24 -6 -58 -14 -76 -29 -67 -254 -317 -286
-317 -22 0 -32 40 -61 245 -24 171 -25 174 -56 186 -37 14 -120 11 -135 -5
-11 -11 -16 -7 -34 28 -43 86 -166 112 -304 62z"/>
<path d="M6688 5661 c-169 -37 -358 -173 -358 -258 0 -39 46 -81 103 -94 82
-18 319 -7 459 21 65 13 120 21 123 18 13 -13 -24 -53 -118 -129 -112 -90
-146 -111 -202 -118 -39 -6 -40 -7 -40 -46 l0 -40 60 1 c70 1 108 18 238 107
160 109 252 242 211 305 -16 25 -17 25 -133 19 -64 -3 -165 -15 -226 -28 -133
-26 -271 -31 -285 -10 -14 23 15 67 63 95 54 32 132 52 281 71 157 21 206 47
159 86 -27 23 -230 23 -335 0z"/>
</g>
</svg>
