<?xml version="1.0" standalone="no"?>
<!DOCTYPE svg PUBLIC "-//W3C//DTD SVG 20010904//EN"
 "http://www.w3.org/TR/2001/REC-SVG-20010904/DTD/svg10.dtd">
<svg version="1.0" xmlns="http://www.w3.org/2000/svg"
 width="1280.000000pt" height="640.000000pt" viewBox="0 0 1280.000000 640.000000"
 preserveAspectRatio="xMidYMid meet">
<metadata>
Created by potrace 1.15, written by Peter Selinger 2001-2017
</metadata>
<g transform="translate(0.000000,640.000000) scale(0.100000,-0.100000)"
fill="#000000" stroke="none">
<path d="M8370 3763 c-106 -20 -237 -60 -299 -90 -134 -64 -243 -201 -287
-363 -25 -90 -26 -319 -1 -409 27 -98 74 -184 140 -257 53 -57 76 -73 181
-124 163 -79 211 -91 391 -97 117 -4 169 -2 230 11 211 44 375 186 441 383 12
35 23 66 25 68 2 2 4 -87 4 -197 l0 -201 80 -23 c73 -22 99 -24 308 -24 l227
0 1 143 c1 78 1 145 0 150 0 4 2 7 6 7 5 0 37 -56 73 -125 36 -69 72 -127 80
-130 8 -2 56 -13 107 -25 85 -18 127 -20 602 -20 l511 0 1 133 0 132 54 -107
c31 -61 62 -109 72 -112 10 -2 79 -14 153 -26 117 -18 172 -20 408 -18 l273 3
-49 80 c-251 410 -433 717 -430 724 2 5 109 119 238 252 l234 244 -279 3
c-164 2 -347 -2 -440 -9 l-160 -12 -37 -40 -38 -40 0 51 0 52 -247 -1 c-137 0
-293 -6 -348 -12 l-100 -12 -3 -53 -3 -54 -44 41 c-29 26 -66 47 -112 62 -66
23 -81 23 -503 27 -311 3 -463 0 -532 -9 l-98 -12 0 -221 -1 -221 -27 80 c-34
99 -82 174 -153 241 -68 64 -123 96 -224 130 -72 25 -96 28 -240 30 -88 1
-171 0 -185 -3z m1505 -358 c44 -43 23 -133 -35 -148 -19 -5 -20 -1 -20 84 0
99 10 110 55 64z m-1340 -30 c48 -36 73 -90 86 -181 18 -129 -8 -275 -58 -335
-31 -37 -95 -68 -139 -69 -38 0 -74 36 -106 105 -21 45 -23 65 -23 190 0 173
14 223 82 285 41 38 49 42 84 37 22 -3 55 -17 74 -32z m1953 -471 l-3 -76 -42
60 c-24 34 -60 75 -82 93 l-38 33 56 33 c31 19 67 45 81 59 l25 25 3 -76 c2
-41 2 -109 0 -151z"/>
<path d="M440 3570 l0 -180 103 0 c56 0 146 -3 200 -7 l97 -6 0 -469 0 -468
238 0 c200 1 258 4 372 24 l135 23 3 446 2 447 104 0 103 0 6 -247 c4 -137 7
-348 7 -470 l0 -223 803 0 802 0 80 24 80 23 26 79 26 79 120 3 119 3 33 -106
32 -105 234 0 c141 0 245 4 262 11 19 7 29 7 31 0 2 -7 67 -11 188 -11 168 0
187 2 229 22 l45 22 2 179 3 179 51 -198 51 -199 169 -2 c166 -3 170 -2 196
21 23 21 36 59 97 293 l70 268 0 -292 1 -293 184 0 184 0 16 25 c14 22 16 90
16 643 0 467 -3 621 -12 630 -9 9 -88 12 -295 12 l-282 0 -10 -37 c-6 -21 -37
-140 -68 -265 -32 -126 -60 -228 -63 -228 -3 0 -34 113 -69 251 l-64 250 -35
15 c-27 11 -94 14 -324 14 l-290 0 7 -547 c5 -355 4 -544 -2 -538 -6 6 -53
125 -106 265 -177 472 -288 763 -297 780 -15 29 -123 40 -376 40 l-240 0 -175
-472 -176 -473 -291 -3 -292 -2 0 83 0 84 238 7 c130 4 258 9 285 12 l47 6 0
144 0 144 -287 2 -288 3 -3 68 -2 67 310 0 311 0 -3 152 -3 153 -80 12 c-58 8
-429 12 -1332 12 l-1253 1 0 -180z m3320 -567 c0 -7 -7 -13 -16 -13 -11 0 -14
5 -10 16 3 9 6 21 6 27 0 16 20 -14 20 -30z"/>
<path d="M6011 3668 c10 -46 76 -341 146 -655 l127 -573 213 0 c117 0 213 2
213 5 0 11 181 689 185 693 2 2 8 -13 14 -34 5 -22 44 -169 86 -329 55 -209
82 -296 97 -312 21 -23 26 -23 233 -23 l211 0 145 655 145 655 -214 0 c-164 0
-219 -3 -240 -14 -27 -14 -29 -23 -71 -243 -24 -125 -44 -229 -46 -231 -4 -4
-16 38 -86 291 l-54 197 -208 0 c-206 0 -208 0 -216 -22 -5 -13 -42 -143 -82
-290 -41 -148 -76 -268 -79 -268 -3 0 -29 131 -59 290 l-55 290 -212 0 -212 0
19 -82z"/>
</g>
</svg>
