<?xml version="1.0" standalone="no"?>
<!DOCTYPE svg PUBLIC "-//W3C//DTD SVG 20010904//EN"
 "http://www.w3.org/TR/2001/REC-SVG-20010904/DTD/svg10.dtd">
<svg version="1.0" xmlns="http://www.w3.org/2000/svg"
 width="1280.000000pt" height="989.000000pt" viewBox="0 0 1280.000000 989.000000"
 preserveAspectRatio="xMidYMid meet">
<metadata>
Created by potrace 1.15, written by Peter Selinger 2001-2017
</metadata>
<g transform="translate(0.000000,989.000000) scale(0.100000,-0.100000)"
fill="#000000" stroke="none">
<path d="M1115 9863 c-55 -55 -63 -90 -74 -333 -16 -333 -19 -375 -36 -495 -8
-60 -20 -213 -25 -340 -6 -126 -14 -282 -20 -345 -5 -63 -12 -212 -15 -330 -8
-284 -6 -272 -57 -290 l-43 -16 -2 194 c-1 107 -7 247 -14 311 -7 64 -12 125
-11 136 0 11 3 146 5 300 2 154 7 291 11 305 3 14 13 81 21 150 9 69 20 157
26 195 14 93 -1 164 -41 199 -40 33 -94 49 -147 43 -85 -9 -157 -110 -201
-282 -71 -272 -134 -1047 -132 -1615 l1 -245 -27 -7 c-16 -4 -29 -6 -30 -5 -1
1 -19 74 -39 161 -20 88 -62 246 -92 350 -56 192 -80 296 -109 460 -14 81 -45
191 -59 204 -3 3 -5 -674 -5 -1505 0 -1461 1 -1514 20 -1604 39 -189 98 -396
158 -559 31 -85 31 -87 86 -780 101 -1269 140 -1864 154 -2392 l7 -233 908 -3
c499 -1 907 1 907 5 0 5 -22 123 -49 263 -141 725 -156 825 -201 1295 -52 548
-89 901 -121 1155 -35 280 -35 393 0 473 13 30 64 94 139 175 254 273 563 639
729 862 106 143 223 263 408 418 204 172 225 194 327 325 121 157 168 208 228
249 62 42 99 78 116 111 20 37 6 80 -46 146 -44 56 -135 106 -211 116 -123 17
-302 -55 -489 -197 -103 -79 -147 -109 -255 -178 -48 -30 -117 -80 -154 -111
-95 -80 -123 -93 -205 -94 -67 0 -69 1 -102 39 -38 44 -135 265 -204 466 l-46
135 6 190 c5 147 12 219 32 315 15 69 38 208 52 310 15 102 30 214 36 250 5
36 16 97 24 135 20 94 43 223 66 384 11 73 31 181 44 240 69 305 56 484 -41
585 -39 40 -103 75 -138 76 -37 0 -93 -49 -134 -118 -47 -79 -120 -292 -154
-447 -13 -60 -69 -285 -125 -500 -55 -214 -123 -477 -150 -583 -28 -105 -57
-203 -66 -217 -13 -20 -25 -25 -59 -25 l-42 0 2 732 c1 408 7 788 13 856 13
155 13 264 0 333 -14 75 -65 174 -104 204 -30 23 -42 25 -128 25 -91 0 -97 -1
-123 -27z"/>
<path d="M10689 9838 c-2 -133 3 -251 16 -343 8 -55 17 -147 20 -205 8 -128
29 -314 54 -475 11 -66 24 -178 31 -250 6 -71 26 -221 44 -333 25 -158 30
-207 21 -219 -15 -21 -42 -11 -54 19 -9 23 -102 592 -121 738 -6 41 -19 172
-30 292 -25 276 -36 351 -66 466 -39 149 -105 257 -171 276 -37 12 -96 -11
-135 -51 -45 -47 -62 -81 -90 -180 -21 -72 -23 -96 -21 -313 1 -248 15 -437
64 -912 56 -540 48 -898 -19 -898 -4 0 -13 29 -19 64 -26 132 -131 365 -215
473 -58 76 -158 166 -212 193 -77 37 -127 18 -161 -63 -26 -62 -19 -129 19
-210 61 -128 104 -352 94 -495 -7 -102 6 -169 76 -398 67 -220 108 -387 125
-518 47 -340 403 -887 957 -1467 92 -97 107 -118 162 -230 196 -402 389 -1159
452 -1774 29 -291 81 -1216 103 -1850 l2 -70 593 -3 592 -2 0 1871 0 1872 -56
146 c-84 216 -131 362 -145 446 -12 70 -11 85 14 213 15 75 32 171 38 212 17
119 23 658 10 843 -29 399 -94 786 -166 986 -20 56 -25 86 -24 164 0 71 -6
124 -24 199 -21 85 -26 137 -31 293 -3 126 -10 212 -21 255 -9 36 -25 114 -36
173 -50 275 -137 435 -225 413 -13 -4 -42 -23 -64 -42 -62 -56 -75 -113 -66
-294 17 -343 13 -586 -11 -760 -12 -91 -23 -184 -23 -207 0 -50 -10 -54 -39
-17 -19 24 -21 40 -21 164 0 171 -16 421 -36 565 -20 142 -76 398 -120 545
-19 63 -46 160 -60 215 -87 351 -185 484 -341 460 -56 -8 -100 -46 -114 -98
-18 -65 -4 -222 35 -417 20 -96 36 -197 36 -223 0 -26 11 -148 24 -270 14
-122 29 -276 35 -342 6 -66 20 -173 31 -238 23 -138 25 -190 7 -205 -33 -28
-57 27 -57 130 0 100 -20 241 -55 403 -15 66 -31 154 -36 195 -32 246 -53 369
-79 470 -16 63 -34 133 -40 155 -5 22 -16 114 -24 205 -8 91 -23 197 -33 235
l-18 70 -187 3 -188 2 -1 -52z"/>
<path d="M5022 8462 c-121 -81 -184 -278 -167 -516 11 -140 11 -219 1 -601
-10 -349 -9 -353 69 -878 25 -163 45 -308 45 -321 0 -51 -88 -81 -134 -45 -29
23 -36 44 -71 202 -30 135 -92 321 -135 408 -27 52 -144 375 -206 566 -13 40
-31 134 -39 210 -55 476 -113 577 -331 577 -119 0 -184 -73 -212 -237 -13 -79
-14 -111 -3 -227 6 -74 25 -202 41 -285 16 -82 39 -206 50 -275 30 -181 56
-302 89 -410 16 -52 48 -167 71 -255 54 -208 113 -400 155 -500 29 -71 34 -94
39 -205 7 -125 29 -310 41 -343 4 -9 2 -38 -4 -64 -6 -27 -16 -86 -21 -133 -5
-47 -21 -123 -35 -169 -14 -46 -34 -132 -44 -192 -21 -122 -55 -195 -97 -205
-33 -8 -67 15 -235 162 -182 160 -258 221 -359 289 -254 169 -542 236 -710
164 -89 -38 -156 -135 -167 -243 -5 -51 -4 -55 32 -95 54 -60 192 -149 373
-241 86 -44 182 -99 213 -122 77 -59 447 -424 538 -531 128 -152 324 -319 544
-464 138 -92 359 -209 447 -238 146 -48 245 -119 282 -202 35 -78 280 -919
714 -2450 l168 -593 1153 0 1152 0 -119 245 -119 245 857 2 857 3 3 155 c7
343 -45 1827 -87 2464 l-8 120 72 150 c127 265 187 440 230 672 30 161 49 417
40 539 -5 80 -2 110 34 283 22 107 43 228 47 270 4 51 18 105 40 160 46 117
58 176 51 273 -7 112 -22 156 -67 201 -44 44 -84 50 -135 18 -55 -34 -113
-139 -134 -245 -13 -60 -56 -200 -91 -290 -16 -44 -44 -127 -60 -184 -17 -58
-32 -106 -34 -108 -2 -2 -24 8 -49 23 l-44 27 -6 266 c-11 552 -94 975 -215
1104 -85 91 -192 70 -222 -43 -13 -47 -6 -190 12 -270 6 -25 11 -203 13 -400
1 -195 5 -372 9 -392 l8 -37 -26 12 c-25 12 -26 15 -26 107 -1 52 -5 156 -11
230 -5 74 -11 191 -13 260 -2 69 -13 197 -25 285 -11 88 -27 234 -36 325 -19
195 -34 233 -110 270 -101 49 -218 -23 -260 -160 -15 -51 -17 -77 -10 -187 4
-70 8 -153 8 -183 2 -257 18 -880 23 -897 6 -21 3 -23 -35 -23 -51 0 -57 9
-109 155 -22 61 -80 210 -131 333 -52 126 -105 274 -122 340 -68 266 -166 424
-253 407 -51 -9 -114 -53 -140 -98 -49 -83 -51 -232 -5 -410 11 -45 32 -147
45 -227 14 -80 35 -194 49 -255 13 -60 28 -134 34 -163 6 -29 29 -101 50 -160
27 -74 41 -130 45 -183 5 -72 3 -84 -43 -220 -65 -194 -118 -322 -143 -349
-28 -30 -79 -50 -126 -50 -29 0 -56 12 -112 49 -41 27 -122 73 -180 102 -58
29 -123 65 -145 79 -112 76 -287 145 -395 156 -145 14 -250 -56 -250 -168 0
-48 39 -98 112 -146 37 -25 90 -74 131 -122 37 -44 84 -90 105 -103 65 -42
303 -231 402 -319 52 -47 124 -122 160 -167 70 -88 193 -202 496 -459 129
-109 198 -175 210 -200 16 -31 19 -59 18 -162 -2 -132 -1 -127 -129 -845 -36
-203 -82 -467 -101 -585 -31 -196 -152 -819 -160 -829 -2 -2 -6 -2 -9 1 -4 3
-98 199 -211 434 -630 1313 -1028 2214 -1120 2534 -26 91 -27 102 -21 245 4
83 32 447 62 810 31 363 58 732 61 820 6 153 8 166 50 304 25 79 58 199 75
265 16 67 61 216 98 331 151 461 194 630 195 771 1 84 -1 94 -29 139 -60 97
-157 136 -222 89 -79 -57 -166 -261 -214 -499 -16 -82 -38 -146 -84 -250 -34
-77 -79 -185 -99 -240 -20 -55 -70 -170 -112 -255 l-75 -155 -48 -3 c-26 -2
-60 2 -76 8 l-28 11 7 72 c54 580 68 827 56 1038 -13 256 -14 385 -2 522 26
286 -32 518 -141 570 -86 41 -208 9 -252 -66 -38 -67 -44 -114 -49 -440 -3
-169 -7 -311 -10 -315 -6 -11 -33 -271 -41 -397 -3 -55 -15 -190 -25 -300 -11
-110 -24 -270 -31 -355 -6 -85 -15 -161 -21 -167 -14 -17 -83 -16 -117 1 l-28
15 -6 193 c-8 222 -19 345 -49 543 -12 77 -22 160 -21 185 1 88 -18 435 -28
509 -6 42 -10 175 -9 296 2 313 -20 411 -110 488 -67 57 -170 65 -238 19z"/>
</g>
</svg>
