<?xml version="1.0" standalone="no"?>
<!DOCTYPE svg PUBLIC "-//W3C//DTD SVG 20010904//EN"
 "http://www.w3.org/TR/2001/REC-SVG-20010904/DTD/svg10.dtd">
<svg version="1.0" xmlns="http://www.w3.org/2000/svg"
 width="1280.000000pt" height="962.000000pt" viewBox="0 0 1280.000000 962.000000"
 preserveAspectRatio="xMidYMid meet">
<metadata>
Created by potrace 1.15, written by Peter Selinger 2001-2017
</metadata>
<g transform="translate(0.000000,962.000000) scale(0.100000,-0.100000)"
fill="#000000" stroke="none">
<path d="M9775 9609 c-4 -5 4 -27 17 -47 29 -43 48 -95 48 -129 l0 -24 -33 25
c-57 43 -84 49 -141 29 -69 -23 -74 -29 -47 -54 59 -55 45 -126 -31 -165 -24
-12 -35 -12 -90 5 -133 41 -210 53 -261 41 -95 -21 -163 -71 -214 -158 -19
-31 -24 -52 -20 -76 8 -50 -3 -60 -59 -53 -67 7 -108 -12 -133 -61 -16 -32
-28 -41 -63 -50 -48 -12 -110 -68 -127 -115 -18 -47 -13 -133 9 -178 11 -21
43 -62 70 -89 44 -44 48 -52 43 -84 -6 -38 -5 -39 103 -132 88 -76 144 -197
144 -311 0 -48 -3 -49 -53 -28 -55 23 -128 19 -167 -7 -74 -50 -99 -173 -60
-288 43 -127 103 -168 229 -156 38 3 76 9 84 12 12 4 17 -4 21 -38 6 -41 84
-1069 88 -1154 1 -33 -5 -49 -31 -81 -38 -48 -61 -117 -61 -188 0 -60 -13 -75
-76 -93 -23 -7 -54 -22 -69 -34 -42 -33 -82 -132 -111 -275 -14 -70 -68 -290
-120 -488 -52 -198 -98 -382 -101 -408 -6 -45 -7 -48 -32 -43 -14 3 -75 13
-136 22 -84 13 -138 28 -230 66 -66 27 -133 55 -150 61 -98 35 -120 46 -155
80 -22 20 -45 37 -52 37 -8 0 -14 15 -16 36 -1 20 -9 51 -18 70 -25 52 -154
174 -249 234 -126 80 -168 113 -182 140 -8 15 -13 67 -13 132 0 59 -5 131 -11
160 -15 67 -47 138 -64 138 -19 0 -65 -57 -86 -108 -10 -24 -24 -72 -31 -107
l-11 -65 -53 6 c-48 6 -53 5 -69 -20 -14 -22 -17 -40 -12 -96 3 -39 3 -70 0
-70 -3 0 -57 23 -120 51 -181 80 -216 78 -226 -13 -13 -116 57 -255 223 -443
70 -80 93 -94 149 -97 l41 -1 0 -74 c0 -100 15 -126 85 -152 31 -12 64 -21 74
-21 33 0 71 39 82 86 10 40 13 43 25 27 7 -10 14 -28 14 -40 0 -30 71 -88 137
-113 92 -34 156 -24 241 36 26 20 28 8 7 -43 -8 -19 -15 -42 -15 -50 0 -21 46
-60 125 -105 39 -22 99 -58 135 -79 86 -51 231 -88 535 -139 132 -22 250 -40
262 -40 12 0 34 10 48 23 24 20 29 40 65 252 37 222 67 375 74 382 17 18 32
-68 63 -358 l36 -332 -36 -171 c-20 -94 -51 -253 -68 -354 -28 -156 -35 -182
-50 -182 -10 0 -20 -4 -24 -10 -11 -18 102 -70 285 -131 102 -33 190 -66 197
-72 14 -13 25 -86 48 -307 26 -254 34 -379 41 -640 5 -189 10 -261 20 -277 11
-17 12 -39 5 -100 -5 -43 -12 -159 -16 -257 -7 -200 -16 -262 -46 -321 -11
-22 -74 -92 -140 -155 -96 -93 -119 -121 -119 -143 0 -17 27 -75 66 -140 l66
-112 -49 -44 c-202 -185 -568 -401 -677 -401 -24 0 -46 -9 -68 -29 -18 -15
-47 -35 -64 -44 -34 -17 -47 -38 -38 -61 21 -54 354 -109 536 -87 208 24 407
90 513 170 27 21 63 45 80 53 29 15 31 15 63 -13 29 -26 40 -29 103 -29 57 0
84 -6 142 -31 91 -40 156 -38 221 8 l42 30 60 -30 c249 -127 472 -180 759
-181 173 -1 217 9 223 50 4 31 -41 79 -119 125 -113 65 -193 132 -406 336
l-202 194 25 46 c18 34 24 62 24 106 0 53 -10 83 -80 248 -45 103 -87 218 -95
256 -23 105 -38 389 -31 573 12 301 30 433 106 790 22 102 51 250 65 330 14
80 28 154 30 166 4 19 10 21 54 16 69 -6 223 32 263 66 l31 26 -6 91 c-3 49
-14 185 -24 300 -13 155 -18 311 -18 595 0 371 1 389 24 488 13 56 28 102 32
102 10 0 38 -42 82 -123 48 -88 102 -160 185 -249 89 -95 333 -308 353 -308
54 0 478 514 685 830 109 168 126 203 119 244 -5 26 1 47 31 102 20 38 48 81
62 96 l24 26 40 -20 c48 -25 122 -27 166 -4 42 22 101 91 130 154 20 45 26 77
32 176 6 115 8 125 45 196 37 70 40 81 40 160 0 47 -6 102 -14 123 -18 53 -65
103 -109 118 -20 6 -53 26 -73 44 -44 40 -92 57 -149 53 l-43 -3 -3 80 c-7
215 -27 326 -85 475 -56 146 -140 200 -206 134 l-26 -26 7 -192 c14 -419 19
-684 12 -718 -6 -33 -10 -37 -46 -43 -66 -11 -78 -28 -94 -135 -8 -52 -24
-152 -36 -221 -11 -70 -20 -147 -20 -170 0 -50 30 -122 55 -136 14 -8 4 -24
-70 -103 -88 -97 -167 -208 -344 -488 -57 -89 -108 -165 -113 -168 -13 -9
-107 85 -172 171 -84 111 -139 214 -265 496 l-117 264 -50 27 c-92 51 -108 83
-144 302 -6 38 -18 82 -26 98 -13 26 -13 35 5 96 129 435 155 815 75 1107 -30
108 -32 99 32 119 199 63 435 239 606 451 139 174 153 278 43 321 -52 20 -177
16 -415 -13 -164 -20 -449 -23 -501 -5 -38 13 -46 24 -80 112 -40 105 -104
216 -195 337 l-91 121 33 69 c46 92 62 191 46 281 -13 81 -46 162 -64 162 -7
0 -24 -16 -37 -36 l-24 -35 -31 57 c-46 85 -105 146 -162 167 -55 19 -119 23
-129 6z m385 -284 c0 -8 -4 -15 -9 -15 -13 0 -22 16 -14 24 11 11 23 6 23 -9z
m24 -545 c23 -30 51 -68 61 -85 15 -26 14 -26 -11 5 -15 19 -58 67 -95 105
-37 39 -70 81 -73 95 -6 21 0 17 34 -20 22 -25 60 -70 84 -100z m-660 -1444
c102 -102 336 -195 531 -211 51 -4 127 -1 209 9 72 9 132 13 135 10 3 -3 6
-46 6 -96 0 -84 -2 -91 -26 -112 -46 -40 -172 -61 -359 -61 l-165 0 -110 39
c-60 22 -115 43 -121 48 -11 8 -57 144 -83 243 -6 22 -26 66 -46 99 -32 53
-43 86 -30 86 3 0 30 -24 59 -54z m-80 -16 c7 -24 6 -24 -8 -6 -9 11 -16 27
-16 35 0 21 16 2 24 -29z m564 -585 c43 -18 84 -54 76 -66 -12 -20 -274 1
-274 21 0 11 48 41 79 50 42 13 79 11 119 -5z m286 -132 c4 -9 0 -23 -9 -32
-24 -24 -206 -22 -310 4 l-80 20 144 7 c79 4 146 10 149 13 3 3 27 5 53 5 35
0 49 -4 53 -17z m2246 -16 c0 -1 -24 -2 -54 -2 -53 0 -63 9 -21 17 16 3 75 -9
75 -15z m-2895 -467 c3 -6 -1 -7 -9 -4 -18 7 -21 14 -7 14 6 0 13 -4 16 -10z
m3004 -180 c-1 -19 -5 -48 -9 -65 -6 -22 -8 -8 -9 50 0 55 2 75 9 65 5 -8 9
-31 9 -50z m-5381 -172 c13 -13 18 -278 6 -278 -6 0 -68 47 -107 80 -10 9 21
179 36 198 12 15 49 16 65 0z m3068 -131 c28 -32 44 -86 44 -145 l0 -43 -24
28 c-24 27 -27 28 -119 27 l-94 -2 -6 58 c-4 31 -9 64 -13 73 -8 23 45 37 125
34 55 -3 67 -7 87 -30z m1669 -87 c3 -5 0 -10 -9 -10 -8 0 -23 -3 -33 -7 -16
-6 -16 -5 -4 10 15 19 37 22 46 7z m135 -167 c0 -7 -4 -13 -10 -13 -5 0 -10 3
-10 8 0 4 -3 18 -6 32 -6 24 -6 25 9 5 9 -11 17 -26 17 -32z m-5037 -81 c15
-16 15 -23 3 -63 -8 -24 -15 -35 -15 -24 -1 11 -10 39 -21 63 -18 40 -18 42
-1 42 10 0 25 -8 34 -18z m3219 -162 c24 -178 23 -194 -17 -280 l-35 -75 0
243 c0 227 1 243 18 240 14 -3 20 -25 34 -128z m-3105 53 l65 -57 -8 -51 c-5
-27 -7 -87 -6 -132 1 -56 -2 -83 -10 -83 -6 0 -42 9 -80 21 l-70 20 6 42 c3
23 8 83 11 132 7 106 15 165 22 165 3 0 34 -26 70 -57z m2920 -340 c-2 -16 -4
-5 -4 22 0 28 2 40 4 28 2 -13 2 -35 0 -50z m-2230 1 c3 -12 -25 -49 -32 -42
-10 10 7 59 18 55 6 -2 12 -7 14 -13z m-714 -12 c57 -38 73 -83 36 -102 -50
-27 -119 23 -119 86 0 30 3 34 28 34 15 0 39 -8 55 -18z m640 -157 c-5 -22
-33 -57 -33 -41 0 9 29 66 34 66 2 0 1 -11 -1 -25z m767 -38 c0 -5 -8 -7 -17
-5 -12 2 -19 14 -21 33 l-3 30 20 -25 c12 -14 21 -29 21 -33z m1688 -1002 c75
-70 132 -146 132 -178 0 -11 -22 -115 -50 -231 -94 -401 -159 -701 -175 -811
-23 -156 -35 -454 -25 -646 5 -90 6 -166 4 -168 -2 -2 -4 0 -4 5 0 6 -11 72
-25 148 -26 146 -26 149 0 521 16 220 63 603 106 857 18 110 18 119 3 160 -23
59 -42 78 -76 78 -16 0 -41 -8 -55 -17 -15 -10 -24 -13 -20 -6 5 7 -2 19 -18
29 -24 15 -28 15 -69 0 -24 -9 -60 -31 -81 -49 -44 -38 -54 -77 -55 -212 0
-49 -5 -142 -10 -205 -6 -63 -13 -457 -15 -875 -4 -732 -10 -899 -35 -1012
-11 -48 -13 -51 -33 -43 -12 6 -76 19 -141 30 -66 11 -121 21 -122 23 -2 1 10
29 27 62 57 113 109 323 128 515 30 307 31 329 21 590 -12 321 -24 513 -51
813 l-20 228 22 48 c19 43 42 65 190 178 137 104 340 232 370 233 4 0 38 -29
77 -65z m42 -2562 c0 -33 -25 -3 -41 49 -30 103 -29 113 6 39 19 -40 35 -80
35 -88z m-500 -258 c0 -18 -5 -25 -20 -25 -24 0 -25 4 -3 30 22 25 23 25 23
-5z"/>
<path d="M3130 9591 c0 -11 5 -23 11 -27 20 -12 49 -88 49 -127 l0 -39 -32 27
c-53 44 -76 49 -140 28 -32 -10 -58 -22 -58 -27 0 -4 11 -21 25 -38 45 -53 24
-117 -50 -152 -30 -15 -38 -15 -62 -3 -16 8 -44 18 -63 21 -19 4 -65 14 -103
23 -124 29 -240 -16 -310 -120 -49 -72 -53 -102 -22 -152 l24 -40 1 44 c0 60
32 123 78 154 46 31 122 57 168 57 49 0 170 -19 229 -36 79 -23 149 -2 200 58
26 30 27 37 22 100 -3 40 -2 68 4 68 5 0 22 -19 39 -42 62 -90 57 -86 79 -60
30 34 35 98 16 176 -9 37 -14 70 -11 73 11 11 66 -20 96 -54 35 -40 61 -88 84
-160 l18 -53 36 25 c20 14 40 25 44 25 3 0 12 -25 18 -55 14 -66 -4 -151 -48
-227 l-28 -48 -34 25 c-18 14 -48 27 -66 31 -72 13 -68 2 42 -116 122 -131
205 -239 257 -333 37 -65 97 -206 97 -226 0 -14 -55 -14 -81 -1 -12 7 -19 21
-19 39 0 55 -43 63 -111 22 l-30 -18 35 -31 c43 -37 186 -85 318 -107 108 -17
369 -20 485 -5 43 6 122 18 176 26 124 21 224 16 244 -12 18 -25 10 -57 -31
-119 -192 -291 -629 -558 -916 -560 -75 0 -93 4 -152 32 -48 22 -75 43 -98 74
l-30 42 36 30 c34 28 35 31 18 44 -25 19 -47 16 -79 -9 -24 -19 -26 -26 -21
-60 20 -124 111 -198 274 -221 l87 -12 6 -65 c4 -36 9 -97 13 -136 l6 -71 -58
-26 c-104 -47 -176 -61 -317 -61 -239 -1 -438 66 -619 209 -19 15 -19 16 10
46 28 30 28 31 10 45 -65 47 -206 -49 -206 -140 l0 -25 46 19 45 20 15 -35 c8
-19 25 -77 39 -127 79 -292 175 -519 254 -597 61 -62 116 -87 255 -116 140
-30 213 -31 286 -4 98 36 90 37 76 -18 -7 -26 -23 -72 -36 -101 -24 -56 -19
-77 16 -70 14 2 28 29 51 98 41 120 42 154 3 212 -23 34 -33 66 -42 127 -13
92 -10 97 53 129 55 27 69 69 69 200 l0 113 31 17 c18 9 43 26 57 38 l25 21
-13 94 c-6 52 -10 121 -9 154 4 53 7 61 32 75 26 14 29 14 41 -2 18 -24 56
-232 65 -358 8 -108 0 -285 -19 -394 -40 -228 -78 -373 -120 -456 -30 -59
-383 -595 -399 -604 -18 -12 -37 6 -105 100 -37 52 -79 102 -91 110 -13 8 -94
44 -181 80 -86 35 -182 79 -213 96 -31 18 -121 60 -201 93 l-145 61 -17 179
c-38 402 -62 633 -114 1104 -49 445 -53 497 -39 517 11 18 13 42 8 116 -7 109
4 170 48 270 22 50 29 78 24 97 -4 14 -6 55 -5 89 1 54 -3 70 -25 104 -15 22
-29 56 -32 75 -3 19 -12 37 -20 40 -16 6 -73 -16 -73 -28 0 -4 28 -40 61 -79
57 -65 61 -73 50 -96 -14 -32 -14 -76 0 -107 9 -19 7 -32 -9 -64 -24 -46 -52
-149 -52 -190 0 -16 -6 -37 -13 -47 -12 -16 -15 -13 -37 33 -27 59 -44 76
-108 111 -47 25 -47 26 -44 72 4 45 2 48 -36 73 -67 44 -91 127 -57 200 19 39
45 54 110 63 47 7 50 9 53 39 3 27 9 34 47 49 24 9 51 14 60 11 12 -5 15 1 15
27 l0 33 -67 6 c-81 8 -110 -4 -138 -56 -16 -29 -30 -40 -68 -53 -114 -38
-169 -168 -118 -280 11 -23 42 -65 70 -93 46 -46 51 -56 51 -95 0 -39 4 -47
38 -72 138 -105 190 -197 206 -363 5 -51 4 -53 -17 -47 -105 30 -128 34 -162
26 -63 -14 -98 -59 -115 -149 -18 -95 28 -237 91 -284 33 -24 135 -33 199 -18
25 5 48 7 51 3 4 -4 27 -282 53 -619 l46 -612 -24 -26 c-50 -54 -79 -156 -68
-238 6 -44 -6 -57 -51 -57 -37 0 -100 -33 -126 -66 -30 -38 -58 -120 -82 -241
-11 -59 -31 -148 -44 -198 -144 -546 -175 -674 -175 -711 0 -26 8 -57 21 -78
17 -30 18 -36 6 -36 -24 0 -48 30 -42 51 7 21 13 20 -168 48 -70 11 -144 29
-165 39 -20 11 -89 38 -152 62 -63 23 -141 56 -173 72 -47 24 -56 26 -49 11
18 -32 45 -50 177 -116 148 -74 249 -112 321 -122 104 -13 116 -17 154 -51 25
-22 45 -53 55 -84 10 -29 24 -51 34 -55 21 -6 72 11 82 27 12 19 -3 132 -22
170 -28 54 -24 93 27 282 85 315 141 550 169 701 15 83 30 153 34 157 8 10
161 41 167 35 3 -3 11 -95 19 -205 8 -110 17 -212 20 -225 8 -29 15 -33 81
-42 65 -10 114 -33 114 -55 0 -9 -13 -63 -30 -118 -47 -160 -50 -151 90 -291
66 -66 177 -166 248 -223 70 -56 153 -126 186 -155 65 -60 99 -67 104 -23 4
31 -56 84 -203 182 -107 71 -405 339 -405 365 0 8 20 79 45 156 50 158 59 209
48 250 l-8 27 -25 -40 c-14 -22 -30 -40 -37 -40 -17 0 -156 30 -161 34 -9 10
-39 482 -31 491 11 12 -3 29 191 -230 91 -121 216 -281 278 -355 61 -74 137
-175 168 -223 32 -49 104 -159 161 -245 57 -86 122 -185 144 -221 53 -88 149
-281 177 -358 l22 -62 -31 -218 c-17 -120 -37 -229 -43 -241 -7 -13 -35 -35
-63 -49 -109 -55 -225 -142 -355 -269 -177 -172 -150 -166 -475 -94 -241 54
-305 71 -305 81 0 5 27 122 59 261 98 419 95 398 88 532 -11 219 -57 616 -93
789 -19 92 -34 177 -34 190 0 12 -5 29 -10 37 -8 13 -12 13 -27 -3 -15 -15
-18 -36 -19 -135 0 -106 -5 -136 -52 -323 -28 -114 -63 -274 -78 -355 -15 -82
-30 -152 -33 -156 -9 -10 -381 45 -530 78 -176 39 -401 126 -401 155 0 5 9 28
20 49 29 56 48 184 30 204 -7 9 -18 16 -26 16 -7 0 -20 10 -28 22 -18 25 -17
25 -41 -22 l-18 -35 -10 25 c-53 132 -95 187 -171 221 -40 18 -136 26 -136 11
0 -4 33 -20 74 -36 81 -30 116 -61 140 -118 28 -67 14 -128 -38 -162 -45 -29
-85 -20 -168 35 -81 53 -111 58 -123 18 -9 -27 29 -67 98 -105 44 -25 63 -29
128 -29 66 0 80 3 110 26 62 46 60 47 53 -29 l-7 -69 49 -28 c27 -16 95 -59
151 -96 131 -86 224 -113 593 -173 247 -40 256 -41 284 -23 31 21 40 51 66
222 27 176 69 395 80 414 6 11 11 9 23 -10 10 -16 25 -118 46 -320 36 -347 37
-372 12 -481 -29 -123 -47 -216 -76 -383 -37 -217 -33 -203 -63 -207 -26 -3
-25 -4 18 -30 57 -34 100 -49 279 -99 161 -45 174 -54 190 -134 31 -162 71
-681 71 -925 0 -167 3 -211 16 -235 11 -21 14 -44 10 -80 -4 -27 -10 -153 -15
-280 -12 -308 -13 -310 -171 -465 -108 -105 -140 -144 -140 -167 0 -5 29 -60
65 -122 36 -63 65 -117 65 -122 0 -16 -194 -170 -322 -256 -141 -93 -339 -196
-463 -239 -92 -32 -105 -40 -105 -65 0 -43 115 -78 328 -100 133 -13 245 -3
417 41 129 32 229 75 299 129 28 21 65 46 83 55 31 16 32 15 62 -14 27 -28 35
-30 103 -30 59 0 84 -5 128 -27 42 -20 71 -27 122 -27 58 -1 71 3 110 30 l43
30 103 -48 c185 -87 371 -138 586 -159 136 -13 278 -8 319 11 59 29 26 86 -93
156 -117 70 -234 167 -429 359 l-174 171 28 57 c42 86 35 124 -64 355 -111
259 -115 283 -116 697 0 403 7 469 102 914 25 118 58 283 72 365 24 137 28
151 46 148 51 -6 106 -1 178 17 130 33 153 58 143 155 -13 124 -35 428 -47
652 -16 290 -1 626 32 760 12 46 26 84 30 84 5 0 22 -20 37 -45 15 -25 52 -86
82 -135 30 -50 90 -129 135 -177 99 -107 343 -323 365 -323 60 0 531 580 731
902 64 103 70 117 66 155 -4 34 2 54 35 115 22 40 51 85 64 99 l25 26 37 -18
c44 -23 131 -25 171 -5 32 17 94 83 114 123 26 49 38 111 42 212 3 92 6 104
45 184 42 84 42 86 38 179 -4 117 -30 178 -89 208 -21 11 -44 20 -52 20 -7 0
-26 13 -42 30 -44 46 -90 63 -150 56 l-52 -6 -6 143 c-6 152 -22 244 -64 372
-32 99 -45 125 -84 170 -40 45 -96 49 -134 10 -30 -29 -30 -22 -10 -435 8
-171 12 -355 9 -418 l-7 -112 -37 -10 c-71 -19 -92 -58 -114 -215 -8 -55 -22
-150 -31 -211 -19 -126 -12 -178 31 -221 29 -29 39 -12 -79 -142 -71 -78 -159
-204 -326 -469 -57 -89 -108 -165 -114 -169 -16 -9 -159 147 -223 243 -59 89
-153 279 -259 524 -37 85 -72 161 -78 169 -7 8 -28 21 -47 28 -79 33 -121 111
-135 253 -4 36 -15 91 -26 124 l-20 59 35 131 c79 292 112 526 102 726 -6 127
-31 278 -60 360 -8 25 -12 47 -8 51 4 3 36 16 72 29 237 82 495 292 651 527
73 110 71 191 -7 228 -33 16 -55 17 -169 12 -71 -4 -164 -11 -205 -16 -182
-23 -358 -32 -460 -22 -121 11 -133 20 -170 116 -44 114 -105 220 -198 344
l-93 125 24 45 c62 114 75 271 34 391 -13 37 -28 66 -37 68 -8 1 -26 -14 -39
-33 l-24 -35 -43 74 c-68 116 -139 166 -236 166 -31 0 -38 -4 -38 -19z m-846
-1712 c59 -16 96 -58 96 -109 l0 -41 -28 20 c-44 31 -132 62 -166 59 -27 -3
-31 -7 -31 -32 0 -28 3 -30 57 -41 56 -11 79 -25 125 -75 31 -35 29 -47 -17
-70 -47 -24 -81 -25 -120 -5 -82 42 -107 241 -37 290 25 18 67 19 121 4z m590
-542 c100 -103 342 -199 540 -213 48 -3 132 1 206 10 68 8 126 13 128 11 2 -2
8 -21 13 -42 12 -56 0 -141 -25 -169 -40 -45 -243 -79 -420 -71 -97 4 -126 10
-226 45 -63 22 -120 48 -126 57 -12 16 -52 139 -75 228 -6 26 -27 73 -45 104
-31 51 -43 93 -28 93 4 0 30 -24 58 -53z m2691 -53 c67 -68 135 -350 134 -559
0 -100 -21 -320 -30 -330 -8 -7 -106 -25 -139 -25 l-27 0 10 58 c15 85 14 430
-2 648 -8 105 -11 199 -8 208 8 21 41 21 62 0z m-2200 -553 c22 -10 49 -28 60
-40 16 -19 17 -24 5 -31 -8 -6 -37 -10 -64 -10 -65 0 -216 22 -216 31 0 11 50
45 85 57 45 16 85 14 130 -7z m283 -137 c5 -38 -22 -48 -131 -48 -95 0 -239
23 -277 45 -9 5 29 9 95 10 61 0 135 4 165 9 30 4 75 7 100 6 37 -1 45 -4 48
-22z m2233 -4 c39 -21 63 -88 67 -192 3 -65 1 -98 -6 -98 -6 0 -13 9 -17 19
-20 63 -88 98 -157 82 -35 -8 -38 -7 -38 13 1 46 28 147 45 166 20 22 73 27
106 10z m156 -112 c31 -35 40 -58 48 -125 9 -82 -12 -157 -57 -200 l-34 -33 1
190 c0 129 3 190 11 190 6 0 20 -10 31 -22z m-186 -154 c20 -25 24 -125 6
-161 -25 -48 -70 -63 -189 -63 -68 0 -108 -4 -116 -12 -18 -18 -14 -56 7 -68
20 -10 130 0 227 21 50 11 109 9 174 -8 l35 -9 0 -84 c0 -103 -21 -166 -78
-227 -48 -52 -93 -67 -154 -52 -24 6 -43 15 -43 20 0 5 16 39 36 76 40 76 44
128 9 128 -15 0 -29 -18 -55 -72 -19 -39 -41 -79 -49 -88 -26 -29 -72 -46
-126 -46 -57 0 -97 16 -157 63 -45 35 -46 43 -23 273 22 222 25 234 55 268 26
29 31 31 156 42 194 18 269 18 285 -1z m-3002 -228 c152 -74 302 -145 333
-159 l57 -26 -147 -230 c-81 -127 -151 -231 -157 -231 -32 1 -119 113 -318
408 -86 127 -157 239 -157 247 0 49 57 125 93 125 11 0 144 -60 296 -134z
m1133 13 c4 -41 3 -119 -2 -173 -11 -113 -49 -282 -59 -269 -4 4 -13 39 -20
76 -16 95 -45 167 -86 214 l-35 41 43 59 c51 68 123 136 140 130 7 -2 15 -35
19 -78z m-216 -214 c16 -24 15 -26 -17 -64 -19 -21 -44 -51 -56 -65 -22 -26
-56 -33 -82 -17 -10 7 1 27 50 89 35 45 70 81 76 81 7 1 20 -10 29 -24z m-429
-47 c40 -45 53 -87 34 -117 -7 -11 -21 -8 -76 18 l-68 31 19 23 c43 52 58 67
64 67 4 0 16 -10 27 -22z m747 -30 c41 -92 69 -225 70 -327 l1 -94 -66 2 c-65
2 -139 -17 -139 -37 0 -5 20 -35 45 -68 24 -32 45 -62 45 -67 0 -4 -43 -83
-97 -175 -168 -292 -288 -572 -244 -572 4 0 58 101 119 225 61 123 129 248
150 277 22 29 56 86 77 127 22 44 44 75 56 78 10 3 19 8 19 11 0 3 -18 34 -41
68 -23 35 -38 68 -34 75 8 11 99 8 112 -4 8 -9 -17 -127 -32 -152 -14 -23 -53
-202 -87 -400 -18 -107 -22 -166 -21 -340 0 -269 21 -676 39 -784 8 -46 14
-101 14 -121 l0 -38 -86 -31 c-97 -36 -104 -36 -104 -16 0 57 -98 179 -212
263 -80 59 -85 78 -59 215 12 61 29 148 37 191 9 44 20 88 25 97 18 35 8 80
-36 162 -25 46 -45 97 -45 113 0 16 36 105 80 197 114 242 191 487 207 667 6
59 10 68 45 100 37 34 39 39 81 223 23 103 46 187 50 187 4 0 19 -24 31 -52z
m170 -155 c87 -269 218 -510 380 -698 42 -49 80 -100 83 -113 3 -13 0 -42 -6
-63 -14 -47 -7 -76 20 -84 29 -9 46 10 66 71 12 39 14 59 6 76 -9 20 -3 31 56
94 36 39 104 124 150 190 167 235 312 424 326 424 18 0 35 -17 108 -106 l57
-71 -48 -89 c-47 -89 -166 -252 -364 -501 -129 -162 -300 -361 -311 -362 -5
-1 -50 27 -100 61 -123 83 -287 249 -361 363 -32 50 -74 113 -93 142 -49 73
-57 118 -38 201 40 169 37 294 -10 490 -14 57 -25 108 -25 113 0 5 13 9 28 9
28 0 30 -3 76 -147z m-429 83 c17 -41 12 -59 -20 -80 -31 -20 -27 -21 -54 15
l-23 31 33 34 c18 19 37 34 41 34 5 0 15 -15 23 -34z m-566 -80 c-2 -2 -17 -2
-32 1 -31 6 -43 24 -33 50 6 14 11 12 38 -15 18 -17 30 -33 27 -36z m400 -9
c33 -16 59 -62 72 -128 13 -65 -3 -117 -45 -144 -21 -14 -33 -15 -81 -5 -62
13 -100 8 -161 -22 l-42 -20 -55 42 c-48 36 -55 45 -47 63 14 36 71 161 75
166 3 2 39 16 82 32 84 30 163 37 202 16z m-479 -37 c20 -28 20 -30 3 -30 -24
0 -43 19 -43 42 0 27 16 22 40 -12z m2398 16 c2 -3 -63 -121 -75 -135 -2 -3
-19 11 -38 29 -35 34 -43 66 -28 105 5 15 15 17 72 11 36 -4 67 -8 69 -10z
m-1714 -43 c15 -51 15 -93 2 -138 -37 -124 -104 -307 -118 -321 -14 -14 -17
-9 -32 50 -25 101 -22 116 28 163 50 47 66 89 66 172 0 68 40 122 54 74z
m-687 -84 c53 -38 62 -49 65 -79 3 -30 12 -42 67 -82 35 -26 70 -56 77 -65 16
-21 17 -70 4 -144 -5 -30 -14 -89 -20 -133 -12 -83 -27 -136 -39 -136 -4 0
-87 117 -184 260 l-178 260 58 85 c38 56 63 84 73 82 9 -2 43 -24 77 -48z
m457 -211 c22 -21 26 -39 45 -187 l21 -164 -39 -86 c-97 -212 -133 -283 -141
-275 -36 37 -130 192 -130 214 0 15 13 127 30 251 28 210 31 225 55 247 20 17
38 22 80 22 42 0 59 -5 79 -22z m-2455 -659 c-12 -85 -24 -105 -34 -60 -6 29
5 82 27 124 17 32 19 12 7 -64z m2454 -989 c88 -81 137 -149 137 -190 0 -18
-22 -128 -50 -244 -76 -325 -156 -693 -169 -776 -46 -311 -39 -824 14 -1057 8
-35 38 -114 66 -175 87 -191 96 -234 59 -281 -26 -33 -75 -47 -170 -47 -41 0
-92 -5 -112 -10 -51 -14 -111 -72 -106 -102 4 -32 33 -34 87 -7 38 19 70 24
191 30 l145 8 49 -57 c89 -104 259 -262 411 -385 83 -66 157 -127 165 -134 13
-13 -6 -14 -150 -8 -272 11 -403 38 -586 124 -44 21 -111 59 -147 84 -42 28
-74 43 -86 40 -21 -5 -41 -42 -41 -76 0 -37 -12 -44 -82 -51 l-68 -7 0 58 c0
107 19 280 35 338 13 44 16 84 13 169 -3 68 0 142 9 191 10 63 13 256 13 895
0 629 4 855 15 990 8 96 15 187 15 201 0 25 3 27 60 31 79 6 95 21 56 55 l-30
25 39 32 c27 23 37 38 32 50 -17 44 -96 26 -162 -38 l-45 -43 0 -77 c0 -42 -6
-165 -14 -274 -10 -135 -16 -444 -20 -982 -4 -676 -7 -795 -21 -860 -13 -58
-15 -101 -9 -187 3 -62 4 -113 1 -113 -3 0 -59 12 -124 26 -89 20 -148 27
-239 28 l-121 1 -66 107 -66 107 113 105 c176 165 191 205 201 541 6 211 7
222 32 273 25 49 28 52 65 52 27 0 38 4 38 15 0 11 -12 15 -51 15 -35 0 -60 6
-79 20 l-27 19 -7 258 c-10 377 -40 802 -62 876 -5 15 3 17 75 17 101 0 126 9
142 55 11 29 47 61 186 168 97 74 215 155 270 184 54 29 101 53 104 53 3 0 36
-27 72 -60z m-679 -2885 c93 -13 174 -29 180 -35 7 -7 2 -57 -15 -163 l-24
-152 -39 -10 c-35 -8 -40 -7 -58 18 -22 30 -67 57 -95 57 -28 0 -115 -44 -169
-85 -110 -85 -220 -120 -444 -140 -250 -23 -426 -17 -394 15 5 4 86 49 180 98
229 120 324 184 493 331 95 83 135 104 181 96 19 -3 111 -16 204 -30z"/>
<path d="M5322 5418 c-26 -26 -7 -98 27 -98 36 0 73 69 51 95 -15 18 -61 20
-78 3z"/>
<path d="M3537 5236 c-4 -9 -9 -51 -13 -94 -6 -70 -4 -79 14 -95 20 -19 21
-19 28 18 8 44 0 146 -13 170 -9 16 -11 16 -16 1z"/>
<path d="M3470 2200 c-7 -22 -11 -43 -7 -46 3 -3 11 13 17 36 15 55 7 62 -10
10z"/>
<path d="M2676 9079 c-96 -23 -243 -115 -220 -138 8 -9 28 0 75 31 64 43 151
78 194 78 24 0 49 22 38 33 -8 9 -38 7 -87 -4z"/>
<path d="M3432 8634 c-12 -8 -22 -19 -22 -23 0 -9 165 -61 193 -61 23 0 31 23
18 48 -25 46 -143 69 -189 36z"/>
<path d="M3105 8606 c-44 -12 -90 -27 -102 -34 -21 -11 -73 -72 -73 -84 0 -3
33 7 73 22 40 16 104 34 142 41 39 6 78 19 88 27 17 15 17 17 -5 34 -28 21
-25 22 -123 -6z"/>
<path d="M3050 8382 c-63 -62 -65 -149 -4 -172 49 -19 84 -12 120 24 68 68 38
186 -48 186 -22 0 -41 -11 -68 -38z"/>
<path d="M565 5848 c-35 -41 -65 -121 -80 -210 l-6 -36 -55 5 c-42 5 -58 2
-65 -8 -5 -8 -9 -51 -9 -96 0 -46 -3 -83 -6 -83 -4 0 -57 23 -118 51 -63 29
-131 54 -158 57 -40 4 -48 2 -58 -18 -13 -25 -8 -139 10 -199 9 -32 126 -202
185 -270 30 -34 139 -111 158 -111 5 0 -28 39 -74 88 -133 137 -201 239 -224
335 -6 23 -4 27 15 27 16 0 59 -36 138 -115 101 -101 152 -137 152 -106 0 25
-21 48 -132 151 -94 87 -130 113 -165 123 -35 9 -43 15 -41 31 7 43 32 42 119
-9 154 -89 204 -114 251 -130 69 -24 73 -32 54 -112 -32 -136 -51 -407 -32
-461 9 -26 68 -59 123 -68 55 -9 88 20 102 89 10 51 28 211 34 292 l2 40 43
-2 c23 -1 42 1 42 5 0 4 -18 17 -39 29 -61 35 -279 240 -301 284 -20 39 -28
129 -11 129 14 0 401 -264 523 -357 69 -53 124 -122 138 -173 10 -37 32 -56
52 -44 13 8 2 76 -17 115 -28 53 -151 163 -255 229 -57 36 -121 81 -142 101
l-38 37 0 98 c0 125 -14 215 -45 282 -13 28 -26 52 -29 52 -2 0 -21 -19 -41
-42z m54 -82 c14 -17 24 -286 10 -286 -18 0 -119 86 -119 102 0 35 30 171 41
184 15 18 53 18 68 0z m-54 -566 c35 -28 65 -56 68 -63 9 -26 -6 -277 -17
-277 -15 0 -147 38 -154 44 -8 9 21 346 31 346 5 0 37 -23 72 -50z m-22 -358
c59 -40 76 -95 33 -112 -30 -11 -65 -3 -93 23 -17 15 -23 32 -23 64 0 40 2 43
28 43 15 0 39 -8 55 -18z"/>
<path d="M1292 4578 c-14 -14 -16 -54 -2 -63 13 -8 50 13 50 29 0 7 -8 20 -18
29 -14 13 -21 14 -30 5z"/>
<path d="M3458 4273 c-24 -27 -30 -58 -17 -87 19 -41 54 -35 79 14 24 47 25
54 4 74 -20 21 -47 20 -66 -1z"/>
<path d="M3425 3985 l-27 -34 22 -31 c38 -54 70 -33 70 47 0 46 -3 53 -19 53
-11 0 -32 -16 -46 -35z"/>
</g>
</svg>
