<?xml version="1.0" standalone="no"?>
<!DOCTYPE svg PUBLIC "-//W3C//DTD SVG 20010904//EN"
 "http://www.w3.org/TR/2001/REC-SVG-20010904/DTD/svg10.dtd">
<svg version="1.0" xmlns="http://www.w3.org/2000/svg"
 width="1280.000000pt" height="640.000000pt" viewBox="0 0 1280.000000 640.000000"
 preserveAspectRatio="xMidYMid meet">
<metadata>
Created by potrace 1.15, written by Peter Selinger 2001-2017
</metadata>
<g transform="translate(0.000000,640.000000) scale(0.100000,-0.100000)"
fill="#000000" stroke="none">
<path d="M3264 5541 c-89 -14 -151 -40 -183 -76 -29 -34 -48 -86 -36 -104 9
-15 37 -1 31 15 -9 24 5 44 31 44 20 0 24 -4 18 -17 -10 -26 -36 -162 -40
-208 -1 -22 -6 -56 -10 -75 -8 -43 17 -81 76 -110 59 -31 81 -83 32 -78 -24 3
-31 -4 -55 -47 -36 -64 -65 -157 -73 -232 -7 -57 -6 -59 19 -71 l26 -12 -2
-262 -3 -263 -62 -3 c-59 -3 -63 -5 -63 -26 0 -32 17 -37 138 -43 109 -6 120
-14 65 -45 -47 -28 -265 -79 -280 -66 -9 7 -17 7 -28 -2 -17 -14 -21 0 -4 17
18 18 11 153 -12 229 -23 73 -65 163 -106 225 -17 26 -30 35 -43 32 -15 -4
-17 0 -11 28 8 39 31 47 146 53 39 2 87 7 108 11 l37 7 0 82 c0 127 -19 218
-58 286 -5 8 -17 32 -27 52 -13 26 -31 44 -62 59 -40 19 -56 21 -156 17 -127
-6 -206 -30 -250 -76 -29 -30 -46 -75 -39 -104 6 -27 32 -9 32 23 0 30 28 53
53 43 12 -4 12 -11 1 -47 -8 -23 -16 -63 -20 -90 -3 -26 -9 -45 -14 -42 -13 8
-31 -21 -24 -39 3 -9 12 -16 20 -16 10 0 11 -6 4 -26 -28 -72 -7 -121 67 -158
28 -14 63 -60 63 -82 0 -3 -11 -4 -24 -2 -29 6 -36 -7 -36 -62 0 -85 -60 -367
-110 -520 -43 -129 -43 -119 -5 -134 18 -8 59 -20 91 -27 33 -7 62 -17 66 -23
9 -13 22 -155 15 -162 -3 -4 -41 -18 -84 -33 -70 -24 -78 -29 -81 -54 -3 -27
-3 -27 55 -27 45 0 73 7 121 30 l62 31 1 72 2 72 11 -85 c13 -91 9 -105 -30
-114 -14 -4 -49 -16 -79 -27 -47 -17 -55 -24 -55 -46 0 -25 1 -25 73 -22 55 3
80 10 104 27 17 12 38 22 47 22 9 0 16 6 16 13 1 6 1 77 0 157 l-1 146 48 12
c74 19 75 21 58 77 -8 27 -13 49 -12 50 1 0 20 9 42 20 29 15 43 30 51 55 10
30 18 36 60 47 67 17 74 16 74 -8 0 -21 3 -22 99 -17 81 4 109 10 154 31 30
15 65 27 79 27 14 0 39 3 56 6 27 5 31 11 34 42 l3 37 115 27 c63 15 115 26
116 25 1 -1 31 -53 67 -114 65 -113 65 -113 39 -113 -78 0 -154 -48 -168 -106
-4 -16 -16 -41 -27 -56 -21 -28 -46 -136 -47 -199 l0 -36 -147 -58 c-82 -31
-307 -120 -501 -197 -195 -77 -355 -138 -356 -136 -1 2 -50 73 -108 158 -94
139 -104 159 -100 191 3 29 -1 40 -19 52 -17 12 -26 14 -36 5 -10 -8 -13 -7
-13 5 0 8 7 18 16 21 15 6 16 19 10 102 -9 134 -51 296 -102 396 l-14 27 -37
-24 c-20 -14 -38 -24 -39 -22 -2 2 0 16 5 32 6 24 14 31 42 36 49 8 86 35 106
80 12 25 25 39 38 39 11 0 25 4 32 8 18 11 35 64 28 89 -4 16 -1 23 10 23 12
0 15 13 15 55 0 46 -4 60 -23 78 -13 12 -27 35 -31 51 -11 47 -68 94 -123 102
-64 9 -209 -2 -261 -20 -84 -30 -132 -84 -132 -146 0 -29 35 -22 36 6 2 30 12
44 35 44 23 0 23 -1 4 -64 -8 -27 -15 -62 -15 -78 0 -15 -6 -37 -12 -48 -9
-14 -9 -23 -2 -30 8 -8 7 -23 -3 -52 -19 -56 -4 -100 45 -129 78 -47 106 -89
59 -89 -31 0 -50 -22 -81 -92 -24 -53 -56 -185 -56 -228 0 -12 10 -25 25 -32
l25 -11 0 -263 0 -262 -37 -6 c-21 -3 -49 -4 -63 -3 -19 2 -24 -3 -24 -22 0
-32 29 -40 147 -43 48 -1 87 -5 87 -9 0 -14 -41 -41 -96 -62 -57 -22 -59 -25
-62 -62 l-3 -38 82 6 c45 4 80 5 78 2 -13 -12 -249 -98 -277 -100 -28 -3 -31
-1 -21 11 17 21 14 137 -6 212 -34 132 -119 284 -154 275 -17 -4 -18 -1 -12
28 8 40 29 47 171 59 52 4 102 10 110 14 13 5 14 24 9 119 -3 61 -10 127 -14
145 -11 53 -84 191 -109 208 -71 46 -259 38 -371 -16 -68 -33 -95 -68 -95
-125 0 -32 2 -36 15 -25 8 7 15 22 15 34 0 28 18 46 47 46 27 0 27 2 8 -43 -8
-20 -15 -54 -15 -76 0 -31 -6 -46 -27 -66 l-28 -26 22 -18 c15 -12 18 -22 12
-32 -12 -19 -11 -86 1 -109 5 -10 32 -32 60 -49 28 -17 55 -43 60 -57 14 -35
13 -35 -14 -28 -26 6 -36 -13 -36 -72 0 -89 -66 -384 -120 -540 -16 -48 -27
-91 -22 -96 4 -4 48 -18 97 -31 l90 -24 7 -44 c3 -24 7 -63 7 -85 l1 -42 -83
-28 c-66 -24 -83 -33 -85 -51 -7 -45 97 -43 186 3 l52 27 1 76 1 76 13 -90 c6
-49 10 -93 9 -96 -2 -3 -25 -14 -51 -23 -107 -39 -124 -49 -121 -70 3 -18 11
-21 57 -24 41 -2 65 3 106 22 28 14 57 26 63 26 14 0 14 -9 12 171 l-1 146 43
11 c24 6 51 17 60 24 16 12 17 17 4 60 l-15 47 35 11 c39 13 77 64 69 91 -4
13 70 46 387 170 216 85 396 154 401 154 4 0 57 -72 117 -160 l109 -160 -52
-12 c-59 -14 -114 -63 -124 -113 -3 -17 -9 -30 -13 -30 -16 0 -41 -86 -48
-165 l-7 -80 -245 -90 c-135 -50 -338 -126 -451 -168 l-207 -76 -228 91 c-164
65 -235 98 -250 116 -14 17 -27 23 -37 19 -19 -7 -23 8 -6 19 16 9 5 145 -17
221 -18 62 -59 151 -103 220 -19 31 -31 41 -43 37 -14 -4 -18 0 -18 18 0 13 4
28 8 34 10 14 102 32 196 38 43 3 83 9 89 15 6 6 6 52 -2 133 -11 124 -23 180
-46 208 -7 8 -18 31 -24 51 -24 74 -77 102 -196 103 -195 0 -325 -65 -325
-164 0 -31 3 -38 15 -34 8 4 15 17 15 29 0 29 25 55 51 55 10 0 19 -1 19 -2 0
-2 -7 -25 -15 -52 -8 -27 -15 -66 -15 -86 0 -29 -5 -39 -20 -43 -24 -6 -27
-42 -4 -55 13 -7 14 -13 5 -30 -16 -31 -13 -84 7 -108 9 -12 31 -29 49 -38 59
-29 99 -103 50 -91 -23 6 -24 4 -36 -92 -18 -151 -58 -333 -105 -479 l-43
-133 61 -20 c33 -11 78 -23 98 -26 l37 -7 6 -66 c4 -37 8 -76 9 -87 1 -16 -15
-25 -84 -50 -69 -25 -86 -34 -88 -53 -3 -18 3 -23 29 -29 l31 -6 -48 -19 c-62
-25 -124 -30 -124 -12 0 8 5 14 11 14 19 0 4 203 -21 295 -21 78 -78 225 -86
225 -3 0 -18 -10 -34 -22 -34 -25 -45 -20 -36 15 4 18 14 26 41 30 47 8 89 39
109 81 11 24 25 36 47 41 34 8 53 43 47 87 -3 19 1 28 14 31 14 4 18 15 18 47
0 41 -23 100 -39 100 -5 0 -12 12 -16 27 -10 41 -45 84 -79 98 -55 23 -146 27
-234 11 -134 -24 -202 -77 -202 -156 0 -40 23 -35 30 6 4 23 11 30 32 32 l28
3 -15 -42 c-8 -23 -15 -61 -15 -85 0 -23 -4 -46 -10 -49 -5 -3 -9 -20 -9 -38
1 -18 -2 -49 -6 -69 -12 -60 0 -85 60 -123 74 -48 99 -92 46 -82 -27 6 -31 2
-60 -53 -38 -70 -58 -134 -69 -219 -9 -62 -9 -62 20 -77 l28 -15 0 -258 c0
-291 6 -271 -81 -271 -49 0 -50 -1 -47 -27 3 -24 9 -29 43 -35 22 -4 75 -7
118 -7 46 -1 77 -5 77 -11 0 -11 -135 -80 -157 -80 -8 0 -13 -14 -13 -36 l0
-37 104 5 c86 4 113 9 158 31 30 15 69 27 86 27 17 0 42 4 56 10 l26 10 0 204
c0 193 1 205 19 211 37 11 70 46 76 79 7 33 10 35 143 84 76 28 146 54 157 58
17 7 18 6 7 -8 -7 -9 -24 -19 -38 -22 -14 -4 -50 -16 -80 -27 -46 -17 -55 -24
-52 -42 3 -20 9 -22 68 -21 49 0 79 7 123 28 l57 27 0 48 0 48 326 121 327
120 406 -160 c223 -88 437 -172 475 -187 58 -22 71 -31 77 -54 10 -38 28 -58
67 -74 30 -13 33 -17 26 -41 -18 -66 -13 -76 48 -96 l57 -18 -6 -154 c-6 -145
-5 -154 13 -160 10 -3 35 -14 54 -24 46 -24 102 -34 145 -26 67 13 33 59 -60
82 -16 4 -42 13 -58 21 -27 14 -27 15 -21 81 4 37 10 71 14 75 4 4 5 -17 2
-47 -4 -48 -2 -57 14 -62 11 -4 31 -15 45 -25 64 -44 189 -50 189 -9 0 24 -8
28 -100 60 -84 29 -79 19 -65 141 l6 57 72 17 c86 21 117 34 117 50 0 7 -7 32
-16 56 -54 149 -115 415 -129 567 -7 71 -8 74 -31 69 -49 -9 -22 53 35 83 22
11 50 33 64 51 l24 31 21 -33 c18 -30 19 -36 6 -50 -33 -37 -7 -101 52 -125
l34 -14 0 -205 c0 -230 -7 -212 80 -218 19 -2 54 -13 76 -25 45 -23 141 -42
217 -42 l47 0 0 35 c0 25 -5 37 -17 42 -55 19 -143 66 -143 76 0 8 23 12 69
13 37 1 89 4 115 8 43 7 46 9 46 38 0 29 -2 30 -30 24 -17 -3 -43 -3 -60 0
l-30 7 0 263 0 264 26 10 c25 10 26 13 19 63 -11 78 -32 152 -61 213 -14 31
-24 56 -23 58 2 1 23 9 46 18 40 15 43 15 60 -4 10 -12 32 -27 50 -34 l32 -14
-14 -47 c-17 -55 -9 -64 63 -83 l43 -11 -2 -152 -2 -152 54 -27 c94 -46 189
-49 189 -7 0 21 -34 39 -122 66 l-48 14 1 47 c0 26 4 65 8 87 8 38 9 36 10
-25 l1 -65 58 -27 c74 -35 104 -42 147 -34 25 5 35 12 35 25 0 25 -14 35 -93
61 -38 12 -71 28 -73 35 -3 7 -1 45 3 86 l8 73 93 26 c51 15 94 29 97 32 3 2
-7 38 -21 79 -55 162 -124 474 -124 568 0 48 -12 65 -40 56 -19 -6 -21 -4 -15
17 7 26 45 62 99 95 l35 22 31 -55 c29 -50 30 -55 16 -76 -9 -12 -16 -31 -16
-41 0 -23 62 -87 84 -87 14 0 16 -24 16 -209 0 -236 -6 -221 87 -221 23 0 45
-5 48 -10 12 -19 76 -39 158 -50 114 -15 131 -11 131 29 0 31 -4 34 -68 61
-124 53 -126 70 -8 71 124 2 146 8 150 41 3 27 2 27 -52 27 -30 -1 -59 2 -65
6 -7 4 -11 92 -11 266 l0 259 26 11 c26 9 27 11 21 74 -7 76 -45 191 -81 245
-20 31 -29 37 -50 33 -61 -12 -7 53 80 96 70 35 80 37 88 16 4 -11 47 -37 83
-50 1 -1 -4 -23 -12 -50 -17 -56 -16 -58 58 -77 l49 -12 -3 -156 c-3 -146 -2
-155 17 -159 10 -2 32 -13 49 -25 22 -15 49 -22 102 -25 69 -3 73 -2 73 18 0
25 -29 45 -99 65 -78 23 -79 24 -69 108 12 100 16 106 17 21 1 -56 4 -73 15
-73 8 0 34 -11 57 -25 34 -19 58 -25 107 -25 58 0 62 1 62 23 0 25 -4 27 -125
74 -41 15 -49 23 -47 41 2 11 6 49 10 83 l7 61 85 22 c47 12 91 25 97 29 8 5
5 28 -13 80 -54 158 -116 441 -126 572 l-3 40 65 16 65 15 31 -33 c17 -18 38
-33 47 -33 25 0 28 -14 13 -63 -13 -43 -13 -45 9 -55 13 -6 40 -15 62 -21 l38
-10 -3 -156 c-3 -142 -1 -156 15 -161 10 -3 34 -14 54 -24 72 -39 169 -38 169
0 0 22 -33 42 -95 59 -74 20 -79 27 -67 112 l9 74 2 -62 c1 -50 4 -63 17 -63
9 0 28 -8 42 -19 43 -30 99 -44 148 -36 35 5 44 10 44 26 0 21 -17 31 -112 63
l-63 21 2 45 c1 25 5 64 8 86 l6 42 72 17 c77 19 117 34 117 45 0 4 -9 33 -20
66 -56 161 -113 415 -126 557 -7 76 -8 79 -30 74 -19 -3 -24 0 -24 15 0 22 33
56 77 80 17 9 39 28 49 43 15 23 16 33 5 77 -10 44 -9 52 5 63 20 14 12 45
-11 45 -10 0 -15 10 -15 33 0 30 -8 67 -26 125 -6 21 -4 23 22 20 23 -2 31
-10 40 -38 14 -44 34 -51 34 -12 0 79 -96 144 -240 164 -153 20 -241 -5 -274
-78 -9 -22 -21 -46 -26 -54 -36 -58 -60 -177 -60 -306 0 -63 -1 -63 140 -74
128 -11 147 -16 154 -43 10 -39 7 -49 -13 -42 -14 4 -26 -5 -49 -43 -44 -68
-87 -166 -106 -243 -18 -73 -21 -184 -6 -194 16 -10 12 -25 -6 -18 -8 3 -25
-4 -39 -17 -21 -19 -150 -60 -193 -60 -23 0 16 58 51 76 74 37 95 86 67 158
-7 20 -6 26 4 26 16 0 27 23 18 37 -4 5 -15 12 -24 16 -14 5 -18 18 -18 57 0
28 -7 67 -15 86 l-14 35 32 -3 c28 -3 32 -7 35 -35 3 -34 27 -52 34 -25 8 32
-12 80 -47 111 -49 42 -122 63 -246 68 -91 4 -113 2 -151 -15 -40 -17 -49 -28
-86 -103 -47 -96 -62 -167 -62 -290 l0 -87 71 -12 c38 -7 79 -10 91 -7 11 3
42 0 69 -6 44 -11 50 -16 59 -46 11 -40 7 -49 -14 -32 -11 10 -18 6 -37 -21
-12 -18 -24 -35 -25 -37 -2 -2 -65 -18 -141 -36 -132 -30 -140 -31 -192 -18
-36 10 -91 14 -157 11 -117 -3 -144 -16 -179 -83 l-21 -39 -209 -49 c-130 -31
-214 -46 -222 -41 -26 17 -174 287 -163 298 29 29 -9 106 -45 93 -19 -8 -20 7
0 23 19 16 19 78 0 195 -19 119 -89 325 -111 325 -2 0 -18 -10 -34 -22 -35
-25 -48 -18 -32 17 8 16 20 25 35 25 35 0 89 40 112 82 12 24 30 39 50 45 35
10 57 47 51 85 -3 17 0 28 9 32 11 4 15 21 15 56 0 40 -5 56 -24 75 -13 13
-27 37 -31 53 -6 30 -43 71 -80 90 -29 15 -151 22 -211 13z m345 -1361 c52
-91 76 -142 68 -145 -19 -7 -187 -45 -197 -45 -6 0 -10 62 -10 154 l0 154 28
10 c15 6 28 11 29 11 1 1 38 -62 82 -139z m1211 87 c0 -2 -11 -25 -23 -53 -52
-109 -78 -269 -52 -318 19 -36 19 -42 -1 -25 -13 11 -21 7 -52 -27 l-36 -39
-10 45 c-5 25 -8 62 -8 83 1 20 -3 37 -8 37 -6 0 -10 17 -10 38 0 22 -7 61
-15 88 -8 27 -15 50 -15 52 0 1 8 2 19 2 21 0 37 -17 42 -44 2 -11 10 -21 18
-24 26 -9 6 76 -25 109 -15 16 -26 30 -23 32 5 4 170 44 187 46 6 1 12 0 12
-2z m-707 -218 c-5 -55 -4 -61 15 -66 17 -4 19 -8 10 -22 -17 -28 15 -90 49
-97 19 -4 35 -17 48 -42 24 -43 61 -72 106 -81 36 -7 51 -34 25 -44 -9 -4 -22
0 -30 8 -20 20 -25 19 -36 -10 -6 -16 -26 -32 -52 -44 -82 -35 -85 -35 -91 -2
-12 57 -110 108 -239 126 l-46 6 -66 116 c-37 64 -65 117 -64 119 2 1 86 22
188 47 102 25 186 45 187 46 0 0 -1 -26 -4 -60z m5 -401 c17 -17 15 -45 -4
-52 -25 -9 -31 -7 -37 12 -2 9 -8 25 -12 35 -6 13 -2 17 17 17 13 0 29 -5 36
-12z m131 -85 c-29 -84 -48 -183 -51 -263 -2 -38 -5 -70 -8 -70 -7 0 -65 117
-78 157 -8 27 -7 34 10 45 21 14 16 48 -8 48 -15 0 -32 72 -18 77 5 2 41 17
79 33 39 16 75 29 82 29 8 1 6 -17 -8 -56z m-679 -247 c0 -42 6 -45 142 -56
110 -9 148 -20 148 -45 0 -7 3 -21 7 -30 5 -14 2 -16 -14 -11 -16 5 -27 -1
-43 -21 -32 -41 -95 -179 -114 -250 -20 -73 -24 -189 -7 -206 17 -17 13 -23
-16 -22 -20 0 -31 -7 -38 -23 -6 -14 -29 -30 -62 -42 -84 -31 -103 -34 -103
-17 0 15 54 67 69 67 5 0 20 11 35 25 21 19 26 33 25 67 0 24 -4 52 -8 63 -5
12 -4 25 2 33 7 9 6 20 -1 35 -7 12 -16 50 -21 84 -5 34 -15 71 -21 83 -11 20
-9 21 17 18 22 -2 29 -9 33 -32 5 -32 24 -45 33 -23 19 50 -43 127 -125 153
-68 21 -230 30 -285 15 -45 -12 -89 -56 -100 -99 -3 -15 -17 -37 -30 -49 -19
-18 -23 -32 -23 -78 0 -42 3 -55 15 -55 11 0 14 -7 9 -25 -10 -40 14 -85 48
-92 21 -4 35 -17 49 -44 22 -44 54 -69 102 -78 22 -5 36 -16 45 -35 19 -39 8
-43 -32 -12 l-35 27 -20 -38 c-10 -21 -25 -57 -32 -81 -9 -30 -21 -48 -40 -58
-38 -19 -49 -18 -49 6 0 30 -55 85 -108 108 -26 12 -83 27 -127 34 l-78 13
-115 168 c-63 93 -113 169 -111 171 2 2 177 71 389 154 212 83 428 169 480
191 52 22 98 40 103 40 4 1 7 -14 7 -33z m-1137 -181 c53 -79 97 -148 97 -153
0 -8 -53 -30 -257 -109 -10 -4 -13 37 -13 186 l0 190 28 15 c15 8 32 15 37 15
6 0 54 -64 108 -144z m661 -667 c11 -31 10 -33 -20 -42 -17 -5 -23 -2 -28 18
-3 13 -9 32 -12 41 -6 13 -1 16 22 13 21 -2 31 -11 38 -30z m80 -95 c-8 -32
-17 -98 -21 -146 l-6 -88 -38 58 c-43 64 -46 73 -24 73 23 0 19 41 -5 47 -15
4 -20 14 -20 38 0 30 4 34 53 53 77 29 76 30 61 -35z m-644 -217 c0 -43 7 -45
140 -56 140 -11 160 -19 160 -68 0 -19 -4 -22 -19 -17 -16 5 -27 -7 -62 -65
-58 -99 -99 -222 -106 -324 -4 -57 -2 -85 6 -90 21 -13 11 -22 -26 -21 -23 1
-170 54 -373 134 -184 73 -389 153 -454 179 -91 35 -114 48 -100 54 10 4 99
37 197 73 460 169 535 197 577 214 60 26 60 26 60 -13z m-1177 -187 c100 -39
193 -75 207 -81 32 -12 26 -16 -117 -67 -59 -22 -182 -67 -273 -101 -91 -34
-172 -64 -181 -67 -14 -4 -17 8 -18 85 l-2 89 43 11 c24 6 52 17 62 25 17 12
18 18 8 47 -17 48 -15 55 23 73 19 9 40 26 47 37 7 11 14 20 16 20 2 0 85 -32
185 -71z m-455 -314 l0 -40 -9 40 c-4 22 -8 51 -7 65 l0 25 8 -25 c4 -14 8
-43 8 -65z"/>
<path d="M10245 5536 c-128 -24 -195 -77 -195 -154 0 -42 23 -39 30 4 4 23 11
30 32 32 l28 3 -15 -42 c-8 -23 -15 -61 -15 -85 0 -23 -4 -46 -10 -49 -5 -3
-9 -20 -9 -38 1 -18 -2 -49 -6 -69 -12 -60 0 -85 60 -123 74 -48 99 -92 46
-82 -27 6 -31 2 -60 -53 -38 -70 -58 -134 -69 -219 -9 -62 -9 -62 20 -77 l28
-15 0 -258 c0 -291 6 -271 -81 -271 -45 0 -49 -2 -49 -24 0 -32 17 -38 138
-44 90 -4 101 -6 90 -20 -14 -17 -126 -72 -145 -72 -8 0 -13 -14 -13 -36 l0
-37 105 5 c86 4 112 9 153 30 l49 26 -16 -56 c-9 -30 -23 -59 -31 -63 -29 -14
-475 -166 -479 -163 -2 2 1 9 7 16 6 7 10 34 10 60 0 42 5 51 41 86 23 22 41
48 41 60 0 27 -37 65 -56 58 -16 -6 -19 10 -4 19 16 10 11 117 -10 198 -23 91
-82 215 -137 286 -1 2 -9 -2 -18 -9 -13 -11 -15 -9 -15 12 0 53 30 66 166 73
44 2 93 9 109 15 l28 11 -7 101 c-9 132 -22 197 -44 228 -11 14 -22 37 -25 51
-10 38 -46 80 -83 95 -41 17 -182 18 -256 3 -76 -16 -145 -54 -168 -92 -24
-39 -27 -99 -6 -91 8 3 16 17 18 31 3 29 37 56 55 45 10 -6 9 -19 -2 -56 -8
-27 -15 -66 -15 -88 0 -22 -4 -37 -11 -35 -6 1 -16 -6 -22 -16 -10 -15 -9 -21
5 -31 14 -10 15 -19 6 -54 -14 -58 3 -96 59 -128 67 -40 102 -103 49 -90 -23
6 -23 3 -30 -72 -10 -116 -62 -356 -106 -495 -22 -69 -40 -129 -40 -134 0 -6
37 -20 83 -33 45 -12 87 -24 94 -25 11 -4 29 -82 20 -91 -9 -10 -261 -94 -265
-89 -3 2 1 11 8 20 18 22 7 200 -19 296 -19 70 -73 214 -85 226 -3 3 -20 -7
-38 -22 -33 -28 -33 -28 -36 -6 -5 31 12 48 57 55 40 6 92 53 106 95 3 12 15
21 26 21 34 0 61 37 57 80 -3 31 0 40 14 43 28 8 25 88 -6 124 -13 15 -33 50
-44 76 -29 65 -76 86 -189 87 -141 0 -236 -30 -287 -90 -30 -36 -37 -100 -11
-100 9 0 15 9 15 23 0 28 17 47 42 47 10 0 18 -1 18 -2 0 -2 -7 -21 -15 -43
-8 -22 -14 -61 -15 -87 0 -27 -5 -48 -10 -48 -6 0 -10 -17 -9 -37 0 -21 -2
-57 -6 -80 -9 -53 9 -84 64 -113 37 -18 71 -54 71 -72 0 -5 -13 -8 -30 -8 -24
0 -34 -8 -57 -47 -34 -59 -73 -191 -73 -249 0 -38 4 -46 25 -56 l25 -11 0
-258 c0 -195 -3 -260 -12 -266 -7 -4 -37 -7 -65 -7 -51 1 -53 0 -53 -27 0 -26
3 -28 56 -35 31 -3 85 -7 120 -7 35 0 64 -4 64 -9 0 -12 -43 -38 -107 -64 -54
-21 -58 -25 -58 -56 l0 -33 84 2 c92 3 181 24 201 48 8 10 30 15 60 15 85 0
80 -14 80 221 0 185 2 209 16 209 9 0 32 16 51 35 25 25 34 42 31 61 -3 26 2
28 100 62 56 19 105 32 109 28 16 -16 -17 -41 -82 -63 -77 -26 -101 -43 -92
-67 11 -29 108 -21 183 15 l64 31 1 57 2 56 9 -74 c12 -85 15 -81 -84 -112
-72 -23 -94 -39 -84 -64 4 -11 21 -15 66 -15 49 0 73 6 120 31 l60 31 0 119
c0 107 2 119 19 129 26 13 34 13 28 -3 -2 -6 -24 -137 -48 -289 l-43 -278
-369 -245 c-214 -143 -373 -243 -380 -239 -7 4 -49 34 -94 68 -59 43 -83 66
-83 82 0 26 -34 58 -55 51 -17 -7 -21 8 -4 19 8 5 10 34 6 93 -6 101 -46 219
-108 323 -33 56 -44 68 -60 63 -23 -7 -27 22 -6 47 17 22 47 29 163 37 56 5
106 11 112 15 34 21 -12 356 -48 356 -4 0 -11 15 -14 33 -6 34 -42 74 -86 98
-16 8 -59 13 -120 13 -148 -1 -260 -41 -301 -108 -23 -38 -25 -86 -4 -86 9 0
15 9 15 24 0 29 24 56 51 56 23 0 23 -2 4 -64 -8 -27 -15 -64 -15 -81 0 -24
-5 -34 -20 -38 -23 -6 -26 -35 -6 -51 12 -9 13 -19 4 -58 -9 -40 -9 -51 6 -73
10 -15 32 -34 49 -43 39 -21 73 -57 80 -83 5 -18 2 -19 -22 -14 l-28 6 -7 -78
c-10 -118 -62 -357 -107 -499 -22 -69 -37 -130 -32 -135 4 -4 46 -18 93 -30
47 -13 86 -23 88 -24 1 -1 7 -37 12 -81 12 -92 11 -94 -78 -119 -30 -9 -64
-23 -76 -30 -26 -17 -156 -46 -156 -34 0 4 5 11 10 14 15 9 12 133 -5 200 -17
64 -82 208 -116 256 -15 22 -26 28 -40 24 -17 -6 -19 -3 -13 22 4 15 8 31 10
34 6 10 108 28 185 32 42 2 81 7 87 11 15 9 16 137 1 225 -9 57 -22 98 -47
141 -5 8 -17 33 -28 54 -29 61 -76 80 -193 79 -141 0 -256 -38 -294 -97 -9
-13 -19 -40 -23 -61 -6 -33 -4 -37 12 -33 12 2 21 14 24 32 6 33 30 52 54 43
15 -6 15 -10 3 -34 -8 -16 -17 -52 -20 -81 -5 -39 -13 -58 -29 -72 -21 -17
-22 -20 -7 -35 13 -14 16 -30 12 -76 -7 -68 5 -87 69 -120 32 -16 68 -61 68
-84 0 -4 -13 -4 -30 0 l-30 7 0 -50 c0 -105 -65 -408 -125 -581 -14 -41 -22
-78 -17 -83 4 -4 47 -18 95 -30 94 -25 92 -22 101 -108 l7 -55 -48 -30 c-26
-16 -65 -38 -85 -47 -21 -9 -38 -21 -38 -26 0 -11 -100 -82 -114 -82 -5 0 -1
9 9 20 36 39 2 261 -66 435 -18 44 -33 81 -34 83 -2 2 -18 -6 -36 -17 -44 -27
-49 -26 -40 6 5 20 16 29 37 33 16 4 39 12 50 18 28 15 74 70 74 88 0 8 9 14
19 14 37 0 66 35 66 79 0 24 5 43 12 45 8 4 13 24 13 56 0 41 -5 56 -25 76
-14 14 -25 32 -25 40 0 32 -36 75 -80 96 -91 45 -306 21 -383 -43 -36 -30 -63
-88 -53 -114 8 -23 34 -6 38 23 2 21 9 28 30 30 27 3 27 3 13 -24 -8 -15 -17
-53 -20 -83 -4 -31 -9 -63 -12 -71 -6 -16 -14 -107 -13 -149 0 -31 24 -58 72
-82 58 -29 79 -82 32 -77 -23 3 -31 -5 -60 -57 -35 -64 -58 -139 -69 -227 -6
-51 -6 -55 19 -66 l26 -12 -2 -262 -3 -263 -56 -3 c-51 -3 -57 -5 -61 -27 -7
-32 6 -36 130 -42 56 -3 102 -10 102 -15 0 -12 -58 -46 -112 -64 -45 -15 -48
-18 -48 -51 l0 -35 98 4 c81 3 107 8 153 31 31 15 67 27 81 27 14 0 40 3 57 6
l31 7 0 207 0 208 29 10 c48 17 73 51 68 94 -4 33 -2 39 32 61 23 15 57 26 91
29 30 3 81 18 113 32 l57 27 1 47 c1 63 17 27 18 -40 1 -36 -3 -48 -16 -53
-10 -3 -47 -16 -83 -28 -57 -19 -65 -25 -65 -47 0 -23 4 -25 55 -28 46 -2 66
2 119 30 l64 33 -2 116 -2 115 190 127 c176 117 194 127 238 127 32 0 67 10
110 31 l63 31 0 44 c0 38 4 47 29 62 16 10 138 42 271 71 l241 53 50 -21 c43
-19 57 -21 102 -12 46 8 68 6 158 -18 l104 -28 3 -51 c3 -59 7 -61 105 -69
l67 -6 -1 -31 c-2 -79 -30 -238 -53 -301 -32 -88 -37 -210 -8 -231 16 -13 16
-13 -4 -14 -29 0 -44 -19 -44 -55 0 -35 28 -67 72 -84 l27 -10 -14 -47 c-17
-56 -9 -65 63 -83 l42 -11 0 -154 0 -155 58 -26 c98 -46 186 -47 180 -2 -2 18
-19 28 -88 52 -96 34 -88 17 -71 150 l8 60 2 -70 2 -70 57 -27 c72 -35 103
-42 147 -34 25 5 35 12 35 26 0 24 -9 29 -95 60 l-70 25 1 50 c0 28 3 67 7 87
7 31 12 38 40 43 18 4 60 16 95 27 51 16 62 23 57 37 -62 159 -145 529 -145
644 l0 49 -31 -6 c-28 -5 -30 -4 -23 17 8 28 42 65 65 72 10 3 36 1 57 -4 34
-10 39 -14 34 -36 -3 -19 4 -33 31 -60 19 -19 42 -35 51 -35 14 0 16 -24 16
-209 0 -237 -6 -222 86 -224 24 0 49 -6 55 -14 19 -22 115 -45 202 -46 l82 -2
0 33 c0 31 -4 35 -58 56 -62 26 -107 52 -107 64 0 4 28 7 63 8 34 0 88 4 120
8 55 7 57 8 57 38 0 28 -2 30 -29 25 -16 -3 -45 -3 -65 0 l-36 6 0 262 0 262
25 11 c20 9 25 19 25 49 -1 98 -72 290 -113 301 -16 4 -12 8 21 17 88 26 87
27 106 -6 10 -17 34 -38 53 -46 31 -13 34 -17 27 -41 -18 -66 -13 -76 49 -96
l57 -18 -6 -152 -6 -151 58 -28 c71 -33 112 -41 159 -33 25 5 35 12 35 25 0
21 -5 24 -105 60 l-70 26 3 65 c2 36 8 72 12 80 5 9 7 -8 3 -41 l-5 -56 59
-31 c68 -35 119 -47 162 -37 21 4 31 13 31 25 0 23 -22 36 -110 64 -73 24 -69
15 -55 137 l6 57 72 17 c82 20 117 34 117 48 0 5 -18 65 -40 133 -46 145 -83
316 -101 462 -12 101 -13 104 -36 99 -31 -6 -31 22 2 57 27 30 26 30 98 -21
39 -29 47 -40 47 -67 0 -39 21 -70 58 -85 37 -16 42 -46 42 -266 0 -160 0
-163 23 -169 12 -3 35 -6 51 -6 16 0 52 -11 80 -25 50 -24 153 -44 229 -45 36
0 37 1 37 38 0 38 -1 39 -54 55 -54 17 -106 50 -106 68 0 5 31 9 69 9 37 0 89
3 115 6 43 6 46 9 46 36 0 26 -3 29 -27 28 -16 -1 -43 -2 -60 -1 l-33 1 0 265
0 265 25 12 c23 11 25 15 19 62 -9 79 -42 186 -76 242 -27 45 -33 50 -59 46
-28 -4 -29 -3 -18 21 8 17 36 37 88 61 42 20 81 36 85 36 4 0 21 -11 38 -25
16 -14 36 -25 45 -25 11 0 14 -6 9 -26 -21 -82 -21 -80 25 -97 24 -9 51 -17
59 -20 13 -3 14 -27 11 -154 l-3 -151 63 -31 c75 -37 175 -44 186 -15 8 22
-15 38 -91 64 -90 30 -87 26 -80 108 8 83 21 98 16 18 l-4 -53 66 -32 c102
-49 221 -40 176 14 -6 7 -42 24 -78 36 -92 30 -93 30 -82 117 5 40 12 77 15
82 2 4 22 11 42 14 63 12 143 39 143 49 0 6 -16 60 -36 121 -43 132 -80 295
-98 424 l-13 94 33 14 c19 8 51 21 71 29 35 15 37 15 63 -10 14 -14 33 -25 41
-25 25 0 27 -9 13 -57 -8 -25 -11 -49 -8 -54 3 -5 30 -16 60 -25 l55 -16 -2
-151 -2 -151 51 -27 c60 -33 109 -44 158 -35 29 6 35 11 32 29 -2 18 -19 28
-83 50 -44 15 -83 31 -87 35 -3 4 0 48 7 97 l13 90 0 -73 c-1 -40 1 -74 3 -75
2 -2 27 -15 54 -29 59 -31 112 -42 155 -33 25 5 31 11 28 28 -2 17 -18 28 -63
45 -120 46 -109 32 -101 120 4 42 10 80 14 84 4 3 43 16 87 28 44 11 86 24 93
29 9 5 5 29 -18 97 -56 162 -120 449 -120 538 0 59 -10 78 -36 72 -54 -14 -9
61 57 94 21 11 43 30 50 41 11 22 8 91 -5 122 -6 12 -4 17 7 17 32 0 28 40 -5
53 -14 5 -18 18 -18 52 0 25 -7 62 -15 82 -19 45 -19 43 9 43 28 0 43 -16 48
-49 5 -38 28 -39 28 -1 0 77 -63 128 -192 154 -90 19 -167 20 -223 5 -44 -12
-105 -67 -105 -96 0 -10 -9 -31 -20 -48 -30 -45 -41 -98 -49 -227 -7 -137 -21
-124 141 -138 59 -5 116 -14 126 -19 11 -6 22 -24 24 -40 4 -27 2 -30 -16 -25
-22 5 -48 -28 -99 -131 -59 -119 -90 -286 -62 -339 19 -36 19 -34 -10 -28 -20
3 -28 -2 -42 -27 -21 -36 -135 -88 -141 -64 -2 8 -12 11 -28 7 -15 -4 -24 -2
-24 6 0 25 23 51 75 85 62 39 73 64 57 128 -9 34 -8 43 3 50 23 12 19 47 -5
47 -17 0 -20 7 -20 38 0 22 -7 61 -15 88 -11 37 -12 50 -2 56 18 11 51 -16 57
-47 7 -42 30 -44 30 -3 0 102 -127 168 -325 168 -122 0 -172 -25 -196 -99 -6
-20 -18 -43 -25 -51 -22 -26 -43 -124 -50 -239 l-7 -109 69 -11 c38 -6 87 -11
109 -10 83 3 125 -21 125 -69 0 -21 -2 -23 -16 -11 -18 15 -13 21 -72 -80 -35
-60 -42 -67 -102 -91 l-65 -26 -43 32 c-23 18 -59 38 -80 45 -55 17 -238 23
-282 10 -42 -12 -100 -71 -100 -100 0 -10 -7 -25 -17 -32 -27 -23 -44 -77 -37
-115 3 -18 11 -34 18 -34 6 -1 -146 -59 -339 -131 -343 -127 -350 -129 -381
-114 -18 8 -37 15 -44 15 -7 0 -10 7 -6 16 4 9 11 35 17 59 10 38 14 42 52 51
l42 9 3 160 c3 205 13 253 54 280 42 27 55 67 33 101 -11 18 -23 24 -36 21
-12 -3 -19 0 -19 9 0 8 5 14 11 14 19 0 4 202 -21 295 -21 78 -77 225 -86 225
-3 0 -18 -10 -34 -22 -34 -25 -45 -20 -36 15 4 19 14 26 46 31 42 7 110 63
110 91 0 9 18 22 40 31 32 13 41 22 46 50 3 19 4 40 1 48 -3 8 2 16 14 19 15
4 19 14 19 47 0 41 -23 100 -39 100 -5 0 -12 12 -16 27 -10 42 -45 84 -81 99
-49 21 -160 25 -239 10z m1520 -1423 c-22 -75 -32 -208 -16 -217 6 -4 11 -15
11 -24 0 -12 -3 -13 -11 -5 -16 16 -37 5 -55 -28 -20 -40 -44 -38 -45 4 0 17
-4 41 -8 52 -5 11 -4 28 1 38 6 12 6 23 0 30 -5 7 -13 32 -16 57 -4 25 -9 57
-12 71 -4 20 0 28 15 32 15 3 21 -1 23 -16 5 -34 26 -31 30 4 3 27 9 34 48 49
25 9 47 15 48 14 2 -1 -4 -29 -13 -61z m-571 -249 c25 -4 35 -13 45 -39 15
-41 55 -72 107 -83 33 -6 40 -12 42 -35 4 -33 -6 -34 -42 -6 -15 12 -28 20
-30 18 -1 -2 -11 -23 -21 -47 -15 -34 -29 -49 -67 -68 -26 -13 -50 -24 -53
-24 -3 0 -5 16 -5 35 0 46 -44 96 -110 124 -66 29 -198 46 -275 36 -50 -6 -65
-13 -97 -44 -20 -21 -40 -50 -44 -66 -4 -16 -14 -37 -23 -46 -15 -16 -20 -15
-80 28 l-64 46 279 103 c154 57 302 112 329 123 l50 18 13 -33 c11 -26 22 -35
46 -40z m-830 -204 c14 0 36 4 49 9 21 8 36 2 105 -49 l80 -59 -8 -38 c-5 -21
-12 -82 -15 -135 l-7 -98 -105 -50 c-88 -41 -115 -50 -162 -50 -76 -1 -136
-29 -157 -74 -15 -30 -35 -43 -173 -108 -147 -70 -157 -74 -169 -56 -7 10 -24
18 -38 18 -32 0 -32 -2 19 314 l42 258 235 83 235 82 22 -24 c12 -12 33 -23
47 -23z m27 41 c-12 -8 -51 -4 -51 5 0 2 15 4 33 4 22 0 28 -3 18 -9z m740
-68 c6 -16 15 -36 20 -45 7 -14 3 -21 -20 -32 l-29 -15 -11 43 c-6 24 -13 51
-17 60 -5 12 0 16 20 16 20 0 29 -7 37 -27z m-1341 -57 c-21 -19 -60 -30 -60
-16 0 11 34 28 60 29 13 1 13 -1 0 -13z m1460 -13 c0 -5 -9 -42 -20 -83 -11
-41 -23 -121 -26 -177 -6 -90 -5 -103 9 -109 10 -3 17 -12 17 -19 0 -11 -4
-11 -22 -2 -33 18 -118 77 -118 83 0 3 10 18 21 34 22 29 22 52 3 118 -5 16
-2 22 10 22 24 0 20 41 -4 47 -33 9 -23 21 48 57 70 37 82 41 82 29z m-440
-314 c49 -11 60 -22 60 -57 0 -19 -4 -22 -19 -17 -16 5 -27 -7 -62 -65 -58
-99 -99 -222 -106 -324 -4 -57 -2 -85 6 -90 16 -11 13 -26 -4 -20 -8 4 -22 1
-30 -6 -16 -13 -157 -52 -163 -45 -3 2 10 12 29 22 18 10 46 31 62 46 27 26
29 32 22 75 -4 26 -7 64 -6 85 0 20 -4 37 -9 37 -6 0 -10 21 -10 48 -1 26 -7
65 -15 87 -8 22 -15 41 -15 43 0 1 8 2 18 2 25 0 42 -19 42 -47 0 -15 6 -23
16 -23 14 0 16 8 11 41 -9 64 -60 108 -157 134 l-45 13 85 40 c82 39 88 40
165 36 44 -3 100 -10 125 -15z m-738 -285 c-4 -48 -2 -56 14 -60 16 -4 19 -12
16 -44 -4 -43 23 -80 57 -80 11 0 23 -9 26 -21 14 -42 66 -89 106 -95 39 -7
59 -26 59 -59 0 -15 -3 -14 -30 2 -16 9 -30 21 -30 25 0 23 -20 3 -36 -36 -17
-42 -23 -46 -76 -61 l-57 -16 -41 30 c-49 35 -118 57 -214 67 l-68 7 6 96 c4
53 9 115 12 137 l6 42 126 60 c70 33 127 61 128 61 0 1 -1 -24 -4 -55z m-295
-40 c-3 -3 -12 -4 -19 -1 -8 3 -5 6 6 6 11 1 17 -2 13 -5z m-29 -35 l34 -14
-7 -80 c-10 -135 -17 -176 -29 -180 -6 -2 -24 -6 -40 -10 -36 -8 -83 -54 -92
-91 -4 -16 -15 -39 -25 -52 -10 -13 -21 -36 -24 -53 -8 -35 -19 -40 -147 -70
-77 -19 -97 -20 -140 -10 -27 6 -71 11 -97 11 -39 0 -60 8 -120 46 l-72 47
358 238 c197 132 360 238 363 236 3 -2 20 -10 38 -18z m-904 -394 c42 -31 76
-58 76 -60 0 -7 -303 -208 -321 -212 -15 -4 -18 4 -21 76 l-3 81 30 6 c17 3
45 12 62 20 l33 13 -15 42 c-20 55 -19 58 10 65 13 3 30 12 36 20 16 19 23 16
113 -51z m1359 -32 c-38 -125 -58 -333 -33 -348 25 -16 6 -22 -36 -11 l-47 12
-1 74 c-1 53 2 78 12 85 15 12 6 45 -13 45 -8 0 -15 19 -19 48 -4 26 -9 59
-12 73 -4 22 -1 27 20 31 21 4 25 1 28 -21 2 -16 10 -27 22 -29 16 -4 18 0 12
30 -6 33 -5 35 31 45 21 6 41 11 45 12 3 0 -1 -20 -9 -46z m-1182 -93 c54 -35
58 -40 37 -45 -207 -48 -324 -73 -326 -70 -3 3 218 155 225 155 1 0 30 -18 64
-40z m524 -72 c-4 -18 -8 -34 -9 -35 -1 -1 -33 6 -71 16 l-70 17 60 16 c93 25
98 24 90 -14z m-1048 -80 c-2 -13 -4 -3 -4 22 0 25 2 35 4 23 2 -13 2 -33 0
-45z m-42 -98 c-33 -22 -66 -40 -73 -40 -7 0 -24 -11 -38 -26 -14 -14 -76 -58
-137 -99 l-111 -75 -13 42 c-12 43 -7 57 23 58 22 0 64 53 64 81 0 35 19 42
125 44 59 1 89 6 115 20 86 48 119 44 45 -5z m1366 -47 c3 -5 9 -21 13 -36 6
-25 4 -28 -12 -22 -19 5 -44 -17 -79 -71 -11 -16 -12 -10 -7 36 11 121 11 120
46 109 17 -5 35 -12 39 -16z m-1807 -248 c-22 -17 -34 -19 -34 -6 0 5 8 12 18
14 32 9 36 7 16 -8z"/>
</g>
</svg>
