<?xml version="1.0" standalone="no"?>
<!DOCTYPE svg PUBLIC "-//W3C//DTD SVG 20010904//EN"
 "http://www.w3.org/TR/2001/REC-SVG-20010904/DTD/svg10.dtd">
<svg version="1.0" xmlns="http://www.w3.org/2000/svg"
 width="1280.000000pt" height="1280.000000pt" viewBox="0 0 1280.000000 1280.000000"
 preserveAspectRatio="xMidYMid meet">
<metadata>
Created by potrace 1.15, written by Peter Selinger 2001-2017
</metadata>
<g transform="translate(0.000000,1280.000000) scale(0.100000,-0.100000)"
fill="#000000" stroke="none">
<path d="M11648 5982 c-39 -43 -84 -104 -103 -141 -36 -71 -168 -262 -189
-273 -11 -6 -82 -15 -156 -19 -78 -4 -160 -14 -195 -24 -61 -18 -184 -75 -252
-118 -74 -46 -154 -88 -579 -300 -702 -350 -782 -388 -1061 -503 -45 -19 -101
-47 -125 -64 -25 -17 -117 -54 -219 -89 -207 -69 -219 -75 -219 -104 -1 -50
-41 -67 -164 -67 -77 0 -81 -1 -133 -40 -92 -70 -134 -84 -249 -85 l-101 0
-109 53 c-60 29 -163 80 -229 112 -66 33 -145 77 -175 100 -32 24 -81 49 -121
60 -44 13 -100 43 -165 87 -55 37 -132 80 -173 96 l-74 29 -174 -12 c-164 -11
-191 -10 -238 9 -11 5 -33 14 -48 20 -59 24 -195 25 -332 3 -72 -12 -155 -23
-186 -26 -31 -3 -89 -14 -130 -26 -63 -17 -103 -20 -270 -20 -193 0 -423 -22
-522 -50 -25 -7 -112 -10 -245 -7 -231 5 -346 24 -468 76 -38 16 -98 37 -134
46 -36 9 -115 41 -176 70 -129 62 -170 75 -242 75 -29 0 -69 7 -90 16 -49 21
-125 41 -187 49 -263 34 -343 49 -382 71 -27 15 -96 34 -200 54 -87 17 -214
44 -283 60 -69 16 -186 43 -260 60 -74 16 -184 41 -245 55 -60 14 -153 35
-205 46 -204 44 -429 90 -505 105 -44 8 -143 31 -220 50 -132 33 -140 34 -152
18 -11 -15 -13 -323 -11 -1626 3 -1431 5 -1609 18 -1623 16 -16 812 -215 859
-215 68 0 287 96 387 168 58 42 145 191 298 506 140 287 135 282 230 253 28
-9 110 -23 181 -31 72 -9 157 -21 190 -26 33 -5 94 -10 135 -10 62 0 97 -7
190 -39 306 -104 436 -183 617 -374 69 -71 73 -86 48 -157 -20 -57 -19 -106 3
-138 10 -15 30 -52 45 -83 63 -132 116 -174 233 -185 88 -8 114 -24 114 -69 0
-18 -5 -46 -10 -61 -16 -42 -14 -127 4 -163 17 -32 89 -91 112 -91 7 0 34 -11
61 -24 69 -35 116 -43 215 -38 115 6 138 -7 138 -77 0 -39 7 -59 39 -109 22
-33 52 -67 68 -75 42 -22 126 -37 203 -37 75 0 110 -19 110 -59 0 -26 54 -78
105 -102 30 -14 63 -19 135 -19 95 0 96 0 175 46 44 25 104 59 133 76 65 38
88 34 186 -26 123 -77 181 -99 241 -93 94 10 178 68 232 162 55 95 61 95 199
4 88 -58 142 -79 205 -79 62 0 106 18 172 70 64 51 103 104 126 171 24 73 36
78 119 51 140 -45 224 -21 335 98 115 122 129 208 58 374 -21 50 -42 102 -46
116 -4 14 -18 47 -32 73 -49 98 -1 115 98 35 107 -86 142 -97 308 -101 156 -4
160 -3 242 60 53 40 99 100 119 153 7 19 15 80 19 135 4 55 11 107 15 116 5
11 -1 19 -19 27 -20 9 -26 18 -23 39 2 22 20 36 98 82 53 31 127 78 166 104
95 64 215 107 452 162 109 25 225 52 258 60 34 8 94 18 133 21 l71 7 33 -35
c18 -20 79 -101 135 -181 120 -173 260 -354 322 -418 40 -41 58 -50 170 -87
128 -42 218 -62 278 -62 19 0 112 32 216 74 410 168 484 198 544 227 91 43
210 89 230 89 10 0 23 5 30 12 9 9 12 414 12 1759 0 961 -4 1750 -8 1753 -5 3
-20 -7 -34 -22z"/>
</g>
</svg>
