<?xml version="1.0" standalone="no"?>
<!DOCTYPE svg PUBLIC "-//W3C//DTD SVG 20010904//EN"
 "http://www.w3.org/TR/2001/REC-SVG-20010904/DTD/svg10.dtd">
<svg version="1.0" xmlns="http://www.w3.org/2000/svg"
 width="1274.000000pt" height="1280.000000pt" viewBox="0 0 1274.000000 1280.000000"
 preserveAspectRatio="xMidYMid meet">
<metadata>
Created by potrace 1.15, written by Peter Selinger 2001-2017
</metadata>
<g transform="translate(0.000000,1280.000000) scale(0.100000,-0.100000)"
fill="#000000" stroke="none">
<path d="M5585 12782 c-64 -22 -109 -54 -145 -104 -61 -84 -61 -81 -58 -679 3
-543 3 -544 26 -590 31 -64 85 -117 151 -148 56 -26 58 -26 359 -31 l302 -5
94 -148 94 -148 94 148 95 148 304 5 304 5 57 28 c65 32 121 89 152 156 21 45
21 55 21 596 l0 550 -24 53 c-31 69 -112 143 -181 165 -47 15 -125 17 -824 17
-705 -1 -775 -2 -821 -18z"/>
<path d="M2469 11557 c-20 -8 -52 -23 -70 -35 -19 -11 -280 -268 -580 -569
-606 -607 -584 -581 -584 -713 1 -127 9 -139 428 -556 422 -421 420 -419 552
-419 124 0 146 14 386 252 113 112 212 203 220 203 8 0 84 -16 169 -35 84 -20
157 -34 160 -33 4 2 -10 79 -32 173 l-38 169 204 206 c235 236 259 271 259
390 0 129 -7 138 -426 556 -287 286 -383 376 -422 395 -60 28 -171 36 -226 16z"/>
<path d="M10080 11488 c-50 -19 -91 -56 -436 -402 -429 -429 -428 -427 -428
-556 0 -122 14 -144 254 -385 l209 -210 -39 -170 c-22 -93 -37 -171 -35 -173
2 -2 75 12 162 32 87 20 165 36 173 36 7 0 109 -94 225 -209 188 -186 216
-210 268 -230 69 -25 136 -27 208 -4 51 15 78 40 446 406 437 435 435 432 435
559 1 133 9 124 -609 739 -516 515 -551 548 -606 568 -73 27 -155 27 -227 -1z"/>
<path d="M6314 10900 c-102 -21 -203 -102 -247 -198 -17 -37 -22 -66 -22 -137
0 -78 4 -97 28 -147 35 -72 110 -140 185 -168 45 -17 74 -21 137 -18 133 5
229 68 287 186 29 59 33 76 33 147 0 67 -5 90 -29 142 -64 140 -226 223 -372
193z"/>
<path d="M6205 10166 c-193 -38 -337 -139 -419 -295 -69 -132 -76 -181 -76
-551 l0 -327 88 17 c230 47 491 66 707 50 146 -10 415 -49 458 -65 16 -7 17
13 17 328 0 269 -3 349 -16 404 -49 214 -197 372 -400 428 -82 22 -271 28
-359 11z"/>
<path d="M3304 9749 c-75 -28 -137 -88 -176 -167 -29 -59 -33 -76 -33 -147 1
-65 6 -91 27 -136 105 -228 395 -274 561 -89 152 169 98 434 -108 531 -51 25
-72 29 -140 28 -55 0 -96 -6 -131 -20z"/>
<path d="M9247 9680 c-59 -15 -129 -55 -169 -97 -92 -96 -121 -256 -67 -373
32 -69 92 -131 161 -167 47 -25 64 -28 148 -28 84 0 102 3 151 28 66 32 132
99 162 165 18 38 22 66 22 142 0 84 -3 101 -28 148 -58 111 -160 179 -279 187
-34 2 -80 0 -101 -5z"/>
<path d="M4045 9354 c-174 -44 -322 -148 -430 -299 -150 -211 -163 -408 -43
-638 25 -49 85 -115 283 -315 l250 -253 95 127 c106 143 336 381 470 488 75
60 245 177 338 232 l32 20 -262 260 c-274 270 -317 304 -446 352 -51 19 -91
25 -167 28 -55 1 -109 1 -120 -2z"/>
<path d="M8535 9283 c-100 -13 -225 -68 -315 -139 -30 -23 -147 -134 -258
-247 l-204 -204 114 -75 c290 -191 551 -446 748 -730 30 -43 57 -78 60 -78 13
0 418 417 447 460 186 276 161 556 -72 795 -119 122 -238 190 -377 214 -64 11
-86 12 -143 4z"/>
<path d="M6164 8990 c-626 -53 -1216 -328 -1659 -774 -208 -209 -359 -418
-489 -675 -208 -413 -298 -825 -283 -1286 14 -400 99 -734 278 -1095 310 -621
852 -1097 1509 -1323 916 -315 1932 -106 2648 546 1121 1020 1163 2766 92
3837 -367 367 -842 623 -1345 725 -215 44 -539 63 -751 45z"/>
<path d="M237 7539 c-87 -21 -163 -82 -208 -169 l-24 -45 0 -805 0 -805 28
-57 c34 -69 91 -121 164 -148 51 -19 78 -20 588 -20 515 0 536 1 589 21 67 25
133 86 166 154 25 49 25 54 28 357 l3 306 149 94 c82 51 146 96 142 100 -4 4
-70 47 -147 96 l-140 88 -5 305 c-5 284 -6 307 -26 350 -31 67 -87 124 -152
156 l-57 28 -530 2 c-291 1 -547 -3 -568 -8z"/>
<path d="M11343 7300 c-69 -35 -116 -82 -147 -149 -20 -43 -21 -66 -24 -351
l-3 -305 -150 -94 c-82 -52 -149 -95 -149 -97 0 -1 67 -44 149 -95 l150 -94 3
-305 c3 -285 4 -308 24 -351 31 -67 78 -114 146 -149 l61 -30 546 0 c495 0
551 2 595 17 66 24 129 82 163 151 l28 57 0 800 c0 796 0 800 -21 846 -29 63
-83 120 -141 149 l-48 25 -560 3 -561 2 -61 -30z"/>
<path d="M3125 7039 c-196 -43 -321 -134 -396 -284 -48 -98 -69 -190 -69 -313
0 -276 117 -486 330 -590 141 -69 173 -75 459 -80 l254 -4 -7 49 c-4 26 -14
98 -23 158 -11 74 -16 183 -16 330 0 284 13 389 90 723 l5 22 -293 -1 c-162
-1 -312 -5 -334 -10z"/>
<path d="M9030 6944 c0 -3 9 -50 20 -104 47 -230 64 -576 40 -795 -9 -80 -40
-269 -57 -348 l-6 -29 269 4 c246 4 275 7 339 27 229 75 375 222 431 436 25
95 25 294 1 385 -46 169 -141 292 -281 360 -125 61 -186 70 -492 70 -145 0
-264 -3 -264 -6z"/>
<path d="M2149 6787 c-130 -55 -201 -149 -215 -285 -15 -141 65 -275 201 -339
50 -23 73 -28 140 -28 67 0 89 5 137 28 71 35 129 91 165 159 25 47 28 64 28
148 0 84 -3 102 -28 151 -32 67 -100 132 -165 162 -73 32 -192 34 -263 4z"/>
<path d="M10346 6655 c-125 -51 -208 -175 -208 -309 -1 -139 67 -248 190 -308
59 -29 76 -33 147 -33 66 1 90 5 140 28 220 102 267 394 88 557 -99 91 -235
116 -357 65z"/>
<path d="M3824 4758 c-129 -130 -214 -225 -237 -263 -113 -190 -121 -409 -20
-585 44 -76 124 -170 192 -227 193 -159 412 -195 619 -102 101 45 175 105 360
291 l172 174 -73 51 c-289 200 -545 462 -735 751 -40 61 -75 112 -76 112 -1 0
-92 -91 -202 -202z"/>
<path d="M8633 4817 c-98 -146 -187 -252 -332 -398 -147 -146 -250 -232 -403
-336 -54 -36 -98 -68 -98 -72 0 -4 98 -104 218 -223 208 -206 221 -217 312
-262 166 -81 302 -94 451 -42 133 46 287 174 375 311 127 197 132 394 17 605
-28 50 -86 115 -257 287 l-221 222 -62 -92z"/>
<path d="M3352 3800 c-61 -13 -139 -58 -179 -105 -125 -145 -118 -339 18 -473
88 -87 234 -116 353 -72 73 28 148 95 184 165 24 44 27 61 27 150 0 86 -3 107
-25 150 -66 136 -230 216 -378 185z"/>
<path d="M9223 3706 c-132 -43 -217 -138 -242 -268 -27 -147 51 -298 188 -365
49 -24 68 -28 146 -28 78 0 97 4 146 28 172 84 240 288 154 463 -66 135 -252
216 -392 170z"/>
<path d="M5710 3434 c0 -294 7 -337 73 -473 76 -156 214 -264 392 -307 100
-24 277 -22 376 4 162 43 288 138 357 269 63 119 72 183 72 490 0 150 -2 273
-5 273 -3 0 -65 -11 -138 -24 -368 -68 -728 -61 -1099 20 l-28 6 0 -258z"/>
<path d="M2143 3570 c-22 -5 -58 -18 -80 -29 -21 -11 -205 -187 -419 -403
-426 -428 -420 -419 -418 -553 1 -127 -12 -111 593 -717 613 -614 596 -600
731 -600 130 0 137 5 553 420 415 415 427 430 427 552 0 127 -9 140 -248 382
l-214 216 40 174 c21 95 38 174 37 176 -1 1 -80 -16 -175 -38 l-174 -41 -210
210 c-224 223 -253 244 -351 254 -27 3 -69 2 -92 -3z"/>
<path d="M10482 3478 c-29 -4 -72 -18 -95 -29 -24 -13 -129 -108 -247 -225
l-205 -203 -170 38 c-94 21 -171 35 -172 32 -2 -3 15 -80 35 -171 l39 -165
-207 -210 c-240 -245 -255 -267 -254 -390 0 -67 4 -88 26 -130 19 -36 133
-156 410 -431 426 -424 420 -420 549 -418 123 1 113 -8 730 611 618 620 589
584 589 723 0 123 -12 137 -427 551 -244 244 -383 374 -412 389 -56 28 -122
38 -189 28z"/>
<path d="M6287 2580 c-94 -24 -176 -90 -224 -182 -25 -47 -28 -64 -28 -148 0
-84 3 -102 28 -152 31 -64 95 -125 165 -160 39 -19 63 -23 137 -23 76 0 99 4
145 26 218 103 264 389 89 556 -74 70 -214 107 -312 83z"/>
<path d="M6291 1720 l-95 -150 -280 0 c-318 0 -360 -7 -441 -68 -28 -22 -61
-60 -79 -92 l-31 -55 -3 -558 -3 -559 24 -52 c33 -73 79 -121 145 -153 l57
-28 805 0 805 0 50 27 c65 34 127 101 151 164 18 46 19 82 19 594 l0 545 -28
57 c-32 65 -89 121 -156 152 -43 20 -65 21 -351 24 l-305 4 -82 131 c-45 73
-88 140 -95 150 -12 15 -23 1 -107 -133z"/>
</g>
</svg>
