<?xml version="1.0" standalone="no"?>
<!DOCTYPE svg PUBLIC "-//W3C//DTD SVG 20010904//EN"
 "http://www.w3.org/TR/2001/REC-SVG-20010904/DTD/svg10.dtd">
<svg version="1.0" xmlns="http://www.w3.org/2000/svg"
 width="1280.000000pt" height="905.000000pt" viewBox="0 0 1280.000000 905.000000"
 preserveAspectRatio="xMidYMid meet">
<metadata>
Created by potrace 1.15, written by Peter Selinger 2001-2017
</metadata>
<g transform="translate(0.000000,905.000000) scale(0.100000,-0.100000)"
fill="#000000" stroke="none">
<path d="M6523 8152 c-8 -5 -15 -45 -18 -112 -3 -57 -10 -142 -15 -189 -6 -46
-11 -155 -12 -243 -1 -87 -4 -158 -9 -158 -4 0 -26 -16 -49 -35 -49 -41 -67
-44 -79 -12 -8 23 1 206 14 265 7 30 6 32 -21 32 -19 0 -39 10 -56 29 -27 29
-118 61 -172 61 -93 0 -167 -115 -182 -287 -6 -65 -11 -80 -33 -99 -34 -31
-59 -30 -71 2 -14 35 -13 182 2 243 14 63 2 81 -53 81 -46 0 -62 -20 -77 -95
-13 -62 -71 -202 -102 -245 -18 -25 -25 -29 -31 -18 -16 28 -21 166 -10 278
12 129 8 140 -55 140 -17 0 -36 -6 -42 -12 -17 -22 -35 -226 -28 -317 11 -131
30 -155 128 -167 70 -8 90 3 121 66 l25 51 22 -40 c40 -69 109 -84 179 -38
l39 26 18 -21 c31 -34 70 -48 131 -48 63 0 91 14 137 65 24 27 27 28 37 12 16
-27 64 -47 115 -47 40 0 51 5 79 35 l33 34 6 -24 c4 -16 25 -35 59 -55 67 -38
120 -40 171 -5 l38 26 36 -23 c66 -41 164 -25 220 35 l24 25 32 -35 c45 -49
105 -56 179 -19 54 26 107 68 107 83 0 4 -4 14 -9 21 -7 11 -23 7 -82 -18 -53
-24 -77 -30 -88 -23 -23 14 -34 138 -24 259 l8 99 65 10 c69 11 82 25 57 60
-10 12 -31 21 -63 24 l-49 6 0 40 c0 22 4 50 8 62 7 19 4 25 -18 33 -40 15
-80 12 -98 -8 -10 -11 -17 -40 -19 -77 l-3 -60 -60 -10 c-91 -15 -86 -53 11
-73 l37 -8 -1 -158 -1 -159 -68 -28 c-37 -16 -73 -29 -80 -29 -22 0 -27 52
-16 195 8 103 7 142 -1 147 -18 12 -71 9 -90 -5 -20 -15 -34 -113 -35 -238
l-1 -65 -45 -22 c-59 -29 -73 -28 -82 6 -21 75 -1 526 31 693 7 36 10 71 8 77
-4 14 -109 16 -129 4z m-311 -459 c14 -16 14 -28 3 -105 -14 -94 -47 -167 -96
-214 -28 -27 -30 -27 -47 -11 -25 26 -22 143 7 229 33 98 94 144 133 101z"/>
<path d="M4813 8101 c-111 -51 -216 -273 -217 -461 0 -75 3 -92 30 -145 33
-65 56 -85 186 -154 100 -54 156 -64 238 -45 46 11 72 12 99 4 57 -16 141 -12
188 9 51 24 75 59 71 103 -4 48 -38 50 -88 4 -30 -27 -49 -36 -75 -36 -19 0
-35 2 -35 4 0 2 15 27 34 55 87 128 97 317 24 454 -25 47 -47 70 -112 117 -90
66 -195 110 -259 110 -23 0 -61 -9 -84 -19z m268 -118 c47 -24 58 -36 84 -88
28 -56 30 -68 30 -170 0 -128 -23 -212 -81 -293 -1 -2 -29 4 -62 12 -78 21
-118 20 -169 -3 -40 -19 -43 -19 -74 -2 -57 31 -71 71 -66 186 13 291 161 447
338 358z"/>
<path d="M6799 7935 c-56 -38 -65 -80 -24 -120 33 -34 87 -34 121 1 22 21 25
31 19 62 -15 83 -52 101 -116 57z"/>
<path d="M7662 7803 c-5 -10 -13 -40 -17 -67 -17 -117 -101 -322 -128 -313 -9
3 -12 49 -12 157 -1 148 -2 153 -25 172 -33 27 -72 20 -89 -17 -31 -65 -22
-307 14 -362 18 -27 83 -48 120 -39 14 4 47 26 72 49 l46 42 -8 -115 c-14
-226 -19 -233 -127 -177 -74 38 -128 48 -128 24 0 -22 51 -64 110 -91 63 -30
122 -33 178 -11 62 25 72 53 77 217 6 148 22 477 26 494 4 24 -4 34 -38 43
-52 15 -61 14 -71 -6z"/>
<path d="M2490 7535 c-22 -12 -25 -20 -26 -77 -1 -35 -6 -112 -13 -173 -35
-350 -39 -674 -7 -749 28 -68 158 -127 234 -107 22 6 51 20 65 31 25 20 25 20
69 0 55 -25 165 -27 214 -4 19 9 48 36 65 60 16 24 32 44 33 44 2 0 19 -15 38
-34 65 -65 158 -71 223 -14 35 30 35 30 35 7 0 -34 11 -46 54 -64 55 -23 83
-13 95 33 5 20 22 84 36 142 33 127 96 266 125 275 44 14 50 -7 50 -170 0
-141 2 -154 23 -186 59 -89 201 -91 295 -6 25 23 30 75 8 83 -8 3 -37 -6 -65
-20 -103 -53 -115 -35 -106 148 6 120 4 134 -14 162 -35 57 -137 114 -203 114
-20 0 -97 -71 -126 -115 -11 -17 -12 -9 -7 54 7 90 -1 101 -66 101 -72 0 -76
-10 -88 -228 l-10 -183 -43 -39 c-24 -21 -58 -47 -76 -57 -33 -18 -34 -18 -49
2 -12 16 -14 42 -10 145 3 69 12 148 20 177 16 59 9 73 -35 73 -19 0 -38 11
-60 36 -61 66 -233 96 -299 51 -55 -37 -97 -102 -124 -192 -22 -71 -26 -102
-24 -191 l2 -106 -29 -18 c-16 -10 -41 -20 -56 -24 -44 -10 -51 18 -56 204 -5
197 21 546 55 719 15 80 15 85 -3 98 -23 17 -112 16 -144 -2z m595 -585 c16
-18 17 -27 5 -117 -16 -121 -38 -182 -93 -253 -56 -72 -91 -79 -106 -23 -42
149 52 413 146 413 17 0 38 -9 48 -20z"/>
<path d="M1670 7490 c-8 -5 -49 -17 -90 -26 -132 -28 -220 -56 -245 -80 -32
-29 -31 -37 3 -75 l28 -32 55 16 c71 20 208 42 216 34 3 -4 1 -95 -5 -204 -31
-533 -34 -622 -28 -646 3 -15 16 -31 27 -38 21 -11 104 -5 128 10 9 6 14 54
17 167 2 87 6 168 9 180 4 18 14 22 80 28 228 21 425 122 471 242 22 57 15
153 -15 212 -27 54 -85 119 -123 138 -59 30 -186 55 -335 64 -83 6 -158 12
-165 15 -7 3 -20 0 -28 -5z m325 -155 c114 -18 153 -31 188 -63 58 -55 15
-156 -103 -245 -63 -48 -191 -97 -251 -97 -28 0 -29 1 -29 49 0 83 20 315 30
338 5 13 20 23 37 26 15 2 30 5 33 5 3 1 46 -5 95 -13z"/>
<path d="M8375 7219 c-109 -12 -136 -19 -142 -35 -8 -22 24 -62 64 -79 l36
-15 -7 -87 c-9 -119 -13 -131 -44 -135 -42 -5 -42 -49 -1 -90 l32 -32 -6 -153
c-4 -83 -8 -158 -9 -165 -5 -20 65 -33 109 -20 l38 11 -3 98 c-2 54 1 129 5
168 l8 69 70 12 c39 6 119 18 179 25 127 15 154 31 123 73 -20 27 -82 35 -213
28 -66 -4 -128 -6 -137 -4 -14 3 -17 17 -17 90 0 48 4 93 9 100 9 16 138 37
288 47 56 4 110 13 119 20 16 12 16 14 -2 46 l-20 34 -205 1 c-112 1 -235 -2
-274 -7z"/>
<path d="M8999 7055 c-39 -25 -49 -43 -49 -79 0 -62 104 -90 150 -41 18 19 22
31 17 61 -8 49 -33 84 -60 84 -12 0 -39 -11 -58 -25z"/>
<path d="M10931 6907 c-71 -36 -111 -138 -111 -285 l0 -82 -36 -17 c-62 -30
-69 -16 -69 126 l0 122 -41 39 c-44 41 -110 66 -150 56 -13 -4 -40 -28 -60
-54 l-37 -47 6 56 c3 31 2 60 -1 66 -10 14 -54 23 -79 17 -31 -9 -41 -49 -46
-201 -5 -130 -5 -132 -33 -158 -40 -35 -83 -58 -100 -51 -23 9 -18 200 7 296
3 9 -8 18 -27 25 -17 5 -45 22 -62 37 -43 36 -165 64 -207 48 -84 -32 -145
-155 -145 -293 0 -67 0 -67 -36 -84 -26 -13 -39 -15 -52 -6 -15 9 -17 26 -14
117 3 126 -8 159 -69 198 -84 55 -144 46 -189 -26 -12 -20 -24 -36 -27 -36 -3
0 -3 24 0 53 7 66 -1 79 -47 80 -62 2 -69 -13 -77 -180 -4 -81 -8 -160 -8
-175 -1 -22 -11 -31 -68 -57 -47 -23 -70 -28 -77 -21 -12 12 -14 121 -6 260
l5 85 -50 0 c-45 0 -51 -3 -64 -29 -8 -18 -15 -78 -18 -155 -6 -140 5 -186 50
-216 56 -36 146 -31 197 11 16 14 30 21 30 15 0 -14 54 -41 83 -41 28 0 33 10
66 145 12 50 37 119 54 155 27 54 36 65 57 65 l25 0 5 -131 c5 -141 17 -176
66 -194 39 -15 106 -11 143 9 l35 18 23 -28 c28 -33 97 -51 162 -42 36 5 53
15 87 51 l44 45 20 -26 c24 -30 88 -51 130 -42 16 3 40 18 54 32 l26 26 0 -26
c0 -30 46 -60 83 -55 27 4 39 30 66 143 12 50 36 119 54 155 27 54 36 65 57
65 l25 0 5 -137 c5 -133 6 -139 32 -164 41 -41 121 -45 184 -10 45 25 47 26
60 8 23 -34 113 -66 184 -66 52 -1 76 5 120 27 30 16 69 41 85 57 l30 29 27
-33 c41 -51 130 -90 189 -83 120 14 270 140 238 199 -14 27 -30 22 -71 -21
-44 -47 -152 -101 -201 -101 -46 0 -67 22 -67 70 l0 38 65 12 c190 36 247 190
102 277 -58 35 -129 56 -173 51 -38 -4 -89 -72 -103 -138 -6 -28 -11 -85 -11
-127 0 -87 1 -85 -100 -137 -73 -37 -159 -61 -189 -51 -30 9 -44 66 -39 164 4
94 37 183 69 189 15 3 17 -10 20 -88 4 -82 6 -94 28 -111 26 -21 81 -25 99 -7
17 17 15 116 -4 171 -16 47 -66 101 -108 116 -44 17 -101 20 -125 8z m599 -92
c34 -40 -20 -135 -88 -154 -31 -9 -32 -8 -32 18 0 37 26 110 47 133 20 22 56
23 73 3z m-1496 -11 c9 -9 14 -25 11 -37 -3 -12 -10 -53 -15 -91 -6 -38 -18
-83 -27 -100 -23 -46 -82 -116 -98 -116 -63 0 -34 261 36 336 26 28 70 31 93
8z"/>
<path d="M3240 6042 c66 -96 370 -506 433 -586 98 -122 217 -248 317 -333 84
-73 76 -76 99 38 l12 57 162 -82 c171 -87 311 -142 440 -172 42 -9 77 -20 77
-23 0 -3 -28 -22 -63 -43 -206 -121 -426 -329 -515 -488 -50 -89 -64 -139 -71
-248 l-6 -103 -100 -38 c-96 -36 -295 -131 -362 -172 l-31 -20 -19 82 -18 82
-63 -52 c-144 -120 -290 -284 -463 -521 -57 -78 -152 -207 -210 -286 -59 -79
-103 -144 -98 -144 12 0 66 34 163 104 210 151 531 260 874 297 61 7 112 15
112 18 0 4 -25 57 -55 118 -30 62 -55 114 -55 117 0 8 150 77 235 108 44 16
116 38 161 47 l80 18 30 -24 c225 -186 585 -310 1069 -369 179 -21 638 -30
850 -15 561 39 1154 171 1619 359 l99 40 73 -36 c41 -20 74 -39 74 -42 0 -3
-48 -31 -106 -63 l-105 -58 -92 11 c-51 7 -104 10 -117 7 -18 -3 -13 -5 15 -6
22 -1 67 -8 100 -15 l60 -12 -85 -44 c-117 -59 -346 -156 -522 -221 -176 -64
-204 -97 -35 -40 157 54 366 137 542 216 148 66 151 67 195 56 25 -7 92 -35
150 -62 l106 -50 -58 -117 c-41 -82 -54 -118 -45 -123 6 -3 64 -11 127 -18
216 -22 464 -90 645 -175 50 -23 148 -82 218 -130 154 -105 172 -113 134 -63
-15 20 -102 139 -193 264 -189 259 -286 381 -394 496 -73 79 -216 207 -230
207 -4 0 -12 -31 -19 -70 -7 -38 -17 -72 -21 -75 -5 -3 -46 14 -90 38 l-81 44
103 63 c382 234 650 490 768 734 56 116 72 184 74 309 l2 108 87 48 87 49 9
-36 c6 -21 13 -56 17 -79 4 -24 9 -43 12 -43 2 0 42 32 88 71 141 120 295 299
504 589 57 80 137 189 177 243 41 53 69 97 64 97 -6 0 -68 -39 -138 -87 -69
-47 -165 -105 -212 -129 -194 -95 -466 -168 -714 -190 -42 -3 -79 -10 -82 -14
-2 -4 20 -57 51 -119 30 -61 53 -115 50 -119 -3 -5 -27 -19 -55 -31 l-50 -24
-28 34 c-176 214 -486 344 -974 406 -189 24 -765 24 -999 0 -807 -84 -1588
-303 -2122 -595 l-106 -59 -79 23 c-160 46 -318 118 -504 230 -59 35 -109 64
-113 64 -3 0 -13 -25 -21 -55 -9 -30 -19 -55 -22 -55 -14 0 -164 144 -249 238
-77 85 -383 457 -434 526 -7 11 17 -5 55 -36 188 -151 381 -242 715 -338 80
-23 147 -43 149 -45 2 -2 -15 -32 -38 -65 l-40 -61 66 -31 c141 -64 353 -119
447 -117 32 1 23 4 -40 15 -44 7 -114 25 -155 40 -98 34 -269 115 -269 126 0
4 11 25 24 46 25 41 89 182 84 187 -2 1 -48 8 -103 14 -376 45 -630 131 -878
299 -77 51 -147 97 -156 100 -14 5 -14 4 -1 -16z m6698 -419 c-217 -271 -340
-413 -463 -532 l-128 -124 -19 62 c-10 34 -22 60 -26 58 -4 -2 -42 -25 -84
-50 -43 -26 -82 -48 -88 -49 -6 -2 -22 24 -36 57 -41 95 -42 88 30 119 36 16
66 30 66 32 0 2 -18 31 -40 66 l-40 62 164 47 c328 95 525 189 704 335 30 24
56 44 58 44 3 0 -41 -57 -98 -127z m-2243 -123 c481 -50 869 -191 1054 -384
19 -20 33 -38 30 -40 -2 -3 -47 -11 -99 -19 -60 -10 -80 -15 -55 -16 22 0 69
4 105 10 l65 10 26 -31 c36 -42 82 -137 76 -153 -7 -17 -120 -60 -257 -97 -58
-16 -94 -29 -80 -29 28 -1 231 49 299 74 30 10 48 12 55 5 5 -5 9 -53 9 -107
-3 -300 -230 -596 -692 -906 -47 -32 -89 -57 -96 -57 -12 0 -142 54 -151 62
-3 4 4 9 15 13 45 14 175 78 166 82 -6 1 -57 -17 -114 -41 l-103 -44 -57 19
c-77 27 -236 66 -296 74 -27 3 9 -10 80 -28 124 -33 211 -62 228 -77 10 -8
-303 -112 -473 -155 -790 -204 -1676 -215 -2316 -31 -231 66 -419 164 -533
276 -67 66 -137 179 -127 205 2 7 0 15 -5 17 -14 5 -13 145 1 198 51 189 237
388 540 581 129 81 399 215 570 282 428 167 949 281 1445 316 151 11 545 6
690 -9z m-3530 -1517 c14 -32 43 -80 64 -108 l39 -51 -88 -12 c-48 -6 -118
-21 -156 -33 -78 -24 -274 -98 -274 -104 0 -3 18 -33 41 -67 l40 -63 -63 -18
c-383 -107 -610 -209 -790 -353 -37 -30 -69 -54 -72 -54 -7 0 273 347 382 473
47 54 135 145 196 203 l111 106 17 -57 c9 -31 19 -59 21 -61 2 -3 45 20 95 50
114 70 362 194 409 206 1 0 13 -26 28 -57z m4067 -326 c40 -24 85 -51 100 -61
l27 -18 19 62 18 61 85 -74 c103 -91 234 -238 455 -512 115 -143 154 -198 124
-172 -82 69 -236 166 -334 212 -106 50 -331 129 -468 165 -49 13 -88 28 -88
34 0 6 16 35 36 65 20 29 32 57 27 61 -11 11 -182 78 -245 97 l-51 15 99 54
c54 29 104 54 111 54 7 0 45 -19 85 -43z"/>
<path d="M7625 5123 c-41 -11 -46 -23 -39 -92 l6 -67 -56 -17 c-35 -11 -56
-24 -56 -33 0 -18 40 -34 85 -34 39 0 36 7 60 -140 9 -52 18 -107 21 -121 5
-23 -1 -31 -55 -67 -83 -55 -143 -77 -170 -63 -48 26 -75 248 -37 306 9 14 20
25 24 25 4 0 15 -32 24 -71 24 -98 39 -119 87 -119 51 0 65 18 59 78 -7 74
-51 140 -112 168 -90 42 -155 29 -199 -40 -15 -24 -27 -57 -27 -75 l0 -32 -33
34 c-39 42 -114 67 -198 67 -50 0 -60 -3 -78 -26 -32 -41 -44 -100 -38 -189 8
-109 30 -178 68 -209 31 -26 114 -56 156 -56 33 0 104 35 151 75 39 34 40 35
76 20 20 -9 62 -18 94 -21 69 -8 128 14 199 72 l43 35 29 -20 c45 -32 118 -29
167 8 58 42 96 87 92 107 -5 29 -22 26 -84 -16 -32 -22 -67 -40 -76 -40 -24 0
-52 95 -73 243 l-12 88 26 13 c14 7 43 19 64 25 43 14 47 34 12 57 -17 11 -35
14 -64 9 -47 -8 -52 -2 -54 68 -2 50 -3 52 -32 54 -17 0 -39 -1 -50 -4z m-520
-367 c44 -32 14 -120 -54 -159 l-31 -19 0 55 c0 63 13 106 37 125 21 15 25 15
48 -2z m150 -202 c6 -27 2 -34 -31 -64 -50 -43 -119 -73 -150 -66 -35 9 -63
96 -31 96 6 0 40 13 75 30 48 23 68 39 90 73 l27 45 6 -42 c4 -22 10 -55 14
-72z"/>
<path d="M6717 4996 c-51 -47 -47 -104 7 -130 47 -22 63 -20 97 13 33 33 36
56 15 106 -14 31 -19 35 -54 35 -27 0 -47 -7 -65 -24z"/>
<path d="M5685 4882 c-95 -16 -126 -26 -230 -78 -96 -47 -121 -64 -123 -82 -4
-27 14 -52 36 -52 8 0 55 16 103 35 49 19 93 35 98 35 5 0 14 -39 21 -87 6
-49 22 -164 35 -258 13 -93 27 -194 30 -223 9 -72 31 -97 77 -88 70 13 71 16
48 150 -27 160 -29 150 32 165 90 20 197 79 260 141 l57 58 6 -37 c37 -225 67
-357 82 -369 15 -11 78 -8 92 4 3 2 0 45 -6 96 -8 71 -8 106 3 155 18 89 33
112 34 52 0 -90 45 -186 105 -225 70 -46 189 -33 238 26 28 33 33 44 42 111 4
36 11 49 31 58 30 13 25 26 58 -154 35 -190 35 -202 -7 -210 -18 -4 -45 -2
-60 4 -60 23 -95 -1 -57 -39 33 -33 114 -51 172 -39 68 15 98 45 98 100 0 57
-36 255 -68 369 -18 66 -26 121 -26 178 -1 98 -15 118 -76 107 -56 -10 -60
-19 -44 -109 12 -70 12 -82 -1 -103 -17 -25 -35 -31 -35 -10 0 35 -53 88 -124
122 -100 48 -138 47 -185 -4 -24 -26 -48 -40 -74 -45 -27 -5 -43 -15 -56 -37
-21 -35 -26 -31 -36 28 -4 24 -10 45 -14 47 -4 3 -23 1 -43 -3 l-36 -8 -5 44
c-6 57 -50 119 -111 157 -40 25 -57 29 -138 32 -57 2 -136 -4 -203 -14z m290
-96 c50 -21 61 -48 40 -102 -28 -75 -85 -136 -163 -177 -84 -44 -98 -46 -105
-9 -17 85 -29 264 -20 273 29 29 192 38 248 15z m570 -185 c3 -16 24 -50 46
-74 42 -49 47 -73 28 -142 -30 -108 -109 -98 -144 17 -19 64 -19 102 0 163 20
70 58 89 70 36z"/>
<path d="M8498 4743 c6 -2 18 -2 25 0 6 3 1 5 -13 5 -14 0 -19 -2 -12 -5z"/>
<path d="M658 5425 c-88 -36 -171 -105 -202 -167 -14 -28 -26 -61 -26 -72 0
-33 55 -141 82 -162 33 -26 158 -67 288 -94 105 -22 135 -34 124 -51 -12 -20
-90 -51 -161 -65 -160 -30 -284 -11 -291 46 -5 34 -21 52 -46 48 -25 -4 -36
-42 -23 -80 44 -131 386 -162 550 -50 64 43 85 111 51 161 -27 38 -128 77
-292 112 -85 18 -161 38 -170 45 -14 10 -14 17 -3 55 25 85 185 205 263 197
29 -3 35 -8 46 -43 19 -60 82 -139 114 -143 37 -4 54 28 39 77 -13 44 -110
165 -154 192 -44 26 -117 24 -189 -6z"/>
<path d="M1164 5300 c-15 -5 -20 -20 -24 -66 l-5 -59 -54 -10 c-30 -6 -56 -15
-58 -22 -5 -13 29 -34 71 -42 l28 -6 -1 -125 c-1 -153 8 -196 50 -234 28 -25
38 -28 78 -24 63 7 151 61 151 94 0 13 -2 24 -5 24 -2 0 -34 -12 -69 -27 -95
-39 -97 -36 -94 146 l3 146 58 9 c43 7 57 13 57 26 0 25 -31 48 -70 52 -37 3
-39 8 -29 83 4 27 1 30 -32 35 -20 4 -44 3 -55 0z"/>
<path d="M2187 5299 c-12 -7 -17 -23 -17 -57 0 -26 -4 -52 -8 -59 -4 -6 -28
-14 -55 -18 -26 -4 -50 -11 -53 -17 -10 -16 18 -38 57 -44 l39 -7 0 -129 c0
-84 -4 -127 -10 -123 -6 3 -27 -7 -47 -24 -43 -35 -59 -38 -71 -13 -9 18 0
192 12 229 6 19 3 23 -21 29 -15 4 -41 17 -56 30 -32 27 -86 44 -139 44 -81 0
-147 -103 -156 -241 -8 -140 29 -189 142 -189 56 0 61 2 97 40 l38 40 27 -25
c52 -48 130 -41 162 15 19 33 32 39 32 14 0 -9 15 -31 34 -50 26 -26 42 -34
70 -34 40 0 107 30 144 63 l22 21 28 -26 c41 -39 92 -61 139 -60 49 0 157 54
180 89 20 29 29 29 37 -2 3 -13 23 -37 43 -52 29 -23 47 -28 90 -28 51 0 57 3
90 39 l36 39 -7 -104 c-4 -57 -12 -121 -17 -141 -8 -32 -14 -38 -37 -38 -15 0
-51 11 -80 25 -59 27 -77 30 -87 15 -11 -17 16 -41 78 -71 107 -50 188 -48
224 8 16 24 19 62 25 317 4 199 3 295 -4 303 -15 18 -77 17 -84 -2 -5 -12 -12
-10 -42 10 -42 29 -107 33 -151 10 -33 -16 -67 -87 -82 -171 -12 -64 -51 -108
-135 -149 -102 -51 -154 -41 -154 31 0 28 4 34 21 34 51 0 113 25 150 60 32
31 39 44 39 76 0 22 -7 49 -15 62 -21 30 -90 68 -147 83 -58 14 -87 -1 -116
-59 -27 -53 -33 -83 -33 -176 l0 -84 -65 -27 c-94 -40 -95 -37 -92 144 l3 146
58 9 c44 7 57 13 57 26 0 24 -25 42 -68 49 -31 5 -38 11 -40 33 -2 15 2 37 8
49 7 11 8 25 3 29 -14 13 -78 19 -96 9z m443 -235 c22 -25 1 -84 -39 -111 -44
-30 -61 -29 -61 2 0 27 23 90 41 112 15 18 44 17 59 -3z m-721 -3 c11 -7 12
-22 1 -92 -6 -46 -18 -95 -26 -110 -23 -45 -65 -89 -85 -89 -54 0 -26 211 38
282 17 19 49 23 72 9z m1126 -27 c34 -36 32 -82 -5 -147 -43 -76 -74 -111 -92
-105 -47 19 -16 235 39 267 26 15 31 14 58 -15z"/>
<path d="M4788 5223 c7 -3 16 -2 19 1 4 3 -2 6 -13 5 -11 0 -14 -3 -6 -6z"/>
<path d="M3553 5162 c-7 -4 -17 -32 -23 -60 -15 -82 -40 -163 -68 -217 -50
-102 -65 -84 -60 75 3 144 -3 163 -56 158 -25 -2 -33 -9 -43 -38 -15 -43 -16
-145 -3 -225 12 -76 41 -105 104 -105 38 0 49 6 85 42 l42 42 -5 -50 c-3 -27
-8 -80 -11 -119 -11 -131 -17 -137 -96 -96 -97 51 -147 47 -98 -6 54 -57 147
-84 213 -61 68 23 76 43 82 213 2 83 9 213 15 289 10 143 7 155 -28 156 -6 0
-17 2 -25 5 -7 3 -19 1 -25 -3z"/>
<path d="M1430 5131 c-7 -13 -9 -90 -8 -218 l3 -197 32 -7 c17 -3 36 -3 43 1
6 4 15 46 20 95 12 112 52 202 88 197 67 -10 68 77 1 93 -19 5 -34 0 -57 -20
l-31 -26 -3 48 c-3 47 -3 48 -40 51 -29 2 -39 -1 -48 -17z"/>
<path d="M9882 4143 c-12 -3 -26 -12 -31 -21 -4 -9 -11 -102 -14 -205 -3 -104
-8 -191 -11 -195 -10 -10 -220 -31 -229 -23 -4 4 -3 101 3 215 6 114 8 212 5
217 -4 5 -22 9 -40 9 -60 0 -65 -19 -72 -254 l-6 -205 -54 -12 c-38 -9 -53
-17 -53 -29 0 -24 29 -46 72 -54 l37 -7 3 -117 3 -117 37 -3 c44 -4 45 -1 51
135 2 51 5 95 8 97 7 8 222 35 231 30 4 -3 8 -58 8 -123 0 -131 5 -142 62
-144 l33 -2 3 142 3 143 27 6 c46 10 52 13 58 29 8 20 -20 51 -52 59 -23 6
-24 9 -24 99 0 95 14 250 24 277 13 32 -33 62 -82 53z"/>
<path d="M11581 3991 c-6 -11 -11 -45 -11 -75 l0 -55 -37 -6 c-58 -10 -65 -14
-61 -32 3 -16 32 -36 71 -47 15 -5 17 -21 16 -169 -2 -143 1 -168 18 -208 14
-32 30 -49 51 -58 41 -17 68 -10 125 34 37 29 47 42 47 65 0 17 -3 30 -6 30
-4 0 -31 -14 -61 -31 -42 -24 -57 -29 -66 -20 -15 15 -23 272 -10 321 8 32 14
36 56 44 39 8 47 13 47 31 0 29 -30 55 -64 55 l-28 0 3 68 4 67 -42 3 c-33 2
-44 -1 -52 -17z"/>
<path d="M12036 3839 c-2 -8 -7 -34 -10 -59 -19 -141 -75 -316 -101 -311 -6 1
-10 59 -11 149 -2 182 1 166 -31 181 -22 10 -29 9 -42 -4 -13 -13 -16 -44 -16
-183 0 -145 2 -172 18 -195 39 -60 104 -55 151 11 l26 37 0 -65 c0 -92 -17
-241 -29 -253 -6 -6 -30 4 -68 27 -58 36 -103 47 -103 24 0 -21 89 -97 127
-108 29 -9 47 -8 78 2 69 22 71 36 84 413 5 181 9 331 7 332 -2 2 -20 6 -40
10 -25 4 -37 2 -40 -8z"/>
<path d="M10896 3819 c-32 -50 -47 -116 -53 -232 -6 -112 -8 -120 -31 -135
-23 -15 -25 -15 -39 3 -11 16 -12 43 -8 125 6 95 4 108 -14 138 -24 36 -76 72
-107 72 -23 0 -53 -29 -78 -75 -17 -30 -17 -30 -10 32 6 60 5 63 -19 74 -17 8
-30 8 -44 0 -18 -9 -21 -24 -27 -128 -6 -113 -9 -263 -7 -310 1 -15 12 -28 33
-39 29 -15 32 -15 43 0 7 9 18 51 25 94 14 89 53 218 74 247 28 38 39 5 37
-114 -2 -155 20 -203 97 -205 24 0 49 7 68 21 l31 22 24 -25 c33 -35 72 -54
112 -54 38 0 112 43 144 84 l21 26 15 -23 c24 -36 117 -78 177 -79 48 -1 56 2
81 30 21 23 29 43 29 70 0 33 -8 45 -74 108 -102 99 -114 126 -75 165 17 17
30 20 82 17 61 -3 62 -2 65 24 5 40 -27 65 -91 73 -97 12 -139 -9 -172 -87
-32 -77 -10 -142 72 -208 30 -25 62 -55 71 -68 33 -50 -33 -54 -104 -6 -20 14
-42 23 -48 21 -8 -3 -11 4 -8 23 7 46 -16 45 -59 -3 -51 -59 -97 -87 -143 -87
-30 0 -38 5 -46 26 -22 56 -14 71 41 84 154 37 189 200 60 286 -23 14 -61 29
-85 31 -38 5 -46 2 -60 -18z m134 -74 c20 -24 6 -93 -25 -125 -35 -36 -65 -45
-65 -20 0 43 22 119 41 139 23 25 32 26 49 6z"/>
<path d="M10123 3798 c-74 -77 -95 -260 -44 -375 36 -81 112 -115 184 -82 30
14 64 72 73 125 4 29 13 44 34 56 34 19 55 57 74 132 29 110 -14 134 -48 27
-24 -74 -41 -87 -51 -39 -12 53 -34 90 -87 141 -61 58 -90 61 -135 15z m108
-119 c3 -24 13 -58 22 -76 21 -39 21 -65 2 -130 -53 -177 -148 -28 -101 157
27 105 66 130 77 49z"/>
<path d="M8340 2583 c-30 -2 -145 -15 -256 -28 -110 -14 -239 -28 -287 -31
-93 -7 -105 -16 -85 -58 19 -42 57 -50 238 -49 92 1 173 -3 180 -7 10 -6 10
-80 0 -381 -9 -271 -9 -382 -1 -401 10 -26 15 -28 65 -28 31 0 58 5 63 13 6 6
13 86 16 177 9 269 28 562 38 601 9 36 9 36 76 42 38 4 102 7 143 7 101 0 107
5 85 69 -9 28 -24 55 -34 60 -21 12 -165 20 -241 14z"/>
<path d="M4461 2554 c-170 -45 -325 -191 -325 -303 1 -58 43 -149 88 -189 40
-35 143 -76 246 -97 208 -43 250 -56 250 -76 0 -46 -193 -102 -355 -103 -72
-1 -99 3 -137 21 -40 18 -48 27 -48 48 0 40 -18 65 -45 65 -31 0 -49 -32 -42
-74 3 -17 7 -40 9 -51 2 -15 -5 -22 -34 -29 -64 -16 -68 -7 -68 175 l0 158
-38 41 c-35 36 -43 40 -89 40 -60 0 -91 -21 -130 -87 l-26 -45 -13 30 c-14 34
-33 46 -85 56 -48 9 -83 -6 -105 -43 -10 -17 -21 -31 -24 -31 -3 0 -3 28 -2
62 3 47 0 64 -12 73 -23 18 -76 6 -86 -19 -5 -11 -14 -88 -20 -169 l-11 -149
-36 -31 c-20 -18 -47 -38 -61 -46 -23 -12 -27 -11 -40 5 -11 15 -13 40 -8 117
3 54 11 119 16 144 12 52 12 53 -24 57 -14 1 -37 15 -52 29 -25 26 -84 49
-159 63 -45 8 -100 -20 -136 -69 -33 -45 -69 -152 -69 -203 0 -25 -4 -34 -16
-34 -9 0 -33 -17 -53 -37 -76 -78 -224 -123 -257 -79 -8 11 -14 37 -14 58 0
35 2 38 28 38 87 0 191 61 219 128 17 41 4 99 -29 129 -39 36 -128 74 -185 80
-46 5 -57 3 -78 -17 -40 -37 -65 -104 -74 -198 -11 -104 0 -191 27 -230 32
-44 118 -86 177 -86 65 0 160 43 211 95 l38 39 16 -41 c22 -60 57 -82 135 -87
80 -5 116 8 156 60 31 38 32 39 46 18 38 -53 141 -68 190 -26 l28 24 10 -31
c6 -21 20 -35 38 -41 47 -17 59 -1 85 125 27 130 76 228 115 229 4 0 7 -72 7
-159 0 -144 2 -160 18 -165 43 -12 78 -15 88 -8 6 4 16 41 23 82 26 145 83
290 116 290 14 0 23 -94 24 -231 0 -37 6 -82 15 -102 29 -72 114 -85 217 -34
l51 25 42 -19 c23 -10 82 -25 132 -34 244 -43 504 64 504 207 0 86 -95 135
-370 193 -208 44 -225 52 -215 103 14 75 96 162 208 221 106 56 157 50 171
-20 11 -55 105 -179 136 -179 25 0 50 33 50 65 0 46 -36 109 -108 186 -67 72
-125 109 -172 108 -14 0 -49 -7 -79 -15z m-1875 -446 c10 -16 7 -74 -6 -97
-13 -25 -59 -58 -93 -66 -25 -7 -27 -5 -27 21 1 34 21 94 44 129 18 27 69 35
82 13z m503 -12 c17 -20 -4 -166 -33 -231 -28 -63 -88 -128 -110 -119 -54 21
-18 266 50 339 26 28 74 34 93 11z"/>
<path d="M2035 2523 c-27 -2 -142 -15 -255 -28 -113 -14 -220 -25 -237 -25
-28 0 -33 -4 -33 -22 1 -57 36 -68 221 -68 l150 0 -3 -347 -3 -348 55 0 55 0
7 105 c4 58 14 212 21 343 8 141 18 242 24 248 6 6 65 14 130 18 65 4 123 10
129 14 15 9 -5 70 -30 95 -17 18 -117 24 -231 15z"/>
<path d="M6426 2374 c-11 -10 -16 -34 -16 -74 0 -32 -4 -62 -10 -65 -5 -3 -32
-9 -60 -12 -92 -11 -88 -51 7 -75 l42 -10 3 -163 3 -163 -78 -32 c-57 -23 -82
-29 -90 -21 -7 7 -9 54 -7 133 1 68 3 143 4 168 l1 45 -50 0 c-72 0 -79 -19
-80 -205 0 -166 7 -187 76 -214 70 -28 134 -15 192 38 l38 35 32 -36 c26 -28
42 -36 79 -40 55 -6 90 4 157 49 53 34 64 49 55 73 -8 21 -16 19 -94 -15 -80
-35 -74 -34 -94 -14 -13 13 -16 43 -16 177 0 89 4 168 8 175 5 7 37 17 71 23
74 13 87 31 47 66 -18 16 -40 23 -67 23 l-39 0 0 46 c0 25 5 54 10 64 8 15 6
21 -9 30 -30 15 -97 12 -115 -6z"/>
<path d="M5539 2345 c-56 -38 -65 -80 -24 -120 30 -31 92 -34 126 -6 28 22 30
72 5 120 -21 39 -56 41 -107 6z"/>
<path d="M6165 2358 c-66 -36 -82 -84 -44 -132 16 -21 29 -26 63 -26 77 0 105
54 72 135 -12 28 -20 35 -43 35 -15 0 -37 -6 -48 -12z"/>
<path d="M4980 2280 c-6 -12 -16 -71 -21 -133 -14 -156 -21 -739 -10 -756 10
-15 50 -19 93 -8 l28 7 2 183 c3 176 4 182 23 179 11 -2 49 -5 85 -5 88 -3
125 20 165 98 26 52 30 69 30 144 0 68 -4 93 -20 120 -33 56 -67 75 -135 76
-54 0 -62 -3 -95 -35 l-35 -34 2 75 c4 91 -7 109 -63 109 -28 0 -41 -5 -49
-20z m265 -244 c7 -74 0 -126 -26 -178 -21 -40 -40 -49 -82 -35 -29 10 -47 34
-47 64 0 26 67 163 92 191 39 40 55 30 63 -42z"/>
<path d="M8745 2193 c-95 -94 -126 -399 -52 -497 27 -34 122 -90 173 -100 72
-16 219 48 284 121 l38 44 6 -28 c19 -84 87 -132 188 -133 75 0 103 12 153 66
l42 46 30 -30 c35 -35 102 -56 149 -47 18 3 46 19 63 35 l29 29 6 -33 c8 -41
20 -52 68 -61 46 -9 48 -5 78 145 28 138 91 270 130 270 6 0 10 -66 10 -179 0
-201 -1 -197 73 -207 57 -8 77 6 77 52 0 88 54 273 99 339 50 74 55 60 61
-140 6 -203 15 -235 80 -267 48 -25 94 -22 170 10 70 30 106 70 82 94 -9 9
-26 7 -78 -10 -105 -35 -104 -37 -104 176 l0 178 -29 46 c-37 57 -58 70 -126
70 -66 1 -98 -20 -140 -91 -16 -28 -33 -51 -36 -51 -3 0 -13 15 -22 34 -18 39
-59 56 -134 56 -38 0 -45 -4 -79 -47 l-36 -48 7 73 c8 84 -1 102 -49 102 -65
0 -71 -12 -85 -182 -18 -228 -15 -215 -63 -258 -119 -107 -144 -72 -117 167 6
52 14 106 19 119 8 19 5 26 -11 34 -11 6 -28 10 -37 8 -9 -2 -30 12 -47 30
-33 37 -136 72 -211 72 -101 0 -194 -133 -212 -302 -3 -31 -9 -48 -18 -48 -7
0 -34 -20 -59 -46 -59 -59 -173 -114 -236 -114 -60 0 -79 20 -79 83 0 42 2 47
23 47 45 0 157 38 193 65 19 15 44 41 55 59 23 37 25 106 4 146 -28 54 -186
130 -270 130 -22 0 -41 -9 -60 -27z m206 -94 c38 -38 9 -119 -61 -166 -45 -31
-80 -31 -80 0 0 46 32 131 60 159 34 33 53 35 81 7z m590 -15 c10 -13 10 -35
-4 -124 -18 -119 -29 -148 -88 -227 -28 -38 -46 -53 -63 -53 -32 0 -36 15 -36
126 0 82 4 106 31 174 18 48 41 88 56 100 31 24 85 26 104 4z"/>
<path d="M5789 2193 c-11 -12 -15 -63 -17 -200 l-3 -185 -65 -30 c-35 -16 -71
-27 -79 -24 -12 4 -15 27 -14 113 0 59 4 134 8 165 8 67 2 78 -49 78 -63 0
-70 -13 -82 -137 -17 -186 2 -257 78 -289 49 -21 94 -17 150 11 58 29 54 29
54 10 0 -27 90 -49 105 -26 3 5 10 56 15 113 8 84 16 115 42 168 30 59 36 65
64 65 61 1 81 41 43 89 -29 36 -82 36 -121 -1 l-28 -27 0 56 c0 42 -4 57 -16
62 -29 11 -71 6 -85 -11z"/>
</g>
</svg>
