<?xml version="1.0" standalone="no"?>
<!DOCTYPE svg PUBLIC "-//W3C//DTD SVG 20010904//EN"
 "http://www.w3.org/TR/2001/REC-SVG-20010904/DTD/svg10.dtd">
<svg version="1.0" xmlns="http://www.w3.org/2000/svg"
 width="1280.000000pt" height="640.000000pt" viewBox="0 0 1280.000000 640.000000"
 preserveAspectRatio="xMidYMid meet">
<metadata>
Created by potrace 1.15, written by Peter Selinger 2001-2017
</metadata>
<g transform="translate(0.000000,640.000000) scale(0.100000,-0.100000)"
fill="#000000" stroke="none">
<path d="M11483 5616 c-105 -34 -189 -109 -244 -217 -30 -61 -31 -67 -27 -159
4 -82 9 -104 33 -148 99 -182 316 -258 520 -182 83 32 193 142 225 226 66 178
-15 366 -197 456 -60 29 -77 33 -167 35 -65 2 -116 -2 -143 -11z"/>
<path d="M9440 5596 c-118 -25 -212 -101 -270 -217 -30 -59 -32 -66 -28 -163
4 -119 22 -167 94 -238 204 -205 539 -149 667 111 28 58 32 75 32 151 0 73 -4
93 -28 143 -55 110 -166 193 -291 216 -73 13 -105 13 -176 -3z"/>
<path d="M7357 5570 c-111 -28 -208 -110 -266 -224 -33 -65 -34 -68 -28 -161
4 -78 10 -103 33 -146 39 -71 106 -134 183 -172 62 -30 72 -32 176 -32 104 0
114 2 180 33 83 40 151 107 194 193 93 186 4 398 -205 491 -55 24 -202 34
-267 18z"/>
<path d="M5318 5548 c-123 -16 -232 -96 -297 -217 -32 -62 -33 -65 -29 -164 4
-121 23 -168 96 -241 201 -204 542 -147 669 112 24 50 28 69 28 147 0 77 -4
98 -27 147 -73 156 -248 242 -440 216z"/>
<path d="M3179 5516 c-115 -32 -203 -106 -259 -217 -31 -60 -32 -67 -28 -163
3 -89 7 -108 33 -154 127 -232 464 -274 652 -82 155 158 150 387 -12 528 -99
88 -256 123 -386 88z"/>
<path d="M1065 5487 c-107 -36 -189 -107 -244 -211 -28 -53 -31 -68 -31 -146
0 -101 15 -152 65 -220 92 -125 275 -188 430 -146 77 20 122 44 181 98 111
102 153 260 104 391 -30 80 -112 167 -198 209 -59 29 -76 33 -166 35 -64 2
-116 -2 -141 -10z"/>
<path d="M11540 4739 c-195 -5 -388 -13 -429 -19 -82 -11 -151 -42 -216 -96
-90 -73 -115 -135 -246 -609 -39 -143 -72 -261 -74 -263 -1 -1 -28 89 -60 200
-78 273 -142 473 -172 532 -40 78 -104 139 -199 187 -78 40 -92 43 -177 47
-140 6 -905 -17 -961 -28 -98 -20 -183 -75 -247 -160 -45 -60 -73 -141 -178
-520 -43 -157 -82 -278 -84 -270 -3 8 -37 123 -76 255 -83 285 -134 435 -167
491 -56 98 -203 191 -319 203 -80 9 -824 -6 -943 -18 -116 -12 -183 -41 -258
-113 -88 -83 -99 -112 -245 -638 -34 -123 -64 -220 -66 -215 -1 6 -34 118 -72
251 -120 415 -158 508 -233 581 -57 56 -181 119 -249 128 -77 9 -932 -12
-1004 -26 -75 -14 -144 -49 -202 -102 -89 -81 -97 -103 -229 -577 -46 -168
-87 -312 -90 -320 -3 -8 -39 102 -80 245 -150 522 -182 591 -303 672 -36 24
-90 52 -120 64 -55 21 -64 21 -486 15 -610 -10 -652 -16 -767 -104 -103 -78
-131 -145 -269 -649 -41 -150 -76 -273 -79 -273 -3 0 -20 55 -39 123 -49 174
-135 459 -165 545 -50 146 -111 224 -223 284 -105 58 -122 59 -618 48 -247 -6
-479 -15 -515 -21 -80 -12 -153 -46 -214 -100 -87 -77 -103 -116 -236 -594
-168 -605 -223 -819 -224 -874 -1 -51 1 -55 42 -92 68 -60 147 -65 204 -11 41
38 54 77 252 738 99 331 111 362 142 370 40 10 54 -1 48 -38 -7 -41 -69 -270
-236 -868 -198 -711 -241 -877 -235 -894 6 -14 31 -16 194 -16 103 0 212 -3
241 -6 l52 -7 0 -321 c0 -177 3 -480 7 -673 l6 -353 55 -37 c50 -35 60 -38
126 -38 81 0 137 22 170 68 21 28 21 43 27 680 4 359 7 655 8 660 1 4 30 7 66
7 l65 0 0 -664 0 -665 29 -20 c87 -62 197 -79 276 -42 81 37 79 30 86 330 4
146 7 417 8 601 1 184 4 365 7 401 l7 66 243 9 c134 6 246 13 250 17 9 8 -17
109 -206 812 -290 1077 -267 975 -222 975 15 0 32 -4 39 -8 6 -4 46 -129 88
-277 212 -753 209 -742 254 -774 61 -44 193 -55 240 -21 44 30 71 105 215 585
74 248 142 467 151 488 16 39 53 64 79 54 11 -5 13 -15 9 -44 -6 -39 -113
-433 -312 -1146 -141 -507 -166 -606 -154 -618 5 -5 115 -12 244 -15 l236 -7
6 -671 7 -671 37 -33 c47 -40 131 -67 181 -57 57 11 127 51 142 82 11 23 15
151 21 668 4 352 7 648 8 658 1 14 11 17 66 17 l65 0 0 -668 0 -668 52 -32
c71 -42 145 -58 206 -42 71 18 110 46 122 88 6 22 13 294 18 674 4 351 11 640
14 644 4 3 107 10 230 15 236 9 268 13 268 30 0 13 -100 393 -235 894 -167
620 -225 839 -225 857 0 14 8 18 35 18 29 0 37 -5 46 -27 11 -28 41 -134 190
-662 46 -162 93 -308 104 -325 28 -42 73 -66 150 -77 50 -8 74 -8 96 1 70 29
83 63 263 667 58 194 116 379 128 410 22 55 25 58 61 61 20 2 37 0 37 -5 0
-30 -54 -228 -338 -1249 -119 -425 -148 -541 -138 -551 4 -4 115 -9 245 -11
l238 -3 7 -676 8 -676 21 -19 c62 -52 91 -63 162 -63 53 1 80 6 112 23 83 43
77 -3 84 717 4 352 7 648 8 658 1 14 11 17 66 17 l65 0 0 -664 0 -663 41 -27
c107 -71 218 -74 306 -10 24 19 33 34 38 67 3 23 9 324 13 669 5 345 10 629
13 631 2 3 114 9 247 15 134 6 247 13 250 16 3 4 0 30 -8 59 -21 83 -180 680
-280 1052 -123 455 -170 636 -170 658 0 13 8 17 35 17 44 0 35 23 136 -340
198 -706 191 -689 255 -726 53 -31 146 -42 184 -22 57 31 76 81 265 716 52
178 103 341 111 363 17 41 39 59 73 59 40 0 63 92 -298 -1205 -138 -500 -163
-594 -157 -604 3 -5 116 -12 251 -16 l245 -7 0 -671 c0 -626 1 -671 18 -684
71 -58 106 -73 169 -73 44 0 77 7 109 21 84 40 78 -10 88 736 l9 664 66 -3 66
-3 2 -665 c3 -752 -7 -671 91 -717 69 -32 155 -33 219 -2 80 39 76 5 84 612 4
298 8 595 8 659 l1 117 43 5 c23 3 131 8 239 12 124 4 202 10 211 18 16 12 13
23 -228 916 -188 700 -225 844 -220 858 6 17 50 15 68 -2 8 -8 47 -131 87
-273 158 -565 200 -705 220 -737 47 -77 210 -107 263 -48 32 35 68 136 177
503 134 450 177 584 193 597 7 6 24 13 40 17 25 7 27 5 27 -27 0 -42 -8 -73
-182 -698 -221 -793 -288 -1043 -288 -1066 0 -19 7 -22 77 -28 42 -3 152 -6
245 -6 l168 0 0 -667 c0 -368 4 -673 8 -678 17 -24 90 -73 126 -85 77 -25 201
14 234 74 15 28 17 87 19 646 2 338 6 634 9 658 l5 44 62 -4 62 -3 3 -667 2
-666 48 -30 c60 -39 130 -56 189 -48 52 7 127 46 138 73 10 23 23 565 24 1006
l1 337 33 0 c137 2 462 21 469 28 11 11 -2 61 -227 897 -265 986 -244 888
-187 883 l37 -3 78 -275 c43 -151 105 -372 138 -490 34 -118 70 -229 80 -247
39 -63 172 -102 234 -68 60 31 80 84 230 590 115 389 154 507 172 528 9 9 29
17 46 17 29 0 29 -1 23 -42 -4 -24 -108 -407 -231 -853 -255 -920 -251 -905
-233 -917 7 -4 72 -8 144 -8 72 0 179 -3 237 -7 l107 -6 0 -671 1 -671 42 -32
c56 -42 87 -53 151 -53 61 0 130 31 160 73 20 27 21 45 27 505 4 262 7 559 8
660 l1 182 65 0 65 0 0 -664 0 -663 38 -26 c90 -63 192 -75 272 -34 86 43 79
-7 90 702 5 347 10 644 10 661 l0 31 218 7 c119 4 232 9 251 13 32 5 33 7 27
42 -5 34 -67 268 -336 1269 -67 249 -119 460 -116 468 3 8 19 14 36 14 24 0
33 -6 41 -27 13 -35 73 -242 184 -638 48 -170 96 -326 107 -346 56 -101 221
-111 290 -18 38 51 35 89 -37 349 -162 597 -270 949 -319 1049 -74 151 -242
243 -436 239 -47 0 -245 -5 -440 -9z"/>
</g>
</svg>
