<?xml version="1.0" standalone="no"?>
<!DOCTYPE svg PUBLIC "-//W3C//DTD SVG 20010904//EN"
 "http://www.w3.org/TR/2001/REC-SVG-20010904/DTD/svg10.dtd">
<svg version="1.0" xmlns="http://www.w3.org/2000/svg"
 width="1280.000000pt" height="1280.000000pt" viewBox="0 0 1280.000000 1280.000000"
 preserveAspectRatio="xMidYMid meet">
<metadata>
Created by potrace 1.15, written by Peter Selinger 2001-2017
</metadata>
<g transform="translate(0.000000,1280.000000) scale(0.100000,-0.100000)"
fill="#000000" stroke="none">
<path d="M6222 12784 c-390 -65 -725 -356 -842 -730 -123 -395 -18 -810 277
-1095 227 -220 518 -323 841 -297 349 28 672 241 845 559 160 291 169 669 23
968 -211 433 -674 674 -1144 595z"/>
<path d="M6315 10610 c-38 -4 -99 -14 -135 -23 -36 -9 -111 -24 -167 -32 -806
-119 -1516 -641 -1882 -1385 -42 -85 -91 -199 -110 -253 -25 -72 -40 -101 -55
-108 -12 -4 -66 -25 -121 -45 -624 -228 -1175 -760 -1433 -1384 -81 -195 -126
-356 -167 -594 -14 -78 -32 -172 -41 -211 -23 -102 -21 -270 5 -375 11 -47 27
-131 36 -187 118 -799 638 -1511 1370 -1876 72 -35 175 -81 230 -101 55 -20
109 -41 121 -45 15 -7 30 -36 55 -108 47 -135 172 -386 259 -518 327 -496 790
-849 1348 -1029 138 -45 203 -60 386 -91 78 -14 173 -32 211 -41 90 -20 260
-20 350 0 39 9 133 27 211 41 171 29 240 45 367 84 558 173 1037 536 1367
1036 87 132 212 383 259 518 25 72 40 101 55 108 12 4 66 25 121 45 624 228
1175 760 1433 1384 81 195 126 356 167 594 14 78 32 173 41 211 9 40 15 115
15 175 0 60 -6 135 -15 175 -9 39 -27 133 -41 211 -31 183 -46 248 -91 386
-181 562 -540 1030 -1039 1354 -132 86 -333 188 -470 238 -55 20 -109 41 -121
45 -15 7 -30 36 -55 108 -47 135 -172 386 -259 518 -327 496 -790 849 -1348
1029 -138 45 -203 60 -386 91 -78 14 -170 31 -206 39 -87 18 -180 24 -265 16z
m-1049 -931 c-215 -452 -334 -987 -353 -1585 l-6 -201 -201 -6 c-445 -15 -837
-81 -1212 -205 -154 -51 -348 -131 -441 -181 -29 -16 -53 -27 -53 -24 0 11
119 174 187 254 191 227 457 425 743 551 74 32 78 33 255 38 l180 5 8 47 c9
45 10 46 55 55 l47 8 5 180 c5 177 6 181 38 255 154 351 391 639 712 868 46
34 86 60 87 58 2 -2 -21 -54 -51 -117z m2297 64 c322 -227 564 -520 719 -873
32 -74 33 -78 38 -255 l5 -180 47 -8 c45 -9 46 -10 55 -55 l8 -47 180 -5 c177
-5 181 -6 255 -38 289 -127 554 -325 749 -558 81 -97 187 -244 176 -244 -3 0
-37 16 -75 35 -437 220 -1016 352 -1627 372 l-203 6 0 109 c0 429 -86 952
-219 1340 -45 130 -127 325 -170 405 -16 29 -27 53 -24 53 3 0 42 -26 86 -57z
m-926 -1088 c373 -53 702 -216 969 -480 105 -104 223 -248 228 -277 2 -17 47
-62 64 -64 29 -5 173 -123 277 -228 61 -61 140 -154 177 -206 133 -188 239
-433 288 -665 27 -130 37 -394 21 -531 -47 -389 -213 -734 -486 -1010 -104
-105 -248 -223 -277 -228 -17 -2 -62 -47 -64 -64 -5 -29 -123 -173 -228 -277
-61 -60 -154 -140 -206 -177 -188 -133 -433 -239 -665 -288 -130 -27 -394 -37
-531 -21 -378 46 -719 207 -995 469 -93 88 -238 264 -243 294 -2 17 -46 62
-64 64 -29 5 -173 123 -277 228 -60 61 -140 154 -177 206 -133 188 -239 433
-288 665 -27 130 -37 394 -21 531 47 389 214 734 486 1010 104 105 265 237
282 232 11 -4 57 43 59 60 5 29 123 173 228 277 128 127 256 221 407 300 174
90 394 161 574 184 111 14 351 12 462 -4z m3107 -3417 c-228 -323 -520 -564
-874 -720 -74 -32 -78 -33 -255 -38 l-180 -5 -9 -47 c-9 -45 -10 -47 -55 -55
l-46 -8 -5 -180 c-5 -177 -6 -181 -38 -255 -127 -289 -325 -554 -558 -749 -97
-81 -244 -187 -244 -176 0 3 16 37 35 75 220 437 352 1016 372 1628 l6 202
109 0 c323 0 744 54 1058 136 247 64 552 177 691 256 24 13 46 23 48 22 2 -2
-23 -40 -55 -86z m-6664 47 c436 -220 1017 -352 1626 -372 l201 -6 6 -201 c18
-551 121 -1049 307 -1481 28 -65 63 -143 79 -172 16 -29 27 -53 24 -53 -11 0
-174 119 -254 187 -227 191 -425 457 -551 743 -32 74 -33 78 -38 255 l-5 180
-47 9 c-45 9 -47 10 -55 55 l-8 46 -180 5 c-177 5 -181 6 -255 38 -289 127
-554 325 -749 558 -81 97 -187 244 -176 244 3 0 37 -16 75 -35z"/>
<path d="M900 7459 c-457 -80 -811 -436 -885 -890 -74 -460 163 -921 581
-1128 538 -265 1186 -41 1444 502 136 285 136 629 0 914 -136 286 -393 500
-699 580 -77 20 -125 26 -241 29 -80 1 -170 -1 -200 -7z"/>
<path d="M11515 7450 c-219 -46 -398 -145 -552 -303 -224 -231 -327 -519 -301
-844 35 -441 362 -826 797 -940 116 -30 308 -41 421 -24 467 72 830 429 905
892 94 583 -308 1135 -895 1229 -101 16 -273 11 -375 -10z"/>
<path d="M6300 2139 c-349 -30 -671 -244 -843 -560 -281 -514 -79 -1180 440
-1451 722 -377 1573 137 1573 950 0 409 -240 785 -613 962 -108 52 -239 88
-340 95 -45 4 -91 7 -102 9 -11 2 -63 -1 -115 -5z"/>
</g>
</svg>
