<?xml version="1.0" standalone="no"?>
<!DOCTYPE svg PUBLIC "-//W3C//DTD SVG 20010904//EN"
 "http://www.w3.org/TR/2001/REC-SVG-20010904/DTD/svg10.dtd">
<svg version="1.0" xmlns="http://www.w3.org/2000/svg"
 width="1280.000000pt" height="334.000000pt" viewBox="0 0 1280.000000 334.000000"
 preserveAspectRatio="xMidYMid meet">
<metadata>
Created by potrace 1.15, written by Peter Selinger 2001-2017
</metadata>
<g transform="translate(0.000000,334.000000) scale(0.100000,-0.100000)"
fill="#000000" stroke="none">
<path d="M7690 3099 c-239 -10 -478 -19 -530 -21 l-95 -3 2 -35 c1 -19 5 -268
9 -554 7 -483 6 -521 -10 -551 -17 -32 -52 -55 -82 -55 -36 0 -94 44 -153 115
-82 100 -121 119 -235 113 -156 -9 -241 -89 -293 -278 -27 -100 -25 -329 5
-433 61 -214 182 -340 340 -354 46 -4 69 -1 105 15 46 20 64 41 128 145 51 84
104 85 157 4 24 -37 26 -47 30 -206 4 -151 -8 -507 -25 -713 l-6 -78 1501 0
1500 0 6 38 c13 87 28 513 25 713 l-4 216 -29 37 c-55 73 -101 71 -147 -6 -39
-66 -82 -120 -112 -142 -23 -17 -43 -21 -105 -21 -68 0 -84 4 -140 34 -74 40
-117 87 -167 181 -57 109 -77 203 -78 355 -1 237 59 391 180 461 36 22 61 28
132 32 114 6 138 -6 242 -119 59 -65 91 -92 119 -100 53 -16 89 3 118 63 22
43 23 58 23 209 -1 89 -4 166 -8 172 -4 6 0 8 8 5 128 -49 237 -75 444 -104
66 -10 178 -27 250 -39 l129 -22 8 -31 c10 -36 59 -81 98 -89 51 -10 95 -58
143 -156 26 -52 47 -102 47 -110 0 -26 -21 -68 -74 -145 -46 -68 -75 -126
-112 -226 l-14 -38 30 6 c17 3 30 4 30 1 0 -2 -16 -63 -35 -135 -19 -72 -35
-153 -35 -180 0 -26 -14 -92 -31 -146 -16 -55 -52 -183 -79 -287 -43 -166 -53
-192 -84 -229 -20 -23 -36 -45 -36 -48 0 -15 -54 -30 -106 -30 -65 0 -68 -13
-8 -44 54 -29 178 -35 224 -11 38 20 94 13 109 -13 6 -10 11 -12 11 -4 0 10 5
10 20 2 15 -8 21 -8 24 2 2 7 10 36 19 63 21 66 46 175 57 250 4 33 18 95 29
138 12 42 28 119 36 170 8 50 22 117 30 147 8 30 15 60 15 67 0 15 81 131 109
157 20 18 20 17 36 -20 9 -22 30 -79 46 -129 27 -82 35 -95 92 -150 35 -33 76
-78 92 -100 16 -22 73 -95 127 -163 54 -68 98 -127 98 -132 0 -6 16 -28 36
-50 43 -48 74 -140 65 -195 -6 -40 -13 -46 -74 -70 -47 -19 -39 -35 16 -35 92
1 161 60 187 160 19 73 36 85 70 48 11 -12 20 -17 20 -10 0 6 -4 14 -10 17
-14 8 -13 48 2 63 9 9 8 16 -4 29 -9 10 -30 47 -48 83 -18 36 -49 88 -68 115
-66 91 -234 295 -293 356 -41 41 -59 67 -59 85 0 14 -6 37 -13 52 -9 19 -12
66 -9 158 l4 131 43 9 44 9 -30 69 c-17 38 -33 87 -36 110 -9 84 -25 133 -65
201 -22 39 -66 113 -96 165 -31 52 -72 120 -92 150 -20 30 -54 82 -75 115 -57
87 -161 210 -204 239 -23 16 -51 26 -73 26 -27 0 -41 6 -52 22 -18 26 -21 71
-5 99 6 11 11 54 11 96 0 61 -4 81 -21 103 -14 20 -17 30 -8 33 6 2 -13 11
-43 20 -105 31 -107 31 -114 5 -5 -20 -8 -21 -16 -7 -6 11 -18 15 -36 11 -19
-3 -25 -1 -20 7 13 20 -6 12 -41 -19 -18 -16 -42 -30 -52 -30 -15 0 -21 -10
-26 -40 -4 -22 -10 -40 -14 -40 -14 0 -34 -78 -27 -104 9 -36 64 -96 104 -113
18 -8 52 -27 74 -43 23 -17 52 -30 65 -30 41 0 25 -17 -23 -24 -73 -10 -140
-7 -212 8 -37 8 -146 17 -242 20 -96 3 -192 10 -212 16 l-38 11 0 59 c0 50 -4
63 -26 85 -26 26 -27 32 -33 173 l-6 147 -90 6 c-355 25 -817 30 -878 10 -40
-14 -97 -72 -97 -100 0 -22 40 -57 127 -111 74 -46 103 -94 103 -168 0 -229
-243 -392 -585 -392 -180 0 -321 40 -404 116 -61 55 -83 103 -89 200 -7 111
13 150 114 233 116 96 139 150 88 210 -31 37 -105 62 -178 60 -28 -1 -247 -10
-486 -20z m2505 -618 c133 -34 355 -71 428 -71 96 0 287 -21 287 -32 0 -20
-224 -30 -298 -12 -31 7 -86 13 -122 14 -80 0 -228 16 -293 31 -56 13 -77 31
-77 65 0 19 4 24 18 20 9 -3 35 -9 57 -15z"/>
<path d="M2046 3100 c-86 -27 -151 -148 -113 -213 6 -12 12 -51 12 -87 l0 -65
50 0 c71 0 80 -9 54 -48 -12 -18 -36 -46 -52 -64 -31 -33 -53 -108 -97 -320
-10 -51 -27 -109 -36 -130 -24 -50 -108 -152 -141 -173 -44 -27 -123 -117
-143 -163 -32 -72 -42 -169 -30 -292 5 -61 10 -176 10 -256 l0 -145 -95 -99
c-52 -54 -95 -102 -95 -106 0 -4 -11 -20 -25 -35 -14 -15 -25 -38 -25 -52 0
-48 -61 -142 -138 -211 -66 -60 -73 -69 -67 -95 3 -16 13 -38 22 -48 14 -16
14 -22 3 -43 -9 -18 -19 -24 -29 -19 -33 14 -60 15 -80 5 -35 -19 -25 -46 36
-92 52 -39 64 -44 123 -47 82 -5 124 10 115 39 -4 12 -16 30 -26 40 -21 21
-24 46 -10 81 5 13 12 35 15 49 3 15 27 55 52 89 l46 63 19 -24 c24 -32 24
-76 -2 -118 -13 -21 -19 -44 -16 -60 7 -36 -10 -74 -29 -67 -8 3 -17 -1 -20
-9 -10 -26 5 -62 40 -99 33 -36 34 -36 121 -36 65 0 86 3 82 13 -2 6 -10 30
-18 52 -8 22 -21 45 -29 52 -22 17 -26 148 -6 196 8 21 21 36 27 35 7 -2 19
10 27 25 7 16 24 33 38 39 13 6 21 15 18 20 -3 5 0 15 6 23 6 8 9 19 6 24 -4
5 -2 12 4 16 5 3 10 14 10 24 0 9 16 48 35 85 19 38 35 74 35 81 0 7 14 31 31
55 17 23 43 70 59 104 15 33 43 95 63 136 19 41 49 113 66 159 17 46 37 94 45
106 8 12 22 71 31 132 8 61 25 128 35 149 11 21 20 45 20 54 1 19 39 65 61 73
10 3 25 30 34 59 30 90 92 194 124 208 31 12 45 37 60 109 9 40 0 101 -24 162
-5 14 4 17 57 23 70 7 262 41 323 58 21 5 54 12 72 14 40 5 110 32 203 79 l70
35 0 -359 0 -359 -31 -26 c-61 -51 -121 -28 -207 79 -29 36 -71 78 -94 93 -37
24 -50 27 -123 26 -104 0 -161 -21 -214 -79 -84 -91 -123 -216 -124 -400 -2
-338 163 -585 390 -585 38 0 67 7 94 22 37 20 49 36 112 135 53 84 99 89 154
17 l28 -37 3 -226 c4 -206 -11 -612 -24 -703 l-6 -38 1500 0 1499 0 6 48 c14
112 29 513 26 702 -4 195 -5 207 -27 243 -13 21 -37 44 -54 53 -27 14 -32 14
-55 -1 -13 -9 -45 -49 -71 -90 -60 -95 -104 -125 -184 -125 -173 0 -306 132
-370 367 -27 101 -30 304 -5 406 34 137 115 248 203 277 21 8 75 14 120 14 72
1 85 -2 122 -27 23 -15 65 -56 92 -92 28 -35 66 -73 84 -85 67 -41 129 -17
161 62 16 39 17 71 10 328 -4 157 -8 287 -10 290 -2 3 -6 109 -10 235 -4 127
-8 231 -9 232 -6 6 -373 25 -596 30 -332 7 -377 1 -434 -56 -53 -54 -46 -80
36 -129 134 -81 164 -127 155 -237 -12 -156 -143 -277 -366 -337 -92 -25 -302
-30 -396 -9 -138 30 -241 94 -282 175 -23 43 -27 64 -27 141 -1 112 13 139
120 226 80 65 104 100 104 149 0 42 -44 85 -101 100 -42 11 -290 9 -534 -5
-44 -3 -141 -7 -215 -10 -449 -16 -451 -16 -476 -38 -21 -18 -24 -30 -24 -88
l0 -67 -40 -16 c-21 -8 -95 -23 -162 -32 -68 -9 -158 -27 -201 -40 -81 -25
-122 -28 -202 -17 -43 6 -49 9 -66 47 -10 23 -19 56 -19 74 0 22 -8 41 -26 57
-14 13 -36 42 -48 63 -43 77 -39 74 -107 78 -35 2 -77 -1 -93 -6z"/>
</g>
</svg>
