<?xml version="1.0" standalone="no"?>
<!DOCTYPE svg PUBLIC "-//W3C//DTD SVG 20010904//EN"
 "http://www.w3.org/TR/2001/REC-SVG-20010904/DTD/svg10.dtd">
<svg version="1.0" xmlns="http://www.w3.org/2000/svg"
 width="1156.000000pt" height="1280.000000pt" viewBox="0 0 1156.000000 1280.000000"
 preserveAspectRatio="xMidYMid meet">
<metadata>
Created by potrace 1.15, written by Peter Selinger 2001-2017
</metadata>
<g transform="translate(0.000000,1280.000000) scale(0.100000,-0.100000)"
fill="#000000" stroke="none">
<path d="M3403 12790 c-13 -5 -23 -18 -23 -29 0 -16 -12 -21 -70 -32 -63 -11
-72 -11 -89 5 -23 21 -55 13 -161 -39 -36 -18 -89 -38 -119 -44 -30 -6 -131
-37 -225 -68 -466 -153 -892 -386 -1241 -678 -49 -41 -119 -99 -155 -129 -67
-55 -223 -214 -320 -326 -217 -249 -424 -555 -570 -840 -57 -112 -190 -420
-190 -440 0 -5 -11 -17 -25 -26 -13 -9 -27 -26 -31 -37 -3 -12 -17 -31 -30
-42 -13 -11 -25 -30 -27 -43 -2 -13 -8 -27 -14 -30 -17 -11 -35 -53 -29 -67 2
-7 -2 -19 -10 -26 -9 -7 -14 -25 -13 -43 2 -17 0 -36 -3 -41 -8 -12 -8 -156
-1 -168 12 -20 11 -108 -3 -186 -17 -91 -17 -94 -34 -286 -14 -166 -15 -497
-1 -600 6 -44 13 -118 15 -165 8 -121 29 -285 47 -350 5 -19 9 -58 9 -86 0
-91 40 -312 74 -417 19 -56 37 -118 41 -137 4 -19 20 -57 35 -85 15 -27 33
-67 40 -88 6 -20 30 -79 52 -130 22 -50 42 -103 44 -116 7 -32 51 -139 69
-168 9 -13 24 -23 33 -23 21 0 92 -113 92 -146 0 -11 11 -31 25 -44 14 -13 46
-64 71 -114 44 -86 102 -185 148 -251 11 -16 55 -82 98 -147 42 -64 105 -147
141 -185 35 -37 80 -90 100 -117 21 -27 46 -55 57 -63 10 -7 31 -36 46 -63 15
-28 33 -50 41 -50 42 0 232 -279 233 -343 1 -12 7 -40 15 -62 8 -22 28 -132
45 -245 16 -113 41 -268 55 -345 14 -77 32 -196 40 -265 7 -69 21 -190 31
-270 13 -116 15 -183 9 -330 -4 -102 -7 -212 -6 -245 0 -33 -4 -85 -10 -115
-7 -30 -13 -98 -15 -150 -1 -52 -8 -135 -14 -185 -6 -49 -15 -130 -19 -180
-22 -226 -71 -455 -106 -497 -19 -22 -85 -172 -85 -192 0 -2 7 -12 16 -21 15
-15 14 -23 -19 -103 -20 -48 -48 -127 -63 -177 -47 -161 -90 -257 -191 -427
-54 -91 -118 -203 -143 -247 -25 -45 -139 -206 -253 -359 -115 -152 -256 -344
-312 -427 -114 -165 -241 -340 -293 -404 l-34 -41 3052 0 c2903 0 3052 1 3045
18 -3 9 -11 67 -16 127 -5 61 -11 126 -13 145 -3 19 -10 85 -16 145 -20 202
-31 309 -40 390 -5 44 -14 121 -19 170 -6 50 -15 131 -21 180 -6 50 -15 133
-20 185 -5 52 -16 160 -25 240 -9 80 -20 195 -25 255 -6 61 -15 146 -20 190
-12 97 -24 209 -44 420 -8 88 -22 219 -31 290 -20 165 -18 175 38 175 108 0
432 -157 768 -372 41 -26 78 -48 82 -48 3 0 52 -30 107 -66 93 -60 228 -134
245 -134 4 0 57 -24 119 -54 215 -105 352 -166 441 -197 49 -17 141 -55 205
-83 229 -104 425 -181 750 -293 326 -112 401 -133 481 -133 67 0 196 32 259
65 90 46 226 238 305 430 39 93 97 319 121 465 8 52 17 106 19 120 2 14 9 54
14 90 6 36 15 95 20 131 15 93 43 177 84 251 44 79 65 98 152 141 125 63 150
101 150 232 0 112 -30 200 -87 257 -27 27 -38 47 -38 68 0 35 -3 34 110 50
118 17 163 40 216 112 64 87 72 123 49 212 -23 85 -28 256 -10 325 17 64 53
125 119 198 84 92 163 138 334 193 348 112 522 257 522 435 0 52 -93 239 -180
360 -129 182 -214 315 -448 705 -58 96 -140 231 -182 300 -97 159 -220 384
-259 475 -42 101 -74 263 -66 345 3 36 10 144 15 240 5 96 14 238 20 315 17
214 0 407 -55 665 -9 41 -29 136 -45 210 -54 253 -61 285 -106 447 -25 91 -44
184 -44 212 0 34 -5 53 -15 58 -8 5 -24 40 -35 78 -18 63 -18 70 -4 86 14 15
14 23 4 56 -22 65 -68 163 -79 163 -5 0 -28 57 -51 128 -37 112 -132 353 -178
452 -26 57 -132 240 -175 305 -67 99 -241 306 -308 365 -34 30 -81 71 -103 91
-64 56 -212 167 -311 232 -96 63 -512 276 -691 353 -208 89 -532 205 -819 292
-331 101 -894 236 -1280 307 -77 15 -187 35 -245 46 -92 17 -207 35 -440 69
-36 6 -139 19 -230 30 -411 49 -487 60 -520 71 -42 15 -1291 23 -1327 9z"/>
</g>
</svg>
