<svg width="405" height="411" viewBox="0 0 405 411" fill="none" xmlns="http://www.w3.org/2000/svg">
<ellipse cx="202.5" cy="205.5" rx="202.5" ry="205.5" fill="url(#paint0_linear)"/>
<path d="M62.1906 300.12C57.5055 300.12 53.2549 297.972 50.1186 294.5C50.1163 296.581 50.0455 299.584 49.5293 301.775C49.868 301.996 50.1308 302.359 50.1821 302.811C50.8514 308.629 56.0136 313.017 62.1906 313.017C68.3666 313.017 73.5285 308.629 74.1991 302.811C74.2511 302.358 74.5083 301.996 74.8521 301.775C74.3357 299.584 74.2648 296.581 74.2625 294.5C71.1263 297.972 66.8754 300.12 62.1906 300.12Z" fill="#FFB980"/>
<path d="M74.0005 294.765C70.8907 298.074 66.7505 300.12 62.1906 300.12C57.5055 300.12 53.2549 297.972 50.1186 294.501C50.1163 296.581 50.0455 299.584 49.5293 301.775C49.868 301.996 50.1308 302.359 50.1821 302.811C50.4779 305.383 51.6537 307.673 53.4049 309.431C61.4807 308.215 70.6467 299.695 74.0005 294.765Z" fill="#F8AB6B"/>
<path d="M86.6716 303.322C86.6178 303.306 86.5642 303.294 86.5091 303.285L75.8024 301.569C75.7369 301.558 75.5967 301.553 75.5299 301.553C74.8528 301.553 74.2817 302.092 74.1992 302.811C73.5287 308.629 68.3665 313.017 62.1907 313.017C56.0134 313.017 50.8515 308.63 50.1822 302.811C50.0984 302.072 49.4749 301.515 48.8175 301.554C48.7388 301.549 48.6616 301.556 48.5791 301.569L37.8724 303.285C37.8173 303.294 37.7637 303.306 37.7099 303.323C32.6485 304.837 30 310.157 30 314.631V320.182C30 322.546 31.9701 324.468 34.3918 324.468H89.9894C92.4114 324.468 94.3812 322.546 94.3812 320.182V314.631C94.3812 310.157 91.7327 304.837 86.6716 303.322Z" fill="#00E68C"/>
<path d="M74.2624 264.295H51.4606C47.7629 264.295 44.7542 267.509 44.7542 271.46V280.058C44.7542 291.12 52.5765 300.12 62.1906 300.12C71.8048 300.12 79.6271 291.12 79.6271 280.058V270.027C79.6274 266.866 77.2211 264.295 74.2624 264.295Z" fill="#FDC88E"/>
<path d="M71.5798 248.532H54.1431C51.6203 248.532 49.4996 250.401 48.9286 252.911C44.3113 253.538 40.7302 257.761 40.7302 262.861V270.027C40.7302 273.72 42.1975 277.165 44.7541 279.613V271.459C44.7541 267.509 47.7629 264.294 51.4606 264.294H74.2623C77.2214 264.294 79.6274 266.866 79.6274 270.026V279.612C82.1845 277.164 83.6513 273.719 83.6513 270.026V261.428C83.6513 254.317 78.2362 248.532 71.5798 248.532Z" fill="#5C546A"/>
<path d="M127.809 300.12C123.124 300.12 118.873 297.972 115.737 294.5C115.735 296.581 115.664 299.584 115.148 301.775C115.486 301.996 115.749 302.359 115.801 302.811C116.47 308.629 121.632 313.017 127.809 313.017C133.985 313.017 139.147 308.629 139.817 302.811C139.87 302.358 140.127 301.996 140.471 301.775C139.954 299.584 139.883 296.581 139.881 294.5C136.745 297.972 132.494 300.12 127.809 300.12Z" fill="#FFB980"/>
<path d="M139.619 294.765C136.509 298.074 132.369 300.12 127.809 300.12C123.124 300.12 118.873 297.972 115.737 294.501C115.735 296.581 115.664 299.584 115.148 301.775C115.486 301.996 115.749 302.359 115.801 302.811C116.096 305.383 117.272 307.673 119.023 309.431C127.099 308.215 136.265 299.695 139.619 294.765Z" fill="#F8AB6B"/>
<path d="M152.29 303.322C152.236 303.306 152.183 303.294 152.127 303.285L141.421 301.569C141.355 301.558 141.215 301.553 141.148 301.553C140.471 301.553 139.9 302.092 139.818 302.811C139.147 308.629 133.985 313.017 127.809 313.017C121.632 313.017 116.47 308.63 115.801 302.811C115.717 302.072 115.093 301.515 114.436 301.554C114.357 301.549 114.28 301.556 114.197 301.569L103.491 303.285C103.436 303.294 103.382 303.306 103.328 303.323C98.2671 304.837 95.6187 310.157 95.6187 314.631V320.182C95.6187 322.546 97.5887 324.468 100.01 324.468H155.608C158.03 324.468 160 322.546 160 320.182V314.631C160 310.157 157.351 304.837 152.29 303.322Z" fill="#00ABFF"/>
<path d="M139.88 264.295H117.078C113.381 264.295 110.372 267.509 110.372 271.46V280.058C110.372 291.12 118.194 300.12 127.809 300.12C137.423 300.12 145.245 291.12 145.245 280.058V270.027C145.246 266.866 142.839 264.295 139.88 264.295Z" fill="#FDC88E"/>
<path d="M137.198 248.532H119.761C117.239 248.532 115.118 250.401 114.547 252.911C109.93 253.538 106.349 257.761 106.349 262.861V270.027C106.349 273.72 107.816 277.165 110.373 279.613V271.459C110.373 267.509 113.381 264.294 117.079 264.294H139.881C142.84 264.294 145.246 266.866 145.246 270.026V279.612C147.803 277.164 149.27 273.719 149.27 270.026V261.428C149.269 254.317 143.855 248.532 137.198 248.532Z" fill="#7E5C62"/>
<path d="M95.0002 307.126C87.905 307.126 81.4677 303.873 76.7182 298.616C76.7146 301.767 76.6075 306.314 75.8254 309.632C76.3383 309.967 76.7365 310.517 76.8141 311.201C77.8277 320.013 85.6453 326.658 95.0002 326.658C104.353 326.658 112.171 320.013 113.186 311.201C113.265 310.516 113.654 309.967 114.175 309.633C113.393 306.315 113.286 301.767 113.282 298.616C108.533 303.873 102.095 307.126 95.0002 307.126Z" fill="#FDC88E"/>
<path d="M112.885 299.016C108.176 304.028 101.906 307.126 95.0002 307.126C87.905 307.126 81.4677 303.873 76.7182 298.616C76.7146 301.767 76.6075 306.314 75.8254 309.632C76.3383 309.967 76.7365 310.517 76.8141 311.201C77.2623 315.097 79.0429 318.565 81.695 321.226C93.9251 319.386 107.806 306.483 112.885 299.016Z" fill="#FFB980"/>
<path d="M132.074 311.976C131.993 311.952 131.911 311.933 131.828 311.92L115.614 309.321C115.515 309.305 115.302 309.296 115.201 309.296C114.176 309.296 113.311 310.113 113.186 311.201C112.17 320.012 104.353 326.658 94.9997 326.658C85.6448 326.658 77.8273 320.014 76.8137 311.201C76.6867 310.081 75.7425 309.239 74.7466 309.297C74.6276 309.29 74.5105 309.3 74.3856 309.32L58.1714 311.92C58.0881 311.932 58.0069 311.951 57.9254 311.976C50.261 314.269 46.25 322.327 46.25 329.101V337.508C46.25 341.088 49.2334 344 52.9011 344H137.099C140.766 344 143.75 341.088 143.75 337.508V329.101C143.75 322.327 139.739 314.269 132.074 311.976Z" fill="#FF4F19"/>
<path d="M113.281 252.872H78.75C73.1501 252.872 68.5938 257.74 68.5938 263.723V276.744C68.5938 293.497 80.44 307.126 95 307.126C109.56 307.126 121.406 293.497 121.406 276.744V261.553C121.406 256.766 117.762 252.872 113.281 252.872Z" fill="#FFE1B2"/>
<path d="M109.219 229H82.8125C78.992 229 75.7806 231.831 74.9155 235.632C67.9232 236.582 62.5 242.978 62.5 250.702V261.553C62.5 267.145 64.7222 272.363 68.5937 276.071V263.723C68.5937 257.74 73.1501 252.872 78.75 252.872H113.281C117.762 252.872 121.406 256.766 121.406 261.553V276.069C125.279 272.361 127.5 267.144 127.5 261.553V248.532C127.5 237.762 119.3 229 109.219 229Z" fill="#7E5449"/>
<path d="M209.127 98H199.68V110.2V122.212V134.506V146.8C199.68 146.8 195.901 152.657 199.68 159C203.459 165.343 199.68 171.106 199.68 171.106V183.306V195.506V207.8V220H209.127H217V207.8V195.506V183.306V171.106V159V146.8V134.506V122.212V110.2V98H209.127Z" fill="url(#paint1_linear)"/>
<path d="M156.358 98H146.266V110.2V122.212V134.506V146.8V159C146.266 159 123.167 78.8942 146.266 171.106C169.365 263.318 146.266 183.306 146.266 183.306V195.506V207.8V220H156.358H164.767V207.8V195.506V183.306V171.106C164.767 171.106 152.994 216.958 164.767 159C176.541 101.042 164.767 146.8 164.767 146.8V134.506V122.212V110.2V98H156.358Z" fill="url(#paint2_linear)"/>
<path d="M214.038 98H227.637H243.43H257.468H271.067H284.228C290.808 98 290.369 109.236 284.228 109.236H271.067H257.468C257.468 109.236 263.61 115.455 243.43 109.236C223.25 103.018 227.637 109.236 227.637 109.236H214.038H200V98H214.038Z" fill="#E70F0F"/>
<path d="M133.781 90.1787C156.094 79.5788 113 98.8858 113 98.8858V111H140.562H155H168.562H197V98.8858H168.562H155C155 98.8858 121.701 95.9177 133.781 90.1787Z" fill="#0F4CE7"/>
<path d="M216.457 154.022H229.493C229.493 154.022 238.324 149.472 244.632 154.022C250.94 158.573 258.089 154.022 258.089 154.022H271.125H283.741C289.628 154.022 289.208 166 283.741 166H271.125H258.089H244.632H229.493H216.457H203V154.022H216.457Z" fill="#C55555"/>
<path d="M214.036 208.603H227.633C227.633 208.603 221.054 214.459 243.423 208.603C265.793 202.747 257.459 208.603 257.459 208.603H271.057H284.215C289.479 208.603 289.04 219 284.215 219H271.057H257.459H243.423H227.633H214.036H200V208.603H214.036Z" fill="#C79494"/>
<path d="M221.905 261.2H216.305V283.8L220.425 284.6V287H208.225V284.6L212.345 283.8V261.2H206.705L206.185 267.2H203.025V258.2H225.625V267.2H222.465L221.905 261.2ZM226.831 284.6L230.551 283.8V261.4L226.831 260.6V258.2H246.031V267H242.871L242.351 261.2H234.511V270.76H242.031V274.08H234.511V284H242.311L242.871 277.6H246.031V287H226.831V284.6ZM257.408 258.2H263.008L270.848 283.8L273.808 284.6V287H263.288V284.6L266.848 283.8L264.888 277.16H255.528L253.568 283.8L257.168 284.6V287H246.608V284.6L249.568 283.8L257.408 258.2ZM256.488 273.84H263.888L260.208 261.28L256.488 273.84ZM281.291 261.2V283.8L284.211 284.6V287H273.611V284.6L277.331 283.8V261.4L273.611 260.6V258.2H284.211L290.651 283.48L297.131 258.2H307.731V260.6L304.011 261.4V283.8L307.731 284.6V287H297.131V284.6L300.051 283.8V261.2L293.531 287H287.771L281.291 261.2ZM319.768 287.44C318.728 287.44 317.862 287.333 317.168 287.12C316.502 286.907 315.955 286.627 315.528 286.28C315.102 285.933 314.768 285.533 314.528 285.08C314.288 284.627 314.088 284.173 313.928 283.72H313.688L312.888 287H309.688V278.12H313.688C313.688 279.213 313.822 280.147 314.088 280.92C314.382 281.667 314.768 282.28 315.248 282.76C315.728 283.24 316.302 283.6 316.968 283.84C317.662 284.053 318.408 284.16 319.208 284.16C320.088 284.16 320.835 284.053 321.448 283.84C322.062 283.6 322.568 283.28 322.968 282.88C323.368 282.48 323.648 282.013 323.808 281.48C323.995 280.947 324.088 280.387 324.088 279.8C324.088 278.52 323.742 277.52 323.048 276.8C322.355 276.053 321.488 275.427 320.448 274.92C319.435 274.413 318.315 273.96 317.088 273.56C315.888 273.133 314.768 272.6 313.728 271.96C312.715 271.293 311.862 270.44 311.168 269.4C310.475 268.36 310.128 266.973 310.128 265.24C310.128 263.987 310.328 262.893 310.728 261.96C311.128 261.027 311.662 260.253 312.328 259.64C313.022 259 313.835 258.533 314.768 258.24C315.702 257.92 316.688 257.76 317.728 257.76C318.422 257.76 319.075 257.84 319.688 258C320.328 258.133 320.902 258.36 321.408 258.68C321.942 259 322.382 259.427 322.728 259.96C323.075 260.493 323.315 261.147 323.448 261.92H323.648L324.448 258.2H327.608V268H323.648C323.648 267.2 323.555 266.387 323.368 265.56C323.182 264.733 322.875 263.987 322.448 263.32C322.022 262.653 321.475 262.107 320.808 261.68C320.168 261.253 319.382 261.04 318.448 261.04C317.862 261.04 317.302 261.133 316.768 261.32C316.262 261.507 315.808 261.773 315.408 262.12C315.008 262.467 314.688 262.893 314.448 263.4C314.235 263.88 314.128 264.44 314.128 265.08C314.128 266.227 314.475 267.133 315.168 267.8C315.862 268.44 316.715 269 317.728 269.48C318.768 269.96 319.888 270.427 321.088 270.88C322.315 271.307 323.435 271.867 324.448 272.56C325.488 273.227 326.355 274.107 327.048 275.2C327.742 276.293 328.088 277.733 328.088 279.52C328.088 282 327.355 283.947 325.888 285.36C324.448 286.747 322.408 287.44 319.768 287.44Z" fill="#0F4CE7"/>
<path d="M221.905 261.2H216.305V283.8L220.425 284.6V287H208.225V284.6L212.345 283.8V261.2H206.705L206.185 267.2H203.025V258.2H225.625V267.2H222.465L221.905 261.2ZM226.831 284.6L230.551 283.8V261.4L226.831 260.6V258.2H246.031V267H242.871L242.351 261.2H234.511V270.76H242.031V274.08H234.511V284H242.311L242.871 277.6H246.031V287H226.831V284.6ZM257.408 258.2H263.008L270.848 283.8L273.808 284.6V287H263.288V284.6L266.848 283.8L264.888 277.16H255.528L253.568 283.8L257.168 284.6V287H246.608V284.6L249.568 283.8L257.408 258.2ZM256.488 273.84H263.888L260.208 261.28L256.488 273.84ZM281.291 261.2V283.8L284.211 284.6V287H273.611V284.6L277.331 283.8V261.4L273.611 260.6V258.2H284.211L290.651 283.48L297.131 258.2H307.731V260.6L304.011 261.4V283.8L307.731 284.6V287H297.131V284.6L300.051 283.8V261.2L293.531 287H287.771L281.291 261.2ZM319.768 287.44C318.728 287.44 317.862 287.333 317.168 287.12C316.502 286.907 315.955 286.627 315.528 286.28C315.102 285.933 314.768 285.533 314.528 285.08C314.288 284.627 314.088 284.173 313.928 283.72H313.688L312.888 287H309.688V278.12H313.688C313.688 279.213 313.822 280.147 314.088 280.92C314.382 281.667 314.768 282.28 315.248 282.76C315.728 283.24 316.302 283.6 316.968 283.84C317.662 284.053 318.408 284.16 319.208 284.16C320.088 284.16 320.835 284.053 321.448 283.84C322.062 283.6 322.568 283.28 322.968 282.88C323.368 282.48 323.648 282.013 323.808 281.48C323.995 280.947 324.088 280.387 324.088 279.8C324.088 278.52 323.742 277.52 323.048 276.8C322.355 276.053 321.488 275.427 320.448 274.92C319.435 274.413 318.315 273.96 317.088 273.56C315.888 273.133 314.768 272.6 313.728 271.96C312.715 271.293 311.862 270.44 311.168 269.4C310.475 268.36 310.128 266.973 310.128 265.24C310.128 263.987 310.328 262.893 310.728 261.96C311.128 261.027 311.662 260.253 312.328 259.64C313.022 259 313.835 258.533 314.768 258.24C315.702 257.92 316.688 257.76 317.728 257.76C318.422 257.76 319.075 257.84 319.688 258C320.328 258.133 320.902 258.36 321.408 258.68C321.942 259 322.382 259.427 322.728 259.96C323.075 260.493 323.315 261.147 323.448 261.92H323.648L324.448 258.2H327.608V268H323.648C323.648 267.2 323.555 266.387 323.368 265.56C323.182 264.733 322.875 263.987 322.448 263.32C322.022 262.653 321.475 262.107 320.808 261.68C320.168 261.253 319.382 261.04 318.448 261.04C317.862 261.04 317.302 261.133 316.768 261.32C316.262 261.507 315.808 261.773 315.408 262.12C315.008 262.467 314.688 262.893 314.448 263.4C314.235 263.88 314.128 264.44 314.128 265.08C314.128 266.227 314.475 267.133 315.168 267.8C315.862 268.44 316.715 269 317.728 269.48C318.768 269.96 319.888 270.427 321.088 270.88C322.315 271.307 323.435 271.867 324.448 272.56C325.488 273.227 326.355 274.107 327.048 275.2C327.742 276.293 328.088 277.733 328.088 279.52C328.088 282 327.355 283.947 325.888 285.36C324.448 286.747 322.408 287.44 319.768 287.44Z" fill="url(#paint3_linear)" fill-opacity="0.2"/>
<path d="M170.32 332.6L174.04 331.8V309.4L170.32 308.6V306.2H189.52V315H186.36L185.84 309.2H178V318.76H185.52V322.08H178V332H185.8L186.36 325.6H189.52V335H170.32V332.6ZM193.457 309.4L190.097 308.6V306.2H201.057V308.6L197.457 309.4L203.897 331.92L210.337 309.4L206.777 308.6V306.2H217.697V308.6L214.337 309.4L206.697 335H201.097L193.457 309.4ZM228.542 335.44C226.195 335.44 224.302 335.053 222.862 334.28C221.422 333.48 220.302 332.413 219.502 331.08C218.702 329.72 218.168 328.147 217.902 326.36C217.635 324.547 217.502 322.613 217.502 320.56C217.502 318.533 217.622 316.627 217.862 314.84C218.128 313.027 218.648 311.453 219.422 310.12C220.195 308.76 221.288 307.693 222.702 306.92C224.115 306.147 225.995 305.76 228.342 305.76C230.688 305.76 232.582 306.16 234.022 306.96C235.488 307.733 236.608 308.8 237.382 310.16C238.155 311.52 238.675 313.107 238.942 314.92C239.208 316.707 239.342 318.613 239.342 320.64C239.342 322.667 239.222 324.573 238.982 326.36C238.742 328.147 238.235 329.72 237.462 331.08C236.715 332.413 235.622 333.48 234.182 334.28C232.768 335.053 230.888 335.44 228.542 335.44ZM228.542 332.56C230.142 332.56 231.382 332.253 232.262 331.64C233.142 331 233.795 330.147 234.222 329.08C234.675 327.987 234.942 326.733 235.022 325.32C235.128 323.88 235.182 322.347 235.182 320.72C235.182 319.093 235.128 317.56 235.022 316.12C234.942 314.653 234.675 313.373 234.222 312.28C233.795 311.16 233.128 310.28 232.222 309.64C231.342 308.973 230.102 308.64 228.502 308.64C226.928 308.64 225.688 308.96 224.782 309.6C223.875 310.213 223.182 311.067 222.702 312.16C222.248 313.227 221.955 314.493 221.822 315.96C221.715 317.4 221.662 318.96 221.662 320.64C221.662 322.32 221.715 323.893 221.822 325.36C221.955 326.8 222.248 328.053 222.702 329.12C223.182 330.187 223.875 331.027 224.782 331.64C225.715 332.253 226.968 332.56 228.542 332.56ZM256.179 325.6H259.339V335H240.939V332.6L244.659 331.8V309.4L240.939 308.6V306.2H252.339V308.6L248.619 309.4V332H255.619L256.179 325.6ZM282.621 309.4V322.24C282.621 323.867 282.514 325.467 282.301 327.04C282.087 328.613 281.621 330.027 280.901 331.28C280.207 332.507 279.194 333.507 277.861 334.28C276.527 335.053 274.727 335.44 272.461 335.44C270.194 335.44 268.394 335.053 267.061 334.28C265.727 333.507 264.714 332.493 264.021 331.24C263.327 329.987 262.874 328.573 262.661 327C262.474 325.4 262.381 323.787 262.381 322.16V309.4L258.661 308.6V306.2H270.061V308.6L266.341 309.4V322.24C266.341 323.493 266.394 324.733 266.501 325.96C266.634 327.187 266.901 328.293 267.301 329.28C267.727 330.24 268.341 331.027 269.141 331.64C269.967 332.253 271.074 332.56 272.461 332.56C273.847 332.56 274.954 332.253 275.781 331.64C276.607 331 277.234 330.187 277.661 329.2C278.087 328.213 278.354 327.12 278.461 325.92C278.594 324.693 278.661 323.493 278.661 322.32V309.4L274.941 308.6V306.2H286.341V308.6L282.621 309.4ZM305.421 309.2H299.821V331.8L303.941 332.6V335H291.741V332.6L295.861 331.8V309.2H290.221L289.701 315.2H286.541V306.2H309.141V315.2H305.981L305.421 309.2ZM321.747 308.6L318.027 309.4V331.8L321.747 332.6V335H310.347V332.6L314.067 331.8V309.4L310.347 308.6V306.2H321.747V308.6ZM334.338 335.44C331.992 335.44 330.098 335.053 328.658 334.28C327.218 333.48 326.098 332.413 325.298 331.08C324.498 329.72 323.965 328.147 323.698 326.36C323.432 324.547 323.298 322.613 323.298 320.56C323.298 318.533 323.418 316.627 323.658 314.84C323.925 313.027 324.445 311.453 325.218 310.12C325.992 308.76 327.085 307.693 328.498 306.92C329.912 306.147 331.792 305.76 334.138 305.76C336.485 305.76 338.378 306.16 339.818 306.96C341.285 307.733 342.405 308.8 343.178 310.16C343.952 311.52 344.472 313.107 344.738 314.92C345.005 316.707 345.138 318.613 345.138 320.64C345.138 322.667 345.018 324.573 344.778 326.36C344.538 328.147 344.032 329.72 343.258 331.08C342.512 332.413 341.418 333.48 339.978 334.28C338.565 335.053 336.685 335.44 334.338 335.44ZM334.338 332.56C335.938 332.56 337.178 332.253 338.058 331.64C338.938 331 339.592 330.147 340.018 329.08C340.472 327.987 340.738 326.733 340.818 325.32C340.925 323.88 340.978 322.347 340.978 320.72C340.978 319.093 340.925 317.56 340.818 316.12C340.738 314.653 340.472 313.373 340.018 312.28C339.592 311.16 338.925 310.28 338.018 309.64C337.138 308.973 335.898 308.64 334.298 308.64C332.725 308.64 331.485 308.96 330.578 309.6C329.672 310.213 328.978 311.067 328.498 312.16C328.045 313.227 327.752 314.493 327.618 315.96C327.512 317.4 327.458 318.96 327.458 320.64C327.458 322.32 327.512 323.893 327.618 325.36C327.752 326.8 328.045 328.053 328.498 329.12C328.978 330.187 329.672 331.027 330.578 331.64C331.512 332.253 332.765 332.56 334.338 332.56ZM367.296 331.8V309.4L364.376 308.6V306.2H374.976V308.6L371.256 309.4V335H364.376L354.416 309.4V331.8L357.336 332.6V335H346.736V332.6L350.456 331.8V309.4L346.736 308.6V306.2H357.336L367.296 331.8Z" fill="#E70F0F"/>
<circle cx="143.028" cy="51.0276" r="6.99242" transform="rotate(0.289005 143.028 51.0276)" fill="white"/>
<circle cx="80.0276" cy="159.028" r="6.99242" transform="rotate(0.289005 80.0276 159.028)" fill="white"/>
<circle cx="273.028" cy="51.0276" r="6.99242" transform="rotate(0.289005 273.028 51.0276)" fill="white"/>
<circle cx="348.028" cy="159.028" r="6.99242" transform="rotate(0.289005 348.028 159.028)" fill="white"/>
<defs>
<linearGradient id="paint0_linear" x1="202.5" y1="0" x2="202.5" y2="411" gradientUnits="userSpaceOnUse">
<stop stop-color="#14E9EF"/>
<stop offset="0.0001" stop-color="#239EF4" stop-opacity="0.676562"/>
<stop offset="0.91199" stop-color="#ECECEC" stop-opacity="0.0595504"/>
<stop offset="1" stop-color="#4200FF" stop-opacity="0"/>
</linearGradient>
<linearGradient id="paint1_linear" x1="208.34" y1="98" x2="208.34" y2="220" gradientUnits="userSpaceOnUse">
<stop stop-color="#D70909"/>
<stop offset="1" stop-color="#852121" stop-opacity="0.44"/>
</linearGradient>
<linearGradient id="paint2_linear" x1="155.517" y1="98" x2="155.517" y2="220" gradientUnits="userSpaceOnUse">
<stop stop-color="#0943D7"/>
<stop offset="1" stop-color="#213D85" stop-opacity="0.44"/>
</linearGradient>
<linearGradient id="paint3_linear" x1="273" y1="248" x2="273" y2="337" gradientUnits="userSpaceOnUse">
<stop stop-color="#00FF0A"/>
<stop offset="1" stop-color="#00FF57" stop-opacity="0"/>
</linearGradient>
</defs>
</svg>
