<svg width="804" height="921" viewBox="0 0 804 921" fill="none" xmlns="http://www.w3.org/2000/svg">
<path d="M443 63H398V128V192V257.5V323C398 323 380 354.207 398 388C416 421.793 398 452.5 398 452.5V517.5V582.5V648V713H443H480.5V648V582.5V517.5V452.5V388V323V257.5V192V128V63H443Z" fill="url(#paint0_linear)"/>
<path d="M196 63.7934H151V128.793V192.793V258.293V323.793V388.793C151 388.793 48.0002 -38 151 453.293C254 944.587 151 518.293 151 518.293V583.293V648.793V713.793H196H233.5V648.793V583.293V518.293V453.293C233.5 453.293 181 697.587 233.5 388.793C286 80 233.5 323.793 233.5 323.793V258.293V192.793V128.793V63.7934H196Z" fill="url(#paint1_linear)"/>
<path d="M471.585 362.318H531.245C531.245 362.318 571.66 339.567 600.527 362.318C629.395 385.069 662.112 362.318 662.112 362.318H721.772H779.508C806.451 362.318 804.526 422.207 779.508 422.207H721.772H662.112H600.527H531.245H471.585H410V362.318H471.585Z" fill="#C55555"/>
<path d="M462 63H524H596H660H722H782C812 63 810 123 782 123H722H660C660 123 688 156.207 596 123C504 89.7934 524 123 524 123H462H398V63H462Z" fill="#E70F0F"/>
<path d="M462 652H524C524 652 494 685.793 596 652C698 618.207 660 652 660 652H722H782C806 652 804 712 782 712H722H660H596H524H462H398V652H462Z" fill="#C79494"/>
<path d="M95 16.7934C197 -39.2066 0 62.7934 0 62.7934V126.793H126H192H254H384V62.7934H254H192C192 62.7934 39.7756 47.1127 95 16.7934Z" fill="#0F4CE7"/>
<path d="M71.8196 859.462C65.2965 859.462 59.3783 856.489 55.0117 851.683C55.0085 854.563 54.9099 858.721 54.1912 861.754C54.6628 862.06 55.0286 862.563 55.1001 863.188C56.0319 871.244 63.2192 877.318 71.8196 877.318C80.4185 877.318 87.6055 871.243 88.5391 863.188C88.6116 862.561 88.9697 862.06 89.4483 861.754C88.7293 858.721 88.6306 854.563 88.6275 851.682C84.2608 856.489 78.3423 859.462 71.8196 859.462Z" fill="#FFB980"/>
<path d="M88.2626 852.049C83.9328 856.631 78.1684 859.463 71.8196 859.463C65.2965 859.463 59.3783 856.489 55.0117 851.683C55.0085 854.563 54.9099 858.721 54.1912 861.754C54.6628 862.06 55.0286 862.563 55.1001 863.188C55.5119 866.749 57.149 869.92 59.5872 872.353C70.8311 870.67 83.5931 858.875 88.2626 852.049Z" fill="#F8AB6B"/>
<path d="M105.904 863.896C105.829 863.874 105.755 863.856 105.678 863.845L90.771 861.469C90.6798 861.454 90.4847 861.446 90.3917 861.446C89.4489 861.446 88.6538 862.193 88.5389 863.188C87.6053 871.243 80.418 877.318 71.8194 877.318C63.2187 877.318 56.0318 871.244 55.0999 863.188C54.9832 862.164 54.115 861.394 53.1997 861.448C53.0902 861.441 52.9827 861.451 52.8678 861.469L37.9608 863.845C37.884 863.857 37.8094 863.874 37.7345 863.897C30.6875 865.993 27 873.359 27 879.552V887.238C27 890.51 29.7429 893.172 33.1148 893.172H110.524C113.896 893.172 116.638 890.51 116.638 887.238V879.552C116.638 873.359 112.951 865.993 105.904 863.896Z" fill="#00E68C"/>
<path d="M88.6268 809.864H56.8796C51.7314 809.864 47.5422 814.314 47.5422 819.784V831.687C47.5422 847.003 58.4333 859.462 71.8192 859.462C85.2051 859.462 96.0962 847.003 96.0962 831.687V817.8C96.0965 813.424 92.7463 809.864 88.6268 809.864Z" fill="#FDC88E"/>
<path d="M84.8918 788.041H60.6145C57.102 788.041 54.1494 790.629 53.3544 794.104C46.9257 794.972 41.9397 800.819 41.9397 807.88V817.8C41.9397 822.912 43.9827 827.682 47.5422 831.072V819.783C47.5422 814.314 51.7314 809.863 56.8796 809.863H88.6267C92.7466 809.863 96.0965 813.423 96.0965 817.799V831.07C99.6568 827.681 101.699 822.911 101.699 817.799V805.896C101.699 796.051 94.1596 788.041 84.8918 788.041Z" fill="#5C546A"/>
<path d="M163.181 859.462C156.658 859.462 150.739 856.489 146.373 851.683C146.37 854.563 146.271 858.721 145.552 861.754C146.024 862.06 146.39 862.563 146.461 863.188C147.393 871.244 154.58 877.318 163.181 877.318C171.78 877.318 178.967 871.243 179.9 863.188C179.973 862.561 180.331 862.06 180.809 861.754C180.09 858.721 179.992 854.563 179.989 851.682C175.622 856.489 169.704 859.462 163.181 859.462Z" fill="#FFB980"/>
<path d="M179.624 852.049C175.294 856.631 169.529 859.463 163.181 859.463C156.658 859.463 150.739 856.489 146.373 851.683C146.37 854.563 146.271 858.721 145.552 861.754C146.024 862.06 146.39 862.563 146.461 863.188C146.873 866.749 148.51 869.92 150.948 872.353C162.192 870.67 174.954 858.875 179.624 852.049Z" fill="#F8AB6B"/>
<path d="M197.266 863.896C197.191 863.874 197.116 863.856 197.039 863.845L182.132 861.469C182.041 861.454 181.846 861.446 181.753 861.446C180.81 861.446 180.015 862.193 179.9 863.188C178.967 871.243 171.779 877.318 163.181 877.318C154.58 877.318 147.393 871.244 146.461 863.188C146.344 862.164 145.476 861.394 144.561 861.448C144.451 861.441 144.344 861.451 144.229 861.469L129.322 863.845C129.245 863.857 129.171 863.874 129.096 863.897C122.049 865.993 118.362 873.359 118.362 879.552V887.238C118.362 890.51 121.104 893.172 124.476 893.172H201.885C205.257 893.172 208 890.51 208 887.238V879.552C208 873.359 204.313 865.993 197.266 863.896Z" fill="#00ABFF"/>
<path d="M179.988 809.864H148.24C143.092 809.864 138.903 814.314 138.903 819.784V831.687C138.903 847.003 149.794 859.462 163.18 859.462C176.566 859.462 187.457 847.003 187.457 831.687V817.8C187.458 813.424 184.107 809.864 179.988 809.864Z" fill="#FDC88E"/>
<path d="M176.253 788.041H151.976C148.463 788.041 145.511 790.629 144.716 794.104C138.287 794.972 133.301 800.819 133.301 807.88V817.8C133.301 822.912 135.344 827.682 138.904 831.072V819.783C138.904 814.314 143.093 809.863 148.241 809.863H179.988C184.108 809.863 187.458 813.423 187.458 817.799V831.07C191.018 827.681 193.06 822.911 193.06 817.799V805.896C193.06 796.051 185.521 788.041 176.253 788.041Z" fill="#7E5C62"/>
<path d="M117.5 869.162C107.621 869.162 98.6588 864.659 92.0459 857.38C92.041 861.742 91.8918 868.038 90.803 872.632C91.5171 873.096 92.0714 873.857 92.1796 874.804C93.5908 887.004 104.475 896.203 117.5 896.203C130.522 896.203 141.407 887.003 142.821 874.804C142.93 873.856 143.473 873.096 144.198 872.634C143.109 868.039 142.959 861.743 142.954 857.38C136.341 864.659 127.379 869.162 117.5 869.162Z" fill="#FDC88E"/>
<path d="M142.402 857.935C135.844 864.874 127.115 869.162 117.5 869.162C107.621 869.162 98.6588 864.659 92.0459 857.38C92.041 861.742 91.8918 868.038 90.803 872.632C91.5171 873.096 92.0714 873.857 92.1796 874.804C92.8035 880.197 95.2827 884.999 98.9752 888.683C116.003 886.136 135.33 868.273 142.402 857.935Z" fill="#FFB980"/>
<path d="M169.119 875.877C169.005 875.843 168.892 875.817 168.776 875.799L146.201 872.201C146.063 872.178 145.767 872.167 145.626 872.167C144.199 872.167 142.994 873.298 142.82 874.804C141.406 887.003 130.522 896.203 117.5 896.203C104.475 896.203 93.5903 887.005 92.1791 874.804C92.0023 873.254 90.6876 872.088 89.3011 872.168C89.1353 872.158 88.9723 872.172 88.7984 872.2L66.2233 875.799C66.1073 875.817 65.9942 875.843 65.8807 875.877C55.2095 879.052 49.625 890.207 49.625 899.586V911.225C49.625 916.181 53.7788 920.213 58.8853 920.213H176.114C181.221 920.213 185.375 916.181 185.375 911.225V899.586C185.375 890.207 179.791 879.052 169.119 875.877Z" fill="#FF4F19"/>
<path d="M142.953 794.05H94.875C87.0782 794.05 80.7344 800.789 80.7344 809.072V827.099C80.7344 850.293 97.228 869.162 117.5 869.162C137.772 869.162 154.266 850.293 154.266 827.099V806.068C154.266 799.441 149.192 794.05 142.953 794.05Z" fill="#FFE1B2"/>
<path d="M137.297 761H100.531C95.2119 761 90.7406 764.92 89.5362 770.182C79.8007 771.497 72.25 780.352 72.25 791.045V806.068C72.25 813.811 75.344 821.034 80.7344 826.168V809.072C80.7344 800.789 87.0782 794.05 94.875 794.05H142.953C149.192 794.05 154.266 799.441 154.266 806.068V826.164C159.657 821.032 162.75 813.809 162.75 806.068V788.041C162.75 773.131 151.332 761 137.297 761Z" fill="#7E5449"/>
<path d="M268.934 832.43H259.694V869.72L266.492 871.04V875H246.362V871.04L253.16 869.72V832.43H243.854L242.996 842.33H237.782V827.48H275.072V842.33H269.858L268.934 832.43ZM277.061 871.04L283.199 869.72V832.76L277.061 831.44V827.48H308.741V842H303.527L302.669 832.43H289.733V848.204H302.141V853.682H289.733V870.05H302.603L303.527 859.49H308.741V875H277.061V871.04ZM327.514 827.48H336.754L349.69 869.72L354.574 871.04V875H337.216V871.04L343.09 869.72L339.856 858.764H324.412L321.178 869.72L327.118 871.04V875H309.694V871.04L314.578 869.72L327.514 827.48ZM325.996 853.286H338.206L332.134 832.562L325.996 853.286ZM366.92 832.43V869.72L371.738 871.04V875H354.248V871.04L360.386 869.72V832.76L354.248 831.44V827.48H371.738L382.364 869.192L393.056 827.48H410.546V831.44L404.408 832.76V869.72L410.546 871.04V875H393.056V871.04L397.874 869.72V832.43L387.116 875H377.612L366.92 832.43ZM430.408 875.726C428.692 875.726 427.262 875.55 426.118 875.198C425.018 874.846 424.116 874.384 423.412 873.812C422.708 873.24 422.158 872.58 421.762 871.832C421.366 871.084 421.036 870.336 420.772 869.588H420.376L419.056 875H413.776V860.348H420.376C420.376 862.152 420.596 863.692 421.036 864.968C421.52 866.2 422.158 867.212 422.95 868.004C423.742 868.796 424.688 869.39 425.788 869.786C426.932 870.138 428.164 870.314 429.484 870.314C430.936 870.314 432.168 870.138 433.18 869.786C434.192 869.39 435.028 868.862 435.688 868.202C436.348 867.542 436.81 866.772 437.074 865.892C437.382 865.012 437.536 864.088 437.536 863.12C437.536 861.008 436.964 859.358 435.82 858.17C434.676 856.938 433.246 855.904 431.53 855.068C429.858 854.232 428.01 853.484 425.986 852.824C424.006 852.12 422.158 851.24 420.442 850.184C418.77 849.084 417.362 847.676 416.218 845.96C415.074 844.244 414.502 841.956 414.502 839.096C414.502 837.028 414.832 835.224 415.492 833.684C416.152 832.144 417.032 830.868 418.132 829.856C419.276 828.8 420.618 828.03 422.158 827.546C423.698 827.018 425.326 826.754 427.042 826.754C428.186 826.754 429.264 826.886 430.276 827.15C431.332 827.37 432.278 827.744 433.114 828.272C433.994 828.8 434.72 829.504 435.292 830.384C435.864 831.264 436.26 832.342 436.48 833.618H436.81L438.13 827.48H443.344V843.65H436.81C436.81 842.33 436.656 840.988 436.348 839.624C436.04 838.26 435.534 837.028 434.83 835.928C434.126 834.828 433.224 833.926 432.124 833.222C431.068 832.518 429.77 832.166 428.23 832.166C427.262 832.166 426.338 832.32 425.458 832.628C424.622 832.936 423.874 833.376 423.214 833.948C422.554 834.52 422.026 835.224 421.63 836.06C421.278 836.852 421.102 837.776 421.102 838.832C421.102 840.724 421.674 842.22 422.818 843.32C423.962 844.376 425.37 845.3 427.042 846.092C428.758 846.884 430.606 847.654 432.586 848.402C434.61 849.106 436.458 850.03 438.13 851.174C439.846 852.274 441.276 853.726 442.42 855.53C443.564 857.334 444.136 859.71 444.136 862.658C444.136 866.75 442.926 869.962 440.506 872.294C438.13 874.582 434.764 875.726 430.408 875.726Z" fill="#0F4CE7"/>
<path d="M268.934 832.43H259.694V869.72L266.492 871.04V875H246.362V871.04L253.16 869.72V832.43H243.854L242.996 842.33H237.782V827.48H275.072V842.33H269.858L268.934 832.43ZM277.061 871.04L283.199 869.72V832.76L277.061 831.44V827.48H308.741V842H303.527L302.669 832.43H289.733V848.204H302.141V853.682H289.733V870.05H302.603L303.527 859.49H308.741V875H277.061V871.04ZM327.514 827.48H336.754L349.69 869.72L354.574 871.04V875H337.216V871.04L343.09 869.72L339.856 858.764H324.412L321.178 869.72L327.118 871.04V875H309.694V871.04L314.578 869.72L327.514 827.48ZM325.996 853.286H338.206L332.134 832.562L325.996 853.286ZM366.92 832.43V869.72L371.738 871.04V875H354.248V871.04L360.386 869.72V832.76L354.248 831.44V827.48H371.738L382.364 869.192L393.056 827.48H410.546V831.44L404.408 832.76V869.72L410.546 871.04V875H393.056V871.04L397.874 869.72V832.43L387.116 875H377.612L366.92 832.43ZM430.408 875.726C428.692 875.726 427.262 875.55 426.118 875.198C425.018 874.846 424.116 874.384 423.412 873.812C422.708 873.24 422.158 872.58 421.762 871.832C421.366 871.084 421.036 870.336 420.772 869.588H420.376L419.056 875H413.776V860.348H420.376C420.376 862.152 420.596 863.692 421.036 864.968C421.52 866.2 422.158 867.212 422.95 868.004C423.742 868.796 424.688 869.39 425.788 869.786C426.932 870.138 428.164 870.314 429.484 870.314C430.936 870.314 432.168 870.138 433.18 869.786C434.192 869.39 435.028 868.862 435.688 868.202C436.348 867.542 436.81 866.772 437.074 865.892C437.382 865.012 437.536 864.088 437.536 863.12C437.536 861.008 436.964 859.358 435.82 858.17C434.676 856.938 433.246 855.904 431.53 855.068C429.858 854.232 428.01 853.484 425.986 852.824C424.006 852.12 422.158 851.24 420.442 850.184C418.77 849.084 417.362 847.676 416.218 845.96C415.074 844.244 414.502 841.956 414.502 839.096C414.502 837.028 414.832 835.224 415.492 833.684C416.152 832.144 417.032 830.868 418.132 829.856C419.276 828.8 420.618 828.03 422.158 827.546C423.698 827.018 425.326 826.754 427.042 826.754C428.186 826.754 429.264 826.886 430.276 827.15C431.332 827.37 432.278 827.744 433.114 828.272C433.994 828.8 434.72 829.504 435.292 830.384C435.864 831.264 436.26 832.342 436.48 833.618H436.81L438.13 827.48H443.344V843.65H436.81C436.81 842.33 436.656 840.988 436.348 839.624C436.04 838.26 435.534 837.028 434.83 835.928C434.126 834.828 433.224 833.926 432.124 833.222C431.068 832.518 429.77 832.166 428.23 832.166C427.262 832.166 426.338 832.32 425.458 832.628C424.622 832.936 423.874 833.376 423.214 833.948C422.554 834.52 422.026 835.224 421.63 836.06C421.278 836.852 421.102 837.776 421.102 838.832C421.102 840.724 421.674 842.22 422.818 843.32C423.962 844.376 425.37 845.3 427.042 846.092C428.758 846.884 430.606 847.654 432.586 848.402C434.61 849.106 436.458 850.03 438.13 851.174C439.846 852.274 441.276 853.726 442.42 855.53C443.564 857.334 444.136 859.71 444.136 862.658C444.136 866.75 442.926 869.962 440.506 872.294C438.13 874.582 434.764 875.726 430.408 875.726Z" fill="url(#paint2_linear)" fill-opacity="0.2"/>
<path d="M458.523 871.04L464.661 869.72V832.76L458.523 831.44V827.48H490.203V842H484.989L484.131 832.43H471.195V848.204H483.603V853.682H471.195V870.05H484.065L484.989 859.49H490.203V875H458.523V871.04ZM496.699 832.76L491.155 831.44V827.48H509.239V831.44L503.299 832.76L513.925 869.918L524.551 832.76L518.677 831.44V827.48H536.695V831.44L531.151 832.76L518.545 875H509.305L496.699 832.76ZM554.588 875.726C550.716 875.726 547.592 875.088 545.216 873.812C542.84 872.492 540.992 870.732 539.672 868.532C538.352 866.288 537.472 863.692 537.032 860.744C536.592 857.752 536.372 854.562 536.372 851.174C536.372 847.83 536.57 844.684 536.966 841.736C537.406 838.744 538.264 836.148 539.54 833.948C540.816 831.704 542.62 829.944 544.952 828.668C547.284 827.392 550.386 826.754 554.258 826.754C558.13 826.754 561.254 827.414 563.63 828.734C566.05 830.01 567.898 831.77 569.174 834.014C570.45 836.258 571.308 838.876 571.748 841.868C572.188 844.816 572.408 847.962 572.408 851.306C572.408 854.65 572.21 857.796 571.814 860.744C571.418 863.692 570.582 866.288 569.306 868.532C568.074 870.732 566.27 872.492 563.894 873.812C561.562 875.088 558.46 875.726 554.588 875.726ZM554.588 870.974C557.228 870.974 559.274 870.468 560.726 869.456C562.178 868.4 563.256 866.992 563.96 865.232C564.708 863.428 565.148 861.36 565.28 859.028C565.456 856.652 565.544 854.122 565.544 851.438C565.544 848.754 565.456 846.224 565.28 843.848C565.148 841.428 564.708 839.316 563.96 837.512C563.256 835.664 562.156 834.212 560.66 833.156C559.208 832.056 557.162 831.506 554.522 831.506C551.926 831.506 549.88 832.034 548.384 833.09C546.888 834.102 545.744 835.51 544.952 837.314C544.204 839.074 543.72 841.164 543.5 843.584C543.324 845.96 543.236 848.534 543.236 851.306C543.236 854.078 543.324 856.674 543.5 859.094C543.72 861.47 544.204 863.538 544.952 865.298C545.744 867.058 546.888 868.444 548.384 869.456C549.924 870.468 551.992 870.974 554.588 870.974ZM600.19 859.49H605.404V875H575.044V871.04L581.182 869.72V832.76L575.044 831.44V827.48H593.854V831.44L587.716 832.76V870.05H599.266L600.19 859.49ZM643.819 832.76V853.946C643.819 856.63 643.643 859.27 643.291 861.866C642.939 864.462 642.169 866.794 640.981 868.862C639.837 870.886 638.165 872.536 635.965 873.812C633.765 875.088 630.795 875.726 627.055 875.726C623.315 875.726 620.345 875.088 618.145 873.812C615.945 872.536 614.273 870.864 613.129 868.796C611.985 866.728 611.237 864.396 610.885 861.8C610.577 859.16 610.423 856.498 610.423 853.814V832.76L604.285 831.44V827.48H623.095V831.44L616.957 832.76V853.946C616.957 856.014 617.045 858.06 617.221 860.084C617.441 862.108 617.881 863.934 618.541 865.562C619.245 867.146 620.257 868.444 621.577 869.456C622.941 870.468 624.767 870.974 627.055 870.974C629.343 870.974 631.169 870.468 632.533 869.456C633.897 868.4 634.931 867.058 635.635 865.43C636.339 863.802 636.779 861.998 636.955 860.018C637.175 857.994 637.285 856.014 637.285 854.078V832.76L631.147 831.44V827.48H649.957V831.44L643.819 832.76ZM681.439 832.43H672.199V869.72L678.997 871.04V875H658.867V871.04L665.665 869.72V832.43H656.359L655.501 842.33H650.287V827.48H687.577V842.33H682.363L681.439 832.43ZM708.376 831.44L702.238 832.76V869.72L708.376 871.04V875H689.566V871.04L695.704 869.72V832.76L689.566 831.44V827.48H708.376V831.44ZM729.153 875.726C725.281 875.726 722.157 875.088 719.781 873.812C717.405 872.492 715.557 870.732 714.237 868.532C712.917 866.288 712.037 863.692 711.597 860.744C711.157 857.752 710.937 854.562 710.937 851.174C710.937 847.83 711.135 844.684 711.531 841.736C711.971 838.744 712.829 836.148 714.105 833.948C715.381 831.704 717.185 829.944 719.517 828.668C721.849 827.392 724.951 826.754 728.823 826.754C732.695 826.754 735.819 827.414 738.195 828.734C740.615 830.01 742.463 831.77 743.739 834.014C745.015 836.258 745.873 838.876 746.313 841.868C746.753 844.816 746.973 847.962 746.973 851.306C746.973 854.65 746.775 857.796 746.379 860.744C745.983 863.692 745.147 866.288 743.871 868.532C742.639 870.732 740.835 872.492 738.459 873.812C736.127 875.088 733.025 875.726 729.153 875.726ZM729.153 870.974C731.793 870.974 733.839 870.468 735.291 869.456C736.743 868.4 737.821 866.992 738.525 865.232C739.273 863.428 739.713 861.36 739.845 859.028C740.021 856.652 740.109 854.122 740.109 851.438C740.109 848.754 740.021 846.224 739.845 843.848C739.713 841.428 739.273 839.316 738.525 837.512C737.821 835.664 736.721 834.212 735.225 833.156C733.773 832.056 731.727 831.506 729.087 831.506C726.491 831.506 724.445 832.034 722.949 833.09C721.453 834.102 720.309 835.51 719.517 837.314C718.769 839.074 718.285 841.164 718.065 843.584C717.889 845.96 717.801 848.534 717.801 851.306C717.801 854.078 717.889 856.674 718.065 859.094C718.285 861.47 718.769 863.538 719.517 865.298C720.309 867.058 721.453 868.444 722.949 869.456C724.489 870.468 726.557 870.974 729.153 870.974ZM783.532 869.72V832.76L778.714 831.44V827.48H796.204V831.44L790.066 832.76V875H778.714L762.28 832.76V869.72L767.098 871.04V875H749.608V871.04L755.746 869.72V832.76L749.608 831.44V827.48H767.098L783.532 869.72Z" fill="#E70F0F"/>
<defs>
<linearGradient id="paint0_linear" x1="439.25" y1="63" x2="439.25" y2="713" gradientUnits="userSpaceOnUse">
<stop stop-color="#D70909"/>
<stop offset="1" stop-color="#852121" stop-opacity="0.44"/>
</linearGradient>
<linearGradient id="paint1_linear" x1="192.25" y1="63.7934" x2="192.25" y2="713.793" gradientUnits="userSpaceOnUse">
<stop stop-color="#0943D7"/>
<stop offset="1" stop-color="#213D85" stop-opacity="0.44"/>
</linearGradient>
<linearGradient id="paint2_linear" x1="520" y1="810" x2="520" y2="887" gradientUnits="userSpaceOnUse">
<stop stop-color="#00FF0A"/>
<stop offset="1" stop-color="#00FF57" stop-opacity="0"/>
</linearGradient>
</defs>
</svg>
